RecursiveSans-CasualRegular.ufo
<glyph name="exclam" format="1">
  <advance width="350"/>
  <unicode hex="0021"/>
  <outline>
    <contour>
      <point x="210" y="256" type="line"/>
      <point x="220" y="330"/>
      <point x="227" y="415"/>
      <point x="227" y="488" type="curve"/>
      <point x="227" y="661" type="line" smooth="yes"/>
      <point x="227" y="697"/>
      <point x="201" y="710"/>
      <point x="150" y="710" type="curve" smooth="yes"/>
      <point x="136" y="710"/>
      <point x="125" y="709"/>
      <point x="114" y="706" type="curve"/>
      <point x="121" y="670"/>
      <point x="123" y="635"/>
      <point x="123" y="597" type="curve" smooth="yes"/>
      <point x="123" y="490" type="line"/>
      <point x="123" y="382"/>
      <point x="130" y="289"/>
      <point x="146" y="273" type="curve" smooth="yes"/>
      <point x="158" y="261"/>
      <point x="178" y="256"/>
      <point x="203" y="256" type="curve"/>
    </contour>
    <contour>
      <point x="250" y="5" type="curve"/>
      <point x="250" y="90" type="line" smooth="yes"/>
      <point x="250" y="133"/>
      <point x="213" y="150"/>
      <point x="159" y="150" type="curve" smooth="yes"/>
      <point x="137" y="150"/>
      <point x="117" y="146"/>
      <point x="100" y="139" type="curve"/>
      <point x="100" y="53" type="line" smooth="yes"/>
      <point x="100" y="10"/>
      <point x="137" y="-7"/>
      <point x="191" y="-7" type="curve" smooth="yes"/>
      <point x="213" y="-7"/>
      <point x="233" y="-3"/>
    </contour>
  </outline>
</glyph>
<glyph name="quotedbl" format="1">
  <advance width="600"/>
  <unicode hex="0022"/>
  <outline>
    <contour>
      <point x="228" y="441" type="curve"/>
      <point x="239" y="675" type="line" smooth="yes"/>
      <point x="242" y="728"/>
      <point x="216" y="754"/>
      <point x="157" y="754" type="curve" smooth="yes"/>
      <point x="141" y="754"/>
      <point x="130" y="752"/>
      <point x="121" y="750" type="curve"/>
      <point x="129" y="726"/>
      <point x="131" y="712"/>
      <point x="134" y="657" type="curve" smooth="yes"/>
      <point x="144" y="481" type="line" smooth="yes"/>
      <point x="145" y="450"/>
      <point x="162" y="439"/>
      <point x="203" y="439" type="curve" smooth="yes"/>
      <point x="212" y="439"/>
      <point x="221" y="439"/>
    </contour>
    <contour>
      <point x="454" y="441" type="curve"/>
      <point x="466" y="667" type="line" smooth="yes"/>
      <point x="470" y="728"/>
      <point x="443" y="754"/>
      <point x="386" y="754" type="curve" smooth="yes"/>
      <point x="375" y="754"/>
      <point x="366" y="753"/>
      <point x="355" y="750" type="curve"/>
      <point x="371" y="481" type="line"/>
      <point x="373" y="450"/>
      <point x="389" y="439"/>
      <point x="430" y="439" type="curve" smooth="yes"/>
      <point x="440" y="439"/>
      <point x="447" y="439"/>
    </contour>
  </outline>
</glyph>
<glyph name="numbersign" format="1">
  <advance width="600"/>
  <unicode hex="0023"/>
  <outline>
    <contour>
      <point x="202" y="715" type="curve"/>
      <point x="202" y="513"/>
      <point x="173" y="239"/>
      <point x="65" y="-12" type="curve"/>
      <point x="74" y="-17"/>
      <point x="81" y="-20"/>
      <point x="96" y="-20" type="curve"/>
      <point x="120" y="-20"/>
      <point x="136" y="-15"/>
      <point x="145" y="7" type="curve" smooth="yes"/>
      <point x="244" y="253"/>
      <point x="272" y="519"/>
      <point x="272" y="696" type="curve" smooth="yes"/>
      <point x="272" y="716"/>
      <point x="253" y="720"/>
      <point x="233" y="720" type="curve" smooth="yes"/>
      <point x="223" y="720"/>
      <point x="212" y="718"/>
    </contour>
    <contour>
      <point x="408" y="715" type="curve"/>
      <point x="408" y="516"/>
      <point x="379" y="239"/>
      <point x="271" y="-12" type="curve"/>
      <point x="280" y="-17"/>
      <point x="287" y="-20"/>
      <point x="302" y="-20" type="curve"/>
      <point x="326" y="-20"/>
      <point x="342" y="-15"/>
      <point x="351" y="7" type="curve" smooth="yes"/>
      <point x="450" y="253"/>
      <point x="478" y="519"/>
      <point x="478" y="696" type="curve" smooth="yes"/>
      <point x="478" y="716"/>
      <point x="459" y="720"/>
      <point x="439" y="720" type="curve" smooth="yes"/>
      <point x="429" y="720"/>
      <point x="418" y="718"/>
    </contour>
    <contour>
      <point x="569" y="441" type="line"/>
      <point x="569" y="445"/>
      <point x="569" y="449"/>
      <point x="569" y="453" type="curve" smooth="yes"/>
      <point x="569" y="479"/>
      <point x="564" y="495"/>
      <point x="554" y="506" type="curve" smooth="yes"/>
      <point x="547" y="513"/>
      <point x="538" y="516"/>
      <point x="520" y="516" type="curve"/>
      <point x="70" y="516" type="line"/>
      <point x="68" y="507"/>
      <point x="67" y="497"/>
      <point x="67" y="489" type="curve" smooth="yes"/>
      <point x="67" y="458"/>
      <point x="76" y="441"/>
      <point x="106" y="441" type="curve"/>
    </contour>
    <contour>
      <point x="31" y="259" type="line"/>
      <point x="31" y="255"/>
      <point x="31" y="251"/>
      <point x="31" y="247" type="curve" smooth="yes"/>
      <point x="31" y="220"/>
      <point x="36" y="205"/>
      <point x="46" y="194" type="curve" smooth="yes"/>
      <point x="53" y="187"/>
      <point x="62" y="184"/>
      <point x="80" y="184" type="curve"/>
      <point x="530" y="184" type="line"/>
      <point x="532" y="193"/>
      <point x="533" y="203"/>
      <point x="533" y="211" type="curve" smooth="yes"/>
      <point x="533" y="242"/>
      <point x="524" y="259"/>
      <point x="494" y="259" type="curve"/>
    </contour>
  </outline>
</glyph>
<glyph name="dollar" format="1">
  <advance width="600"/>
  <unicode hex="0024"/>
  <outline>
    <contour>
      <point x="375" y="720" type="curve" smooth="yes"/>
      <point x="212" y="720"/>
      <point x="84" y="614"/>
      <point x="84" y="501" type="curve" smooth="yes"/>
      <point x="84" y="490" type="line" smooth="yes"/>
      <point x="84" y="464"/>
      <point x="129" y="442"/>
      <point x="167" y="438" type="curve"/>
      <point x="162" y="459"/>
      <point x="162" y="479"/>
      <point x="162" y="500" type="curve" smooth="yes"/>
      <point x="162" y="576"/>
      <point x="268" y="639"/>
      <point x="378" y="639" type="curve" smooth="yes"/>
      <point x="443" y="639"/>
      <point x="480" y="625"/>
      <point x="516" y="601" type="curve"/>
      <point x="521" y="601" type="line"/>
      <point x="527" y="614"/>
      <point x="530" y="627"/>
      <point x="530" y="642" type="curve" smooth="yes"/>
      <point x="530" y="658"/>
      <point x="528" y="674"/>
      <point x="517" y="684" type="curve" smooth="yes"/>
      <point x="494" y="707"/>
      <point x="447" y="720"/>
    </contour>
    <contour>
      <point x="376" y="350" type="curve" smooth="yes"/>
      <point x="288" y="382" type="line" smooth="yes"/>
      <point x="174" y="424"/>
      <point x="162" y="458"/>
      <point x="162" y="500" type="curve" smooth="yes"/>
      <point x="162" y="523"/>
      <point x="163" y="540"/>
      <point x="167" y="566" type="curve"/>
      <point x="125" y="560"/>
      <point x="84" y="539"/>
      <point x="84" y="490" type="curve" smooth="yes"/>
      <point x="84" y="419"/>
      <point x="123" y="363"/>
      <point x="265" y="311" type="curve" smooth="yes"/>
      <point x="353" y="278" type="line" smooth="yes"/>
      <point x="440" y="246"/>
      <point x="464" y="206"/>
      <point x="464" y="136" type="curve" smooth="yes"/>
      <point x="464" y="127"/>
      <point x="464" y="120"/>
      <point x="464" y="116" type="curve"/>
      <point x="494" y="119"/>
      <point x="535" y="155"/>
      <point x="535" y="178" type="curve"/>
      <point x="535" y="244"/>
      <point x="490" y="309"/>
    </contour>
    <contour>
      <point x="300" y="-15" type="curve" smooth="yes"/>
      <point x="446" y="-15"/>
      <point x="535" y="60"/>
      <point x="535" y="170" type="curve" smooth="yes"/>
      <point x="535" y="178" type="line" smooth="yes"/>
      <point x="535" y="204"/>
      <point x="503" y="223"/>
      <point x="480" y="225" type="curve"/>
      <point x="480" y="221"/>
      <point x="480" y="216"/>
      <point x="480" y="207" type="curve" smooth="yes"/>
      <point x="480" y="122"/>
      <point x="410" y="67"/>
      <point x="300" y="67" type="curve" smooth="yes"/>
      <point x="197" y="67"/>
      <point x="129" y="96"/>
      <point x="79" y="158" type="curve"/>
      <point x="75" y="158" type="line"/>
      <point x="71" y="144"/>
      <point x="69" y="130"/>
      <point x="69" y="113" type="curve" smooth="yes"/>
      <point x="69" y="84"/>
      <point x="75" y="63"/>
      <point x="90" y="48" type="curve" smooth="yes"/>
      <point x="130" y="8"/>
      <point x="207" y="-15"/>
    </contour>
    <contour>
      <point x="345" y="416" type="line"/>
      <point x="396" y="811" type="line" smooth="yes"/>
      <point x="404" y="861"/>
      <point x="388" y="885"/>
      <point x="344" y="885" type="curve" smooth="yes"/>
      <point x="332" y="885"/>
      <point x="317" y="882"/>
      <point x="308" y="879" type="curve"/>
      <point x="315" y="854"/>
      <point x="320" y="830"/>
      <point x="318" y="788" type="curve"/>
      <point x="303" y="450" type="line" smooth="yes"/>
      <point x="302" y="428"/>
      <point x="319" y="416"/>
      <point x="341" y="416" type="curve" smooth="yes"/>
    </contour>
    <contour>
      <point x="280" y="248" type="line"/>
      <point x="230" y="-121" type="line" smooth="yes"/>
      <point x="222" y="-171"/>
      <point x="238" y="-195"/>
      <point x="283" y="-195" type="curve" smooth="yes"/>
      <point x="294" y="-195"/>
      <point x="309" y="-192"/>
      <point x="319" y="-189" type="curve"/>
      <point x="311" y="-164"/>
      <point x="307" y="-140"/>
      <point x="308" y="-98" type="curve"/>
      <point x="323" y="213" type="line" smooth="yes"/>
      <point x="324" y="235"/>
      <point x="306" y="248"/>
      <point x="284" y="248" type="curve" smooth="yes"/>
    </contour>
  </outline>
</glyph>
<glyph name="quotesingle" format="1">
  <advance width="250"/>
  <unicode hex="0027"/>
  <outline>
    <contour>
      <point x="173" y="441" type="curve"/>
      <point x="184" y="667" type="line" smooth="yes"/>
      <point x="187" y="728"/>
      <point x="161" y="754"/>
      <point x="98" y="754" type="curve" smooth="yes"/>
      <point x="86" y="754"/>
      <point x="75" y="752"/>
      <point x="66" y="750" type="curve"/>
      <point x="74" y="726"/>
      <point x="76" y="712"/>
      <point x="79" y="657" type="curve" smooth="yes"/>
      <point x="89" y="481" type="line" smooth="yes"/>
      <point x="91" y="450"/>
      <point x="107" y="439"/>
      <point x="148" y="439" type="curve" smooth="yes"/>
      <point x="158" y="439"/>
      <point x="166" y="439"/>
    </contour>
  </outline>
</glyph>
<glyph name="parenleft" format="1">
  <advance width="400"/>
  <unicode hex="0028"/>
  <outline>
    <contour>
      <point x="285" y="745" type="curve" smooth="yes"/>
      <point x="175" y="635"/>
      <point x="113" y="480"/>
      <point x="113" y="302" type="curve" smooth="yes"/>
      <point x="113" y="296" type="line" smooth="yes"/>
      <point x="113" y="118"/>
      <point x="175" y="-38"/>
      <point x="285" y="-148" type="curve" smooth="yes"/>
      <point x="303" y="-165"/>
      <point x="317" y="-172"/>
      <point x="336" y="-172" type="curve" smooth="yes"/>
      <point x="365" y="-172"/>
      <point x="385" y="-164"/>
      <point x="401" y="-153" type="curve"/>
      <point x="401" y="-149" type="line"/>
      <point x="265" y="-29"/>
      <point x="201" y="124"/>
      <point x="201" y="296" type="curve" smooth="yes"/>
      <point x="201" y="302" type="line" smooth="yes"/>
      <point x="201" y="472"/>
      <point x="264" y="627"/>
      <point x="401" y="747" type="curve"/>
      <point x="401" y="751" type="line"/>
      <point x="385" y="761"/>
      <point x="365" y="770"/>
      <point x="336" y="770" type="curve" smooth="yes"/>
      <point x="317" y="770"/>
      <point x="303" y="763"/>
    </contour>
  </outline>
</glyph>
<glyph name="parenright" format="1">
  <advance width="400"/>
  <unicode hex="0029"/>
  <outline>
    <contour>
      <point x="115" y="-146" type="curve" smooth="yes"/>
      <point x="225" y="-36"/>
      <point x="287" y="119"/>
      <point x="287" y="297" type="curve" smooth="yes"/>
      <point x="287" y="303" type="line" smooth="yes"/>
      <point x="287" y="481"/>
      <point x="225" y="636"/>
      <point x="115" y="747" type="curve" smooth="yes"/>
      <point x="97" y="764"/>
      <point x="83" y="771"/>
      <point x="64" y="771" type="curve" smooth="yes"/>
      <point x="35" y="771"/>
      <point x="15" y="763"/>
      <point x="-1" y="752" type="curve"/>
      <point x="-1" y="748" type="line"/>
      <point x="135" y="628"/>
      <point x="199" y="475"/>
      <point x="199" y="303" type="curve" smooth="yes"/>
      <point x="199" y="297" type="line" smooth="yes"/>
      <point x="199" y="126"/>
      <point x="136" y="-28"/>
      <point x="-1" y="-148" type="curve"/>
      <point x="-1" y="-152" type="line"/>
      <point x="15" y="-162"/>
      <point x="35" y="-171"/>
      <point x="64" y="-171" type="curve" smooth="yes"/>
      <point x="83" y="-171"/>
      <point x="97" y="-164"/>
    </contour>
  </outline>
</glyph>
<glyph name="asterisk" format="1">
  <advance width="500"/>
  <unicode hex="002A"/>
  <outline>
    <contour>
      <point x="210" y="765" type="curve"/>
      <point x="215" y="748"/>
      <point x="220" y="734"/>
      <point x="222" y="711" type="curve" smooth="yes"/>
      <point x="233" y="556" type="line"/>
      <point x="216" y="405" type="line" smooth="yes"/>
      <point x="209" y="365"/>
      <point x="222" y="343"/>
      <point x="261" y="343" type="curve"/>
      <point x="271" y="343"/>
      <point x="281" y="344"/>
      <point x="291" y="348" type="curve"/>
      <point x="285" y="364"/>
      <point x="281" y="379"/>
      <point x="279" y="401" type="curve" smooth="yes"/>
      <point x="267" y="556" type="line"/>
      <point x="285" y="707" type="line" smooth="yes"/>
      <point x="291" y="748"/>
      <point x="279" y="770"/>
      <point x="239" y="770" type="curve" smooth="yes"/>
      <point x="229" y="769"/>
      <point x="220" y="768"/>
    </contour>
    <contour>
      <point x="416" y="691" type="curve"/>
      <point x="239" y="572" type="line"/>
      <point x="77" y="497" type="line" smooth="yes"/>
      <point x="59" y="489"/>
      <point x="55" y="466"/>
      <point x="69" y="444" type="curve"/>
      <point x="74" y="436"/>
      <point x="80" y="430"/>
      <point x="85" y="423" type="curve"/>
      <point x="262" y="543" type="line"/>
      <point x="423" y="619" type="line" smooth="yes"/>
      <point x="442" y="627"/>
      <point x="444" y="647"/>
      <point x="431" y="670" type="curve" smooth="yes"/>
      <point x="427" y="677"/>
      <point x="423" y="684"/>
    </contour>
    <contour>
      <point x="448" y="482" type="curve"/>
      <point x="262" y="571" type="line"/>
      <point x="111" y="675" type="line" smooth="yes"/>
      <point x="94" y="687"/>
      <point x="76" y="680"/>
      <point x="61" y="658" type="curve"/>
      <point x="57" y="651"/>
      <point x="54" y="641"/>
      <point x="52" y="633" type="curve"/>
      <point x="238" y="542" type="line"/>
      <point x="389" y="439" type="line" smooth="yes"/>
      <point x="406" y="426"/>
      <point x="424" y="434"/>
      <point x="438" y="457" type="curve"/>
      <point x="443" y="466"/>
      <point x="446" y="472"/>
    </contour>
  </outline>
</glyph>
<glyph name="plus" format="1">
  <advance width="600"/>
  <unicode hex="002B"/>
  <outline>
    <contour>
      <point x="57" y="341" type="line"/>
      <point x="57" y="337"/>
      <point x="57" y="332"/>
      <point x="57" y="328" type="curve" smooth="yes"/>
      <point x="57" y="298"/>
      <point x="61" y="280"/>
      <point x="72" y="269" type="curve" smooth="yes"/>
      <point x="79" y="262"/>
      <point x="88" y="259"/>
      <point x="106" y="259" type="curve"/>
      <point x="544" y="259" type="line"/>
      <point x="546" y="268"/>
      <point x="547" y="278"/>
      <point x="547" y="286" type="curve" smooth="yes"/>
      <point x="547" y="322"/>
      <point x="538" y="341"/>
      <point x="508" y="341" type="curve"/>
    </contour>
    <contour>
      <point x="341" y="59" type="curve"/>
      <point x="341" y="456" type="line" smooth="yes"/>
      <point x="341" y="491"/>
      <point x="337" y="511"/>
      <point x="323" y="526" type="curve" smooth="yes"/>
      <point x="309" y="540"/>
      <point x="289" y="543"/>
      <point x="272" y="543" type="curve" smooth="yes"/>
      <point x="264" y="543"/>
      <point x="256" y="542"/>
      <point x="248" y="540" type="curve"/>
      <point x="257" y="510"/>
      <point x="260" y="491"/>
      <point x="260" y="447" type="curve" smooth="yes"/>
      <point x="260" y="92" type="line" smooth="yes"/>
      <point x="260" y="63"/>
      <point x="283" y="57"/>
      <point x="316" y="57" type="curve" smooth="yes"/>
      <point x="325" y="57"/>
      <point x="334" y="57"/>
    </contour>
  </outline>
</glyph>
<glyph name="comma" format="1">
  <advance width="350"/>
  <unicode hex="002C"/>
  <outline>
    <contour>
      <point x="140" y="-193" type="curve" smooth="yes"/>
      <point x="155" y="-193"/>
      <point x="162" y="-191"/>
      <point x="169" y="-183" type="curve"/>
      <point x="222" y="-131"/>
      <point x="271" y="-26"/>
      <point x="271" y="93" type="curve"/>
      <point x="271" y="129"/>
      <point x="243" y="141"/>
      <point x="201" y="141" type="curve" smooth="yes"/>
      <point x="183" y="141"/>
      <point x="170" y="139"/>
      <point x="155" y="134" type="curve"/>
      <point x="155" y="-11"/>
      <point x="136" y="-84"/>
      <point x="79" y="-175" type="curve"/>
      <point x="98" y="-188"/>
      <point x="114" y="-193"/>
    </contour>
  </outline>
</glyph>
<glyph name="period" format="1">
  <advance width="300"/>
  <unicode hex="002E"/>
  <outline>
    <contour>
      <point x="225" y="5" type="curve"/>
      <point x="225" y="90" type="line" smooth="yes"/>
      <point x="225" y="133"/>
      <point x="188" y="150"/>
      <point x="134" y="150" type="curve" smooth="yes"/>
      <point x="112" y="150"/>
      <point x="92" y="146"/>
      <point x="75" y="139" type="curve"/>
      <point x="75" y="53" type="line" smooth="yes"/>
      <point x="75" y="10"/>
      <point x="112" y="-7"/>
      <point x="166" y="-7" type="curve" smooth="yes"/>
      <point x="188" y="-7"/>
      <point x="208" y="-3"/>
    </contour>
  </outline>
</glyph>
<glyph name="zero" format="1">
  <advance width="600"/>
  <unicode hex="0030"/>
  <outline>
    <contour>
      <point x="308" y="720" type="curve" smooth="yes"/>
      <point x="172" y="720"/>
      <point x="67" y="591"/>
      <point x="67" y="360" type="curve" smooth="yes"/>
      <point x="67" y="313" type="line" smooth="yes"/>
      <point x="67" y="102"/>
      <point x="158" y="-20"/>
      <point x="292" y="-20" type="curve"/>
      <point x="323" y="-20"/>
      <point x="336" y="4"/>
      <point x="336" y="30" type="curve"/>
      <point x="184" y="44"/>
      <point x="148" y="178"/>
      <point x="148" y="307" type="curve" smooth="yes"/>
      <point x="148" y="351" type="line" smooth="yes"/>
      <point x="148" y="515"/>
      <point x="205" y="639"/>
      <point x="314" y="639" type="curve" smooth="yes"/>
      <point x="360" y="639"/>
      <point x="384" y="632"/>
      <point x="417" y="614" type="curve"/>
      <point x="432" y="651"/>
      <point x="380" y="720"/>
    </contour>
    <contour>
      <point x="292" y="-20" type="curve" smooth="yes"/>
      <point x="428" y="-20"/>
      <point x="533" y="103"/>
      <point x="533" y="324" type="curve" smooth="yes"/>
      <point x="533" y="371" type="line" smooth="yes"/>
      <point x="533" y="592"/>
      <point x="445" y="720"/>
      <point x="308" y="720" type="curve"/>
      <point x="277" y="720"/>
      <point x="264" y="696"/>
      <point x="264" y="670" type="curve"/>
      <point x="416" y="656"/>
      <point x="452" y="518"/>
      <point x="452" y="377" type="curve" smooth="yes"/>
      <point x="452" y="333" type="line" smooth="yes"/>
      <point x="452" y="178"/>
      <point x="395" y="61"/>
      <point x="286" y="61" type="curve" smooth="yes"/>
      <point x="240" y="61"/>
      <point x="216" y="68"/>
      <point x="183" y="86" type="curve"/>
      <point x="168" y="49"/>
      <point x="225" y="-20"/>
    </contour>
  </outline>
</glyph>
<glyph name="one" format="1">
  <advance width="600"/>
  <unicode hex="0031"/>
  <outline>
    <contour>
      <point x="376" y="41" type="curve"/>
      <point x="376" y="255"/>
      <point x="376" y="468"/>
      <point x="376" y="680" type="curve" smooth="yes"/>
      <point x="376" y="703"/>
      <point x="345" y="710"/>
      <point x="309" y="710" type="curve" smooth="yes"/>
      <point x="294" y="710" type="line"/>
      <point x="294" y="522"/>
      <point x="294" y="329"/>
      <point x="294" y="140" type="curve" smooth="yes"/>
      <point x="294" y="69"/>
      <point x="326" y="41"/>
    </contour>
    <contour>
      <point x="79" y="81" type="line"/>
      <point x="78" y="77"/>
      <point x="77" y="71"/>
      <point x="77" y="64" type="curve" smooth="yes"/>
      <point x="77" y="38"/>
      <point x="81" y="22"/>
      <point x="92" y="11" type="curve" smooth="yes"/>
      <point x="100" y="3"/>
      <point x="109" y="0"/>
      <point x="131" y="0" type="curve" smooth="yes"/>
      <point x="555" y="0" type="line"/>
      <point x="556" y="6"/>
      <point x="557" y="13"/>
      <point x="557" y="19" type="curve" smooth="yes"/>
      <point x="557" y="54"/>
      <point x="481" y="81"/>
      <point x="361" y="81" type="curve" smooth="yes"/>
    </contour>
    <contour>
      <point x="120" y="454" type="curve" smooth="yes"/>
      <point x="146" y="454"/>
      <point x="200" y="491"/>
      <point x="238" y="530" type="curve" smooth="yes"/>
      <point x="281" y="573"/>
      <point x="316" y="636"/>
      <point x="316" y="673" type="curve" smooth="yes"/>
      <point x="316" y="697"/>
      <point x="307" y="710"/>
      <point x="297" y="710" type="curve"/>
      <point x="281" y="710" type="line"/>
      <point x="260" y="675"/>
      <point x="238" y="645"/>
      <point x="207" y="613" type="curve"/>
      <point x="170" y="576"/>
      <point x="132" y="549"/>
      <point x="91" y="530" type="curve"/>
      <point x="91" y="518" type="line" smooth="yes"/>
      <point x="91" y="474"/>
      <point x="106" y="454"/>
    </contour>
  </outline>
</glyph>
<glyph name="two" format="1">
  <advance width="600"/>
  <unicode hex="0032"/>
  <outline>
    <contour>
      <point x="380" y="650" type="curve"/>
      <point x="416" y="611"/>
      <point x="435" y="583"/>
      <point x="435" y="530" type="curve" smooth="yes"/>
      <point x="435" y="450"/>
      <point x="391" y="386"/>
      <point x="279" y="316" type="curve" smooth="yes"/>
      <point x="153" y="237"/>
      <point x="67" y="161"/>
      <point x="67" y="65" type="curve" smooth="yes"/>
      <point x="67" y="46"/>
      <point x="84" y="39"/>
      <point x="138" y="39" type="curve"/>
      <point x="138" y="120"/>
      <point x="174" y="164"/>
      <point x="322" y="255" type="curve" smooth="yes"/>
      <point x="443" y="329"/>
      <point x="518" y="416"/>
      <point x="518" y="524" type="curve" smooth="yes"/>
      <point x="518" y="529" type="line" smooth="yes"/>
      <point x="518" y="607"/>
      <point x="458" y="677"/>
    </contour>
    <contour>
      <point x="531" y="0" type="line"/>
      <point x="533" y="8"/>
      <point x="533" y="18"/>
      <point x="533" y="27" type="curve" smooth="yes"/>
      <point x="533" y="62"/>
      <point x="525" y="81"/>
      <point x="495" y="81" type="curve" smooth="yes"/>
      <point x="149" y="81" type="line" smooth="yes"/>
      <point x="117" y="81"/>
      <point x="91" y="77"/>
      <point x="67" y="65" type="curve"/>
      <point x="67" y="63"/>
      <point x="67" y="62"/>
      <point x="67" y="61" type="curve" smooth="yes"/>
      <point x="67" y="36"/>
      <point x="85" y="0"/>
      <point x="106" y="0" type="curve" smooth="yes"/>
    </contour>
    <contour>
      <point x="305" y="720" type="curve" smooth="yes"/>
      <point x="230" y="720"/>
      <point x="172" y="697"/>
      <point x="136" y="662" type="curve" smooth="yes"/>
      <point x="107" y="633"/>
      <point x="89" y="594"/>
      <point x="89" y="555" type="curve" smooth="yes"/>
      <point x="89" y="534"/>
      <point x="100" y="516"/>
      <point x="113" y="505" type="curve"/>
      <point x="117" y="505" type="line"/>
      <point x="149" y="595"/>
      <point x="214" y="639"/>
      <point x="307" y="639" type="curve" smooth="yes"/>
      <point x="406" y="639"/>
      <point x="463" y="590"/>
      <point x="463" y="526" type="curve" smooth="yes"/>
      <point x="463" y="507"/>
      <point x="461" y="489"/>
      <point x="455" y="469" type="curve"/>
      <point x="489" y="469"/>
      <point x="518" y="499"/>
      <point x="518" y="529" type="curve" smooth="yes"/>
      <point x="518" y="644"/>
      <point x="430" y="720"/>
    </contour>
  </outline>
</glyph>
<glyph name="three" format="1">
  <advance width="600"/>
  <unicode hex="0033"/>
  <outline>
    <contour>
      <point x="293" y="638" type="curve" smooth="yes"/>
      <point x="410" y="638"/>
      <point x="465" y="577"/>
      <point x="465" y="493" type="curve" smooth="yes"/>
      <point x="465" y="484"/>
      <point x="464" y="473"/>
      <point x="462" y="462" type="curve"/>
      <point x="487" y="462"/>
      <point x="522" y="503"/>
      <point x="522" y="536" type="curve" smooth="yes"/>
      <point x="522" y="544" type="line" smooth="yes"/>
      <point x="522" y="647"/>
      <point x="436" y="719"/>
      <point x="300" y="719" type="curve" smooth="yes"/>
      <point x="213" y="719"/>
      <point x="144" y="690"/>
      <point x="112" y="658" type="curve" smooth="yes"/>
      <point x="89" y="635"/>
      <point x="82" y="619"/>
      <point x="82" y="588" type="curve" smooth="yes"/>
      <point x="82" y="570"/>
      <point x="84" y="557"/>
      <point x="89" y="542" type="curve"/>
      <point x="93" y="542" type="line"/>
      <point x="142" y="607"/>
      <point x="200" y="638"/>
    </contour>
    <contour>
      <point x="204" y="307" type="curve" smooth="yes"/>
      <point x="405" y="307"/>
      <point x="522" y="413"/>
      <point x="522" y="536" type="curve" smooth="yes"/>
      <point x="522" y="565"/>
      <point x="478" y="596"/>
      <point x="451" y="599" type="curve"/>
      <point x="453" y="587"/>
      <point x="453" y="576"/>
      <point x="453" y="560" type="curve" smooth="yes"/>
      <point x="453" y="428"/>
      <point x="340" y="360"/>
      <point x="175" y="360" type="curve"/>
      <point x="172" y="350"/>
      <point x="171" y="343"/>
      <point x="171" y="331" type="curve" smooth="yes"/>
      <point x="171" y="316"/>
      <point x="189" y="307"/>
    </contour>
    <contour>
      <point x="200" y="284" type="curve" smooth="yes"/>
      <point x="351" y="281"/>
      <point x="464" y="234"/>
      <point x="464" y="142" type="curve" smooth="yes"/>
      <point x="464" y="129"/>
      <point x="464" y="122"/>
      <point x="462" y="112" type="curve"/>
      <point x="494" y="115"/>
      <point x="532" y="140"/>
      <point x="532" y="164" type="curve" smooth="yes"/>
      <point x="532" y="279"/>
      <point x="403" y="342"/>
      <point x="174" y="342" type="curve"/>
      <point x="172" y="338"/>
      <point x="171" y="335"/>
      <point x="171" y="331" type="curve" smooth="yes"/>
      <point x="171" y="303"/>
      <point x="178" y="285"/>
    </contour>
    <contour>
      <point x="293" y="61" type="curve" smooth="yes"/>
      <point x="194" y="61"/>
      <point x="131" y="92"/>
      <point x="78" y="158" type="curve"/>
      <point x="74" y="158" type="line"/>
      <point x="70" y="144"/>
      <point x="69" y="130"/>
      <point x="69" y="112" type="curve" smooth="yes"/>
      <point x="69" y="83"/>
      <point x="74" y="63"/>
      <point x="94" y="44" type="curve" smooth="yes"/>
      <point x="133" y="5"/>
      <point x="207" y="-20"/>
      <point x="300" y="-20" type="curve" smooth="yes"/>
      <point x="442" y="-20"/>
      <point x="532" y="52"/>
      <point x="532" y="155" type="curve" smooth="yes"/>
      <point x="532" y="164" type="line" smooth="yes"/>
      <point x="532" y="195"/>
      <point x="498" y="227"/>
      <point x="474" y="229" type="curve"/>
      <point x="475" y="222"/>
      <point x="475" y="213"/>
      <point x="475" y="203" type="curve" smooth="yes"/>
      <point x="475" y="118"/>
      <point x="418" y="61"/>
    </contour>
  </outline>
</glyph>
<glyph name="four" format="1">
  <advance width="600"/>
  <unicode hex="0034"/>
  <outline>
    <contour>
      <point x="113" y="200" type="curve"/>
      <point x="169" y="366"/>
      <point x="344" y="593"/>
      <point x="491" y="687" type="curve"/>
      <point x="491" y="691" type="line"/>
      <point x="477" y="705"/>
      <point x="454" y="714"/>
      <point x="417" y="714" type="curve" smooth="yes"/>
      <point x="390" y="714"/>
      <point x="372" y="707"/>
      <point x="318" y="654" type="curve" smooth="yes"/>
      <point x="177" y="513"/>
      <point x="48" y="309"/>
      <point x="48" y="225" type="curve" smooth="yes"/>
      <point x="48" y="207"/>
      <point x="86" y="200"/>
    </contour>
    <contour>
      <point x="565" y="150" type="line"/>
      <point x="566" y="157"/>
      <point x="567" y="165"/>
      <point x="567" y="172" type="curve" smooth="yes"/>
      <point x="567" y="201"/>
      <point x="560" y="231"/>
      <point x="537" y="231" type="curve" smooth="yes"/>
      <point x="308" y="231" type="line"/>
      <point x="228" y="231"/>
      <point x="132" y="229"/>
      <point x="48" y="225" type="curve"/>
      <point x="48" y="217" type="line" smooth="yes"/>
      <point x="48" y="191"/>
      <point x="56" y="170"/>
      <point x="68" y="158" type="curve" smooth="yes"/>
      <point x="73" y="152"/>
      <point x="79" y="150"/>
      <point x="90" y="150" type="curve" smooth="yes"/>
    </contour>
    <contour>
      <point x="491" y="-4" type="curve"/>
      <point x="482" y="30"/>
      <point x="479" y="54"/>
      <point x="479" y="99" type="curve" smooth="yes"/>
      <point x="479" y="354" type="line" smooth="yes"/>
      <point x="479" y="368"/>
      <point x="457" y="388"/>
      <point x="422" y="388" type="curve" smooth="yes"/>
      <point x="414" y="388" type="line"/>
      <point x="404" y="326"/>
      <point x="395" y="252"/>
      <point x="395" y="190" type="curve"/>
      <point x="395" y="56" type="line" smooth="yes"/>
      <point x="395" y="3"/>
      <point x="427" y="-9"/>
      <point x="461" y="-9" type="curve" smooth="yes"/>
      <point x="473" y="-9"/>
      <point x="483" y="-7"/>
    </contour>
  </outline>
</glyph>
<glyph name="six" format="1">
  <advance width="600"/>
  <unicode hex="0036"/>
  <outline>
    <contour>
      <point x="145" y="131" type="curve"/>
      <point x="131" y="58"/>
      <point x="216" y="-20"/>
      <point x="310" y="-20" type="curve"/>
      <point x="444" y="-20"/>
      <point x="535" y="64"/>
      <point x="535" y="186" type="curve" smooth="yes"/>
      <point x="535" y="191" type="line" smooth="yes"/>
      <point x="535" y="287"/>
      <point x="460" y="351"/>
      <point x="407" y="324" type="curve"/>
      <point x="441" y="285"/>
      <point x="454" y="247"/>
      <point x="454" y="195" type="curve" smooth="yes"/>
      <point x="454" y="190" type="line" smooth="yes"/>
      <point x="454" y="110"/>
      <point x="398" y="59"/>
      <point x="306" y="59" type="curve" smooth="yes"/>
      <point x="240" y="59"/>
      <point x="197" y="78"/>
    </contour>
    <contour>
      <point x="169" y="558" type="curve"/>
      <point x="219" y="614"/>
      <point x="274" y="639"/>
      <point x="350" y="639" type="curve" smooth="yes"/>
      <point x="415" y="639"/>
      <point x="459" y="624"/>
      <point x="499" y="592" type="curve"/>
      <point x="503" y="592" type="line"/>
      <point x="506" y="602"/>
      <point x="507" y="611"/>
      <point x="507" y="625" type="curve" smooth="yes"/>
      <point x="507" y="655"/>
      <point x="499" y="672"/>
      <point x="489" y="682" type="curve" smooth="yes"/>
      <point x="467" y="703"/>
      <point x="421" y="720"/>
      <point x="348" y="720" type="curve" smooth="yes"/>
      <point x="244" y="720"/>
      <point x="131" y="642"/>
    </contour>
    <contour>
      <point x="67" y="326" type="curve" smooth="yes"/>
      <point x="67" y="318" type="line" smooth="yes"/>
      <point x="67" y="88"/>
      <point x="152" y="-20"/>
      <point x="310" y="-20" type="curve" smooth="yes"/>
      <point x="321" y="-20"/>
      <point x="340" y="-8"/>
      <point x="340" y="21" type="curve"/>
      <point x="204" y="30"/>
      <point x="150" y="121"/>
      <point x="150" y="316" type="curve" smooth="yes"/>
      <point x="150" y="324" type="line" smooth="yes"/>
      <point x="150" y="551"/>
      <point x="217" y="658"/>
      <point x="375" y="682" type="curve"/>
      <point x="375" y="703"/>
      <point x="364" y="720"/>
      <point x="348" y="720" type="curve" smooth="yes"/>
      <point x="175" y="720"/>
      <point x="67" y="595"/>
    </contour>
    <contour>
      <point x="323" y="388" type="curve" smooth="yes"/>
      <point x="256" y="388"/>
      <point x="176" y="361"/>
      <point x="141" y="326" type="curve" smooth="yes"/>
      <point x="129" y="314"/>
      <point x="125" y="294"/>
      <point x="124" y="254" type="curve"/>
      <point x="179" y="294"/>
      <point x="244" y="314"/>
      <point x="314" y="314" type="curve" smooth="yes"/>
      <point x="424" y="314"/>
      <point x="489" y="255"/>
      <point x="489" y="161" type="curve" smooth="yes"/>
      <point x="489" y="149"/>
      <point x="488" y="137"/>
      <point x="484" y="128" type="curve"/>
      <point x="510" y="128"/>
      <point x="535" y="165"/>
      <point x="535" y="191" type="curve" smooth="yes"/>
      <point x="535" y="316"/>
      <point x="452" y="388"/>
    </contour>
  </outline>
</glyph>
<glyph name="seven" format="1">
  <advance width="600"/>
  <unicode hex="0037"/>
  <outline>
    <contour>
      <point x="451" y="619" type="line" smooth="yes"/>
      <point x="482" y="619"/>
      <point x="507" y="620"/>
      <point x="530" y="623" type="curve"/>
      <point x="530" y="632" type="line"/>
      <point x="530" y="662"/>
      <point x="520" y="700"/>
      <point x="497" y="700" type="curve"/>
      <point x="100" y="700" type="line"/>
      <point x="100" y="685" type="line" smooth="yes"/>
      <point x="100" y="642"/>
      <point x="109" y="619"/>
      <point x="133" y="619" type="curve" smooth="yes"/>
    </contour>
    <contour>
      <point x="316" y="-10" type="line"/>
      <point x="316" y="225"/>
      <point x="530" y="470"/>
      <point x="530" y="623" type="curve" smooth="yes"/>
      <point x="530" y="640"/>
      <point x="495" y="645"/>
      <point x="449" y="644" type="curve"/>
      <point x="449" y="491"/>
      <point x="236" y="230"/>
      <point x="236" y="32" type="curve" smooth="yes"/>
      <point x="236" y="3"/>
      <point x="270" y="-10"/>
      <point x="301" y="-10" type="curve" smooth="yes"/>
    </contour>
    <contour>
      <point x="152" y="471" type="curve"/>
      <point x="152" y="580"/>
      <point x="172" y="663"/>
      <point x="172" y="687" type="curve"/>
      <point x="172" y="710"/>
      <point x="138" y="720"/>
      <point x="105" y="720" type="curve" smooth="yes"/>
      <point x="96" y="720" type="line"/>
      <point x="79" y="649"/>
      <point x="71" y="575"/>
      <point x="71" y="504" type="curve"/>
      <point x="71" y="475"/>
      <point x="94" y="469"/>
      <point x="127" y="469" type="curve" smooth="yes"/>
      <point x="136" y="469"/>
      <point x="145" y="469"/>
    </contour>
  </outline>
</glyph>
<glyph name="eight" format="1">
  <advance width="600"/>
  <unicode hex="0038"/>
  <outline>
    <contour>
      <point x="376" y="329" type="curve" smooth="yes"/>
      <point x="288" y="361" type="line" smooth="yes"/>
      <point x="184" y="398"/>
      <point x="157" y="448"/>
      <point x="157" y="508" type="curve" smooth="yes"/>
      <point x="157" y="528"/>
      <point x="158" y="551"/>
      <point x="162" y="582" type="curve"/>
      <point x="122" y="575"/>
      <point x="81" y="555"/>
      <point x="81" y="509" type="curve" smooth="yes"/>
      <point x="81" y="431"/>
      <point x="126" y="352"/>
      <point x="265" y="300" type="curve" smooth="yes"/>
      <point x="353" y="268" type="line" smooth="yes"/>
      <point x="445" y="234"/>
      <point x="470" y="200"/>
      <point x="470" y="123" type="curve" smooth="yes"/>
      <point x="470" y="115"/>
      <point x="470" y="107"/>
      <point x="470" y="98" type="curve"/>
      <point x="500" y="101"/>
      <point x="539" y="139"/>
      <point x="539" y="164" type="curve"/>
      <point x="539" y="223"/>
      <point x="495" y="285"/>
    </contour>
    <contour>
      <point x="297" y="-20" type="curve" smooth="yes"/>
      <point x="445" y="-20"/>
      <point x="539" y="54"/>
      <point x="539" y="158" type="curve" smooth="yes"/>
      <point x="539" y="164" type="line" smooth="yes"/>
      <point x="539" y="183"/>
      <point x="506" y="200"/>
      <point x="482" y="202" type="curve"/>
      <point x="482" y="198"/>
      <point x="482" y="194"/>
      <point x="482" y="189" type="curve" smooth="yes"/>
      <point x="482" y="108"/>
      <point x="417" y="60"/>
      <point x="297" y="60" type="curve" smooth="yes"/>
      <point x="202" y="60"/>
      <point x="150" y="93"/>
      <point x="114" y="168" type="curve"/>
      <point x="53" y="110"/>
      <point x="132" y="-20"/>
    </contour>
    <contour>
      <point x="321" y="720" type="curve" smooth="yes"/>
      <point x="187" y="720"/>
      <point x="81" y="633"/>
      <point x="81" y="514" type="curve" smooth="yes"/>
      <point x="81" y="509" type="line" smooth="yes"/>
      <point x="81" y="476"/>
      <point x="125" y="449"/>
      <point x="161" y="445" type="curve"/>
      <point x="159" y="465"/>
      <point x="157" y="485"/>
      <point x="157" y="508" type="curve" smooth="yes"/>
      <point x="157" y="601"/>
      <point x="255" y="643"/>
      <point x="321" y="643" type="curve" smooth="yes"/>
      <point x="380" y="643"/>
      <point x="430" y="627"/>
      <point x="470" y="580" type="curve"/>
      <point x="515" y="642"/>
      <point x="412" y="720"/>
    </contour>
    <contour>
      <point x="345" y="316" type="curve" smooth="yes"/>
      <point x="425" y="316"/>
      <point x="539" y="411"/>
      <point x="539" y="519" type="curve" smooth="yes"/>
      <point x="539" y="524" type="line" smooth="yes"/>
      <point x="539" y="638"/>
      <point x="445" y="720"/>
      <point x="321" y="720" type="curve" smooth="yes"/>
      <point x="308" y="720"/>
      <point x="287" y="712"/>
      <point x="285" y="676" type="curve"/>
      <point x="396" y="676"/>
      <point x="460" y="620"/>
      <point x="460" y="524" type="curve" smooth="yes"/>
      <point x="460" y="520" type="line" smooth="yes"/>
      <point x="460" y="440"/>
      <point x="399" y="376"/>
      <point x="286" y="337" type="curve"/>
      <point x="308" y="321"/>
      <point x="322" y="316"/>
    </contour>
    <contour>
      <point x="337" y="26" type="curve"/>
      <point x="215" y="26"/>
      <point x="142" y="82"/>
      <point x="142" y="136" type="curve" smooth="yes"/>
      <point x="142" y="140" type="line" smooth="yes"/>
      <point x="142" y="214"/>
      <point x="199" y="266"/>
      <point x="312" y="302" type="curve"/>
      <point x="295" y="319"/>
      <point x="286" y="328"/>
      <point x="263" y="328" type="curve" smooth="yes"/>
      <point x="170" y="328"/>
      <point x="66" y="250"/>
      <point x="66" y="154" type="curve" smooth="yes"/>
      <point x="66" y="148" type="line" smooth="yes"/>
      <point x="66" y="55"/>
      <point x="157" y="-20"/>
      <point x="297" y="-20" type="curve" smooth="yes"/>
      <point x="315" y="-20"/>
      <point x="337" y="-2"/>
    </contour>
  </outline>
</glyph>
<glyph name="nine" format="1">
  <advance width="600"/>
  <unicode hex="0039"/>
  <outline>
    <contour>
      <point x="455" y="569" type="curve"/>
      <point x="486" y="636"/>
      <point x="385" y="720"/>
      <point x="291" y="720" type="curve"/>
      <point x="157" y="720"/>
      <point x="66" y="620"/>
      <point x="66" y="463" type="curve" smooth="yes"/>
      <point x="66" y="458" type="line" smooth="yes"/>
      <point x="66" y="348"/>
      <point x="142" y="275"/>
      <point x="197" y="302" type="curve"/>
      <point x="157" y="346"/>
      <point x="147" y="392"/>
      <point x="147" y="454" type="curve" smooth="yes"/>
      <point x="147" y="459" type="line" smooth="yes"/>
      <point x="147" y="570"/>
      <point x="205" y="641"/>
      <point x="301" y="641" type="curve" smooth="yes"/>
      <point x="364" y="641"/>
      <point x="405" y="622"/>
    </contour>
    <contour>
      <point x="437" y="142" type="curve"/>
      <point x="386" y="86"/>
      <point x="328" y="61"/>
      <point x="251" y="61" type="curve" smooth="yes"/>
      <point x="185" y="61"/>
      <point x="142" y="76"/>
      <point x="102" y="108" type="curve"/>
      <point x="98" y="108" type="line"/>
      <point x="95" y="98"/>
      <point x="94" y="89"/>
      <point x="94" y="75" type="curve" smooth="yes"/>
      <point x="94" y="45"/>
      <point x="102" y="28"/>
      <point x="112" y="18" type="curve" smooth="yes"/>
      <point x="133" y="-3"/>
      <point x="179" y="-20"/>
      <point x="253" y="-20" type="curve" smooth="yes"/>
      <point x="360" y="-20"/>
      <point x="470" y="68"/>
    </contour>
    <contour>
      <point x="534" y="374" type="curve" smooth="yes"/>
      <point x="534" y="382" type="line" smooth="yes"/>
      <point x="534" y="612"/>
      <point x="448" y="720"/>
      <point x="291" y="720" type="curve" smooth="yes"/>
      <point x="280" y="720"/>
      <point x="261" y="707"/>
      <point x="261" y="679" type="curve"/>
      <point x="397" y="670"/>
      <point x="451" y="579"/>
      <point x="451" y="384" type="curve" smooth="yes"/>
      <point x="451" y="376" type="line" smooth="yes"/>
      <point x="451" y="149"/>
      <point x="384" y="42"/>
      <point x="227" y="18" type="curve"/>
      <point x="227" y="-3"/>
      <point x="238" y="-20"/>
      <point x="253" y="-20" type="curve" smooth="yes"/>
      <point x="428" y="-20"/>
      <point x="534" y="99"/>
    </contour>
    <contour>
      <point x="276" y="230" type="curve" smooth="yes"/>
      <point x="344" y="230"/>
      <point x="424" y="257"/>
      <point x="460" y="292" type="curve" smooth="yes"/>
      <point x="472" y="304"/>
      <point x="476" y="324"/>
      <point x="477" y="364" type="curve"/>
      <point x="422" y="324"/>
      <point x="355" y="303"/>
      <point x="285" y="303" type="curve" smooth="yes"/>
      <point x="176" y="303"/>
      <point x="112" y="370"/>
      <point x="112" y="477" type="curve" smooth="yes"/>
      <point x="112" y="498"/>
      <point x="114" y="513"/>
      <point x="120" y="530" type="curve"/>
      <point x="92" y="530"/>
      <point x="66" y="497"/>
      <point x="66" y="458" type="curve" smooth="yes"/>
      <point x="66" y="313"/>
      <point x="148" y="230"/>
    </contour>
  </outline>
</glyph>
<glyph name="colon" format="1">
  <advance width="300"/>
  <unicode hex="003A"/>
  <outline>
    <contour>
      <point x="225" y="393" type="curve"/>
      <point x="225" y="478" type="line" smooth="yes"/>
      <point x="225" y="521"/>
      <point x="188" y="538"/>
      <point x="134" y="538" type="curve" smooth="yes"/>
      <point x="112" y="538"/>
      <point x="92" y="534"/>
      <point x="75" y="527" type="curve"/>
      <point x="75" y="441" type="line" smooth="yes"/>
      <point x="75" y="398"/>
      <point x="112" y="381"/>
      <point x="166" y="381" type="curve" smooth="yes"/>
      <point x="188" y="381"/>
      <point x="208" y="385"/>
    </contour>
    <contour>
      <point x="225" y="5" type="curve"/>
      <point x="225" y="90" type="line" smooth="yes"/>
      <point x="225" y="133"/>
      <point x="188" y="150"/>
      <point x="134" y="150" type="curve" smooth="yes"/>
      <point x="112" y="150"/>
      <point x="92" y="146"/>
      <point x="75" y="139" type="curve"/>
      <point x="75" y="53" type="line" smooth="yes"/>
      <point x="75" y="10"/>
      <point x="112" y="-7"/>
      <point x="166" y="-7" type="curve" smooth="yes"/>
      <point x="188" y="-7"/>
      <point x="208" y="-3"/>
    </contour>
  </outline>
</glyph>
<glyph name="semicolon" format="1">
  <advance width="350"/>
  <unicode hex="003B"/>
  <outline>
    <contour>
      <point x="249" y="391" type="curve"/>
      <point x="249" y="477" type="line" smooth="yes"/>
      <point x="249" y="520"/>
      <point x="211" y="537"/>
      <point x="158" y="537" type="curve" smooth="yes"/>
      <point x="135" y="537"/>
      <point x="115" y="533"/>
      <point x="98" y="525" type="curve"/>
      <point x="98" y="440" type="line" smooth="yes"/>
      <point x="98" y="397"/>
      <point x="136" y="380"/>
      <point x="189" y="380" type="curve" smooth="yes"/>
      <point x="211" y="380"/>
      <point x="232" y="384"/>
    </contour>
    <contour>
      <point x="107" y="-193" type="curve" smooth="yes"/>
      <point x="122" y="-193"/>
      <point x="128" y="-191"/>
      <point x="136" y="-183" type="curve"/>
      <point x="188" y="-131"/>
      <point x="237" y="-26"/>
      <point x="237" y="93" type="curve"/>
      <point x="237" y="129"/>
      <point x="209" y="141"/>
      <point x="167" y="141" type="curve" smooth="yes"/>
      <point x="149" y="141"/>
      <point x="137" y="139"/>
      <point x="121" y="134" type="curve"/>
      <point x="121" y="-11"/>
      <point x="102" y="-84"/>
      <point x="46" y="-175" type="curve"/>
      <point x="65" y="-188"/>
      <point x="80" y="-193"/>
    </contour>
  </outline>
</glyph>
<glyph name="equal" format="1">
  <advance width="600"/>
  <unicode hex="003D"/>
  <outline>
    <contour>
      <point x="57" y="466" type="line"/>
      <point x="57" y="462"/>
      <point x="57" y="457"/>
      <point x="57" y="453" type="curve" smooth="yes"/>
      <point x="57" y="423"/>
      <point x="61" y="405"/>
      <point x="73" y="394" type="curve" smooth="yes"/>
      <point x="79" y="387"/>
      <point x="88" y="384"/>
      <point x="106" y="384" type="curve"/>
      <point x="545" y="384" type="line"/>
      <point x="546" y="393"/>
      <point x="547" y="403"/>
      <point x="547" y="411" type="curve" smooth="yes"/>
      <point x="547" y="447"/>
      <point x="538" y="466"/>
      <point x="508" y="466" type="curve"/>
    </contour>
    <contour>
      <point x="547" y="134" type="line"/>
      <point x="547" y="138"/>
      <point x="547" y="143"/>
      <point x="547" y="147" type="curve" smooth="yes"/>
      <point x="547" y="177"/>
      <point x="542" y="195"/>
      <point x="531" y="206" type="curve" smooth="yes"/>
      <point x="524" y="213"/>
      <point x="515" y="216"/>
      <point x="498" y="216" type="curve"/>
      <point x="59" y="216" type="line"/>
      <point x="58" y="207"/>
      <point x="57" y="197"/>
      <point x="57" y="189" type="curve" smooth="yes"/>
      <point x="57" y="153"/>
      <point x="66" y="134"/>
      <point x="96" y="134" type="curve"/>
    </contour>
  </outline>
</glyph>
<glyph name="greater" format="1">
  <advance width="550"/>
  <unicode hex="003E"/>
  <outline>
    <contour>
      <point x="75" y="105" type="curve"/>
      <point x="75" y="91" type="line"/>
      <point x="75" y="59"/>
      <point x="90" y="32"/>
      <point x="110" y="32" type="curve" smooth="yes"/>
      <point x="123" y="32"/>
      <point x="155" y="39"/>
      <point x="200" y="56" type="curve" smooth="yes"/>
      <point x="344" y="109"/>
      <point x="450" y="183"/>
      <point x="531" y="274" type="curve"/>
      <point x="531" y="302" type="line"/>
      <point x="531" y="321"/>
      <point x="508" y="330"/>
      <point x="468" y="320" type="curve"/>
      <point x="357" y="210"/>
      <point x="279" y="153"/>
    </contour>
    <contour>
      <point x="80" y="575" type="curve"/>
      <point x="77" y="566"/>
      <point x="76" y="557"/>
      <point x="76" y="545" type="curve" smooth="yes"/>
      <point x="76" y="516"/>
      <point x="84" y="493"/>
      <point x="101" y="487" type="curve" smooth="yes"/>
      <point x="283" y="435"/>
      <point x="355" y="388"/>
      <point x="470" y="280" type="curve" smooth="yes"/>
      <point x="477" y="274"/>
      <point x="480" y="267"/>
      <point x="480" y="262" type="curve" smooth="yes"/>
      <point x="480" y="258"/>
      <point x="480" y="252"/>
      <point x="480" y="243" type="curve"/>
      <point x="515" y="262"/>
      <point x="531" y="281"/>
      <point x="531" y="298" type="curve" smooth="yes"/>
      <point x="531" y="308" type="line" smooth="yes"/>
      <point x="531" y="329"/>
      <point x="523" y="342"/>
      <point x="495" y="365" type="curve" smooth="yes"/>
      <point x="390" y="456"/>
      <point x="293" y="526"/>
    </contour>
  </outline>
</glyph>
<glyph name="A" format="1">
  <advance width="600"/>
  <unicode hex="0041"/>
  <outline>
    <contour>
      <point x="149" y="-7" type="curve"/>
      <point x="155" y="313"/>
      <point x="207" y="502"/>
      <point x="314" y="643" type="curve"/>
      <point x="332" y="665"/>
      <point x="315" y="710"/>
      <point x="283" y="710" type="curve"/>
      <point x="260" y="710" type="line"/>
      <point x="133" y="546"/>
      <point x="64" y="308"/>
      <point x="64" y="27" type="curve"/>
      <point x="64" y="-1"/>
      <point x="92" y="-10"/>
      <point x="123" y="-10" type="curve" smooth="yes"/>
      <point x="136" y="-10"/>
      <point x="141" y="-9"/>
    </contour>
    <contour>
      <point x="536" y="-7" type="curve"/>
      <point x="533" y="257"/>
      <point x="470" y="487"/>
      <point x="399" y="617" type="curve"/>
      <point x="378" y="658"/>
      <point x="360" y="680"/>
      <point x="345" y="695" type="curve" smooth="yes"/>
      <point x="336" y="704"/>
      <point x="313" y="710"/>
      <point x="283" y="710" type="curve"/>
      <point x="265" y="710"/>
      <point x="247" y="680"/>
      <point x="247" y="659" type="curve"/>
      <point x="254" y="659"/>
      <point x="260" y="659"/>
      <point x="264" y="659" type="curve" smooth="yes"/>
      <point x="276" y="659"/>
      <point x="279" y="660"/>
      <point x="300" y="629" type="curve"/>
      <point x="393" y="492"/>
      <point x="444" y="273"/>
      <point x="450" y="29" type="curve"/>
      <point x="450" y="18"/>
      <point x="452" y="13"/>
      <point x="458" y="7" type="curve" smooth="yes"/>
      <point x="470" y="-4"/>
      <point x="491" y="-10"/>
      <point x="512" y="-10" type="curve" smooth="yes"/>
      <point x="522" y="-10"/>
      <point x="529" y="-9"/>
    </contour>
    <contour>
      <point x="42" y="276" type="line"/>
      <point x="42" y="262" type="line" smooth="yes"/>
      <point x="42" y="237"/>
      <point x="46" y="216"/>
      <point x="59" y="204" type="curve" smooth="yes"/>
      <point x="63" y="200"/>
      <point x="66" y="198"/>
      <point x="72" y="198" type="curve"/>
      <point x="457" y="198" type="line"/>
      <point x="457" y="252"/>
      <point x="424" y="276"/>
      <point x="358" y="276" type="curve" smooth="yes"/>
    </contour>
    <contour>
      <point x="300" y="710" type="move" name="top"/>
    </contour>
    <contour>
      <point x="537" y="-7" type="move" name="ogonek"/>
    </contour>
    <contour>
      <point x="299" y="703" type="move" name="ring"/>
    </contour>
    <contour>
      <point x="296" y="-1" type="move" name="bottom"/>
    </contour>
  </outline>
</glyph>
<glyph name="B" format="1">
  <advance width="600"/>
  <unicode hex="0042"/>
  <outline>
    <contour>
      <point x="177" y="20" type="curve"/>
      <point x="177" y="575" type="line" smooth="yes"/>
      <point x="177" y="635"/>
      <point x="150" y="661"/>
      <point x="92" y="661" type="curve"/>
      <point x="92" y="47" type="line"/>
      <point x="92" y="31"/>
      <point x="129" y="20"/>
    </contour>
    <contour>
      <point x="42" y="700" type="curve"/>
      <point x="41" y="693"/>
      <point x="41" y="685"/>
      <point x="41" y="675" type="curve" smooth="yes"/>
      <point x="41" y="650"/>
      <point x="45" y="635"/>
      <point x="55" y="625" type="curve" smooth="yes"/>
      <point x="60" y="620"/>
      <point x="66" y="619"/>
      <point x="72" y="619" type="curve" smooth="yes"/>
      <point x="79" y="619"/>
      <point x="91" y="621"/>
      <point x="110" y="624" type="curve" smooth="yes"/>
      <point x="160" y="632"/>
      <point x="230" y="639"/>
      <point x="287" y="639" type="curve" smooth="yes"/>
      <point x="374" y="639"/>
      <point x="417" y="625"/>
      <point x="467" y="580" type="curve"/>
      <point x="525" y="638"/>
      <point x="421" y="720"/>
      <point x="305" y="720" type="curve" smooth="yes"/>
      <point x="222" y="720"/>
      <point x="141" y="716"/>
    </contour>
    <contour>
      <point x="530" y="507" type="curve" smooth="yes"/>
      <point x="530" y="532" type="line" smooth="yes"/>
      <point x="530" y="631"/>
      <point x="455" y="720"/>
      <point x="305" y="720" type="curve" smooth="yes"/>
      <point x="294" y="720"/>
      <point x="283" y="707"/>
      <point x="283" y="681" type="curve"/>
      <point x="387" y="681"/>
      <point x="448" y="610"/>
      <point x="448" y="520" type="curve" smooth="yes"/>
      <point x="448" y="501" type="line" smooth="yes"/>
      <point x="448" y="405"/>
      <point x="363" y="352"/>
      <point x="221" y="352" type="curve" smooth="yes"/>
      <point x="189" y="352"/>
      <point x="175" y="356"/>
      <point x="155" y="366" type="curve"/>
      <point x="149" y="361"/>
      <point x="146" y="352"/>
      <point x="146" y="342" type="curve" smooth="yes"/>
      <point x="146" y="312"/>
      <point x="184" y="282"/>
      <point x="217" y="282" type="curve" smooth="yes"/>
      <point x="229" y="282" type="line" smooth="yes"/>
      <point x="392" y="282"/>
      <point x="530" y="362"/>
    </contour>
    <contour>
      <point x="526" y="189" type="curve" smooth="yes"/>
      <point x="526" y="215" type="line" smooth="yes"/>
      <point x="526" y="287"/>
      <point x="456" y="352"/>
      <point x="395" y="352" type="curve" smooth="yes"/>
      <point x="390" y="352" type="line" smooth="yes"/>
      <point x="362" y="352"/>
      <point x="338" y="336"/>
      <point x="338" y="323" type="curve"/>
      <point x="338" y="320" type="line"/>
      <point x="344" y="320" type="line"/>
      <point x="397" y="320"/>
      <point x="445" y="269"/>
      <point x="445" y="214" type="curve" smooth="yes"/>
      <point x="445" y="196" type="line" smooth="yes"/>
      <point x="445" y="112"/>
      <point x="362" y="70"/>
      <point x="273" y="70" type="curve" smooth="yes"/>
      <point x="178" y="70"/>
      <point x="146" y="78"/>
      <point x="108" y="97" type="curve"/>
      <point x="97" y="78"/>
      <point x="92" y="59"/>
      <point x="92" y="47" type="curve" smooth="yes"/>
      <point x="92" y="18"/>
      <point x="151" y="-10"/>
      <point x="268" y="-10" type="curve" smooth="yes"/>
      <point x="278" y="-10" type="line" smooth="yes"/>
      <point x="411" y="-10"/>
      <point x="526" y="63"/>
    </contour>
  </outline>
</glyph>
<glyph name="C" format="1">
  <advance width="600"/>
  <unicode hex="0043"/>
  <outline>
    <contour>
      <point x="375" y="643" type="curve" smooth="yes"/>
      <point x="436" y="643"/>
      <point x="480" y="613"/>
      <point x="488" y="527" type="curve"/>
      <point x="513" y="527"/>
      <point x="521" y="534"/>
      <point x="521" y="546" type="curve" smooth="yes"/>
      <point x="521" y="607"/>
      <point x="507" y="651"/>
      <point x="478" y="680" type="curve" smooth="yes"/>
      <point x="453" y="705"/>
      <point x="417" y="720"/>
      <point x="368" y="720" type="curve" smooth="yes"/>
      <point x="197" y="720"/>
      <point x="76" y="537"/>
      <point x="76" y="285" type="curve" smooth="yes"/>
      <point x="76" y="258" type="line" smooth="yes"/>
      <point x="76" y="209"/>
      <point x="123" y="147"/>
      <point x="166" y="149" type="curve"/>
      <point x="160" y="180"/>
      <point x="157" y="229"/>
      <point x="157" y="263" type="curve" smooth="yes"/>
      <point x="157" y="276" type="line" smooth="yes"/>
      <point x="157" y="488"/>
      <point x="255" y="643"/>
    </contour>
    <contour>
      <point x="329" y="-20" type="curve" smooth="yes"/>
      <point x="408" y="-20"/>
      <point x="470" y="2"/>
      <point x="508" y="40" type="curve" smooth="yes"/>
      <point x="528" y="61"/>
      <point x="536" y="84"/>
      <point x="536" y="120" type="curve" smooth="yes"/>
      <point x="536" y="132"/>
      <point x="534" y="147"/>
      <point x="531" y="160" type="curve"/>
      <point x="527" y="160" type="line"/>
      <point x="481" y="94"/>
      <point x="421" y="61"/>
      <point x="328" y="61" type="curve" smooth="yes"/>
      <point x="194" y="61"/>
      <point x="151" y="173"/>
      <point x="151" y="310" type="curve"/>
      <point x="100" y="311"/>
      <point x="76" y="296"/>
      <point x="76" y="258" type="curve" smooth="yes"/>
      <point x="76" y="102"/>
      <point x="167" y="-20"/>
    </contour>
    <contour>
      <point x="521" y="421" type="curve"/>
      <point x="521" y="546" type="line" smooth="yes"/>
      <point x="521" y="637"/>
      <point x="466" y="685"/>
      <point x="421" y="670" type="curve"/>
      <point x="435" y="620"/>
      <point x="437" y="588"/>
      <point x="437" y="543" type="curve" smooth="yes"/>
      <point x="437" y="454" type="line"/>
      <point x="437" y="443"/>
      <point x="440" y="436"/>
      <point x="447" y="429" type="curve" smooth="yes"/>
      <point x="455" y="421"/>
      <point x="470" y="417"/>
      <point x="493" y="417" type="curve"/>
      <point x="505" y="417"/>
      <point x="515" y="418"/>
    </contour>
    <contour>
      <point x="339" y="711" type="move" name="top"/>
    </contour>
    <contour>
      <point x="329" y="-8" type="move" name="bottom"/>
    </contour>
  </outline>
</glyph>
<glyph name="D" format="1">
  <advance width="650"/>
  <unicode hex="0044"/>
  <outline>
    <contour>
      <point x="177" y="26" type="curve"/>
      <point x="177" y="575" type="line" smooth="yes"/>
      <point x="177" y="636"/>
      <point x="150" y="661"/>
      <point x="92" y="661" type="curve"/>
      <point x="92" y="57" type="line" smooth="yes"/>
      <point x="92" y="40"/>
      <point x="127" y="26"/>
    </contour>
    <contour>
      <point x="43" y="700" type="curve"/>
      <point x="41" y="693"/>
      <point x="41" y="685"/>
      <point x="41" y="675" type="curve"/>
      <point x="41" y="650"/>
      <point x="45" y="635"/>
      <point x="55" y="625" type="curve" smooth="yes"/>
      <point x="60" y="620"/>
      <point x="66" y="619"/>
      <point x="72" y="619" type="curve" smooth="yes"/>
      <point x="79" y="619"/>
      <point x="91" y="621"/>
      <point x="110" y="624" type="curve" smooth="yes"/>
      <point x="161" y="632"/>
      <point x="230" y="639"/>
      <point x="287" y="639" type="curve"/>
      <point x="391" y="639"/>
      <point x="440" y="619"/>
      <point x="503" y="558" type="curve"/>
      <point x="554" y="619"/>
      <point x="440" y="720"/>
      <point x="293" y="720" type="curve" smooth="yes"/>
      <point x="213" y="720"/>
      <point x="136" y="715"/>
    </contour>
    <contour>
      <point x="583" y="384" type="curve" smooth="yes"/>
      <point x="583" y="408" type="line" smooth="yes"/>
      <point x="583" y="624"/>
      <point x="494" y="720"/>
      <point x="293" y="720" type="curve" smooth="yes"/>
      <point x="271" y="720"/>
      <point x="251" y="708"/>
      <point x="251" y="680" type="curve"/>
      <point x="468" y="674"/>
      <point x="499" y="566"/>
      <point x="499" y="400" type="curve" smooth="yes"/>
      <point x="499" y="388" type="line" smooth="yes"/>
      <point x="499" y="201"/>
      <point x="400" y="73"/>
      <point x="246" y="73" type="curve" smooth="yes"/>
      <point x="190" y="73"/>
      <point x="153" y="79"/>
      <point x="110" y="101" type="curve"/>
      <point x="97" y="91"/>
      <point x="92" y="78"/>
      <point x="92" y="57" type="curve" smooth="yes"/>
      <point x="92" y="23"/>
      <point x="158" y="-10"/>
      <point x="245" y="-10" type="curve" smooth="yes"/>
      <point x="249" y="-10" type="line" smooth="yes"/>
      <point x="445" y="-10"/>
      <point x="583" y="152"/>
    </contour>
    <contour>
      <point x="311" y="711" type="move" name="top"/>
    </contour>
  </outline>
</glyph>
<glyph name="E" format="1">
  <advance width="550"/>
  <unicode hex="0045"/>
  <outline>
    <contour>
      <point x="42" y="700" type="line"/>
      <point x="42" y="695"/>
      <point x="42" y="690"/>
      <point x="42" y="685" type="curve" smooth="yes"/>
      <point x="42" y="659"/>
      <point x="46" y="635"/>
      <point x="57" y="625" type="curve" smooth="yes"/>
      <point x="61" y="621"/>
      <point x="65" y="619"/>
      <point x="70" y="619" type="curve" smooth="yes"/>
      <point x="499" y="619" type="line"/>
      <point x="502" y="627"/>
      <point x="503" y="637"/>
      <point x="503" y="647" type="curve" smooth="yes"/>
      <point x="503" y="660"/>
      <point x="500" y="681"/>
      <point x="489" y="693" type="curve" smooth="yes"/>
      <point x="484" y="698"/>
      <point x="479" y="700"/>
      <point x="470" y="700" type="curve" smooth="yes"/>
    </contour>
    <contour>
      <point x="177" y="38" type="curve"/>
      <point x="177" y="563" type="line" smooth="yes"/>
      <point x="177" y="622"/>
      <point x="155" y="647"/>
      <point x="92" y="647" type="curve"/>
      <point x="92" y="71" type="line"/>
      <point x="92" y="45"/>
      <point x="128" y="38"/>
    </contour>
    <contour>
      <point x="92" y="81" type="line"/>
      <point x="92" y="69" type="line" smooth="yes"/>
      <point x="92" y="37"/>
      <point x="121" y="0"/>
      <point x="147" y="0" type="curve" smooth="yes"/>
      <point x="502" y="0" type="line"/>
      <point x="503" y="7"/>
      <point x="503" y="16"/>
      <point x="503" y="25" type="curve" smooth="yes"/>
      <point x="503" y="64"/>
      <point x="492" y="81"/>
      <point x="468" y="81" type="curve" smooth="yes"/>
    </contour>
    <contour>
      <point x="128" y="366" type="line"/>
      <point x="128" y="313"/>
      <point x="135" y="291"/>
      <point x="161" y="291" type="curve" smooth="yes"/>
      <point x="433" y="291" type="line"/>
      <point x="433" y="295"/>
      <point x="433" y="301"/>
      <point x="433" y="305" type="curve" smooth="yes"/>
      <point x="433" y="324"/>
      <point x="426" y="344"/>
      <point x="412" y="358" type="curve" smooth="yes"/>
      <point x="406" y="364"/>
      <point x="402" y="366"/>
      <point x="393" y="366" type="curve" smooth="yes"/>
    </contour>
    <contour>
      <point x="273" y="711" type="move" name="top"/>
    </contour>
    <contour>
      <point x="503" y="0" type="move" name="ogonek"/>
    </contour>
    <contour>
      <point x="273" y="-1" type="move" name="bottom"/>
    </contour>
  </outline>
</glyph>
<glyph name="F" format="1">
  <advance width="550"/>
  <unicode hex="0046"/>
  <outline>
    <contour>
      <point x="193" y="-7" type="curve"/>
      <point x="184" y="25"/>
      <point x="183" y="42"/>
      <point x="183" y="85" type="curve" smooth="yes"/>
      <point x="183" y="563" type="line"/>
      <point x="183" y="625"/>
      <point x="160" y="652"/>
      <point x="98" y="652" type="curve"/>
      <point x="98" y="45" type="line" smooth="yes"/>
      <point x="98" y="10"/>
      <point x="125" y="-7"/>
      <point x="184" y="-7" type="curve" smooth="yes"/>
      <point x="187" y="-7"/>
      <point x="190" y="-7"/>
    </contour>
    <contour>
      <point x="42" y="700" type="line"/>
      <point x="42" y="695"/>
      <point x="42" y="690"/>
      <point x="42" y="685" type="curve" smooth="yes"/>
      <point x="42" y="656"/>
      <point x="47" y="635"/>
      <point x="57" y="625" type="curve" smooth="yes"/>
      <point x="61" y="620"/>
      <point x="65" y="619"/>
      <point x="70" y="619" type="curve"/>
      <point x="502" y="619" type="line"/>
      <point x="505" y="626"/>
      <point x="506" y="636"/>
      <point x="506" y="647" type="curve" smooth="yes"/>
      <point x="506" y="664"/>
      <point x="502" y="683"/>
      <point x="492" y="693" type="curve" smooth="yes"/>
      <point x="487" y="698"/>
      <point x="482" y="700"/>
      <point x="473" y="700" type="curve"/>
    </contour>
    <contour>
      <point x="118" y="316" type="line"/>
      <point x="118" y="263"/>
      <point x="126" y="234"/>
      <point x="151" y="234" type="curve"/>
      <point x="462" y="234" type="line"/>
      <point x="463" y="239"/>
      <point x="463" y="245"/>
      <point x="463" y="250" type="curve"/>
      <point x="463" y="272"/>
      <point x="456" y="293"/>
      <point x="443" y="305" type="curve" smooth="yes"/>
      <point x="435" y="314"/>
      <point x="429" y="316"/>
      <point x="416" y="316" type="curve"/>
    </contour>
  </outline>
</glyph>
<glyph name="G" format="1">
  <advance width="650"/>
  <unicode hex="0047"/>
  <outline>
    <contour>
      <point x="389" y="642" type="curve" smooth="yes"/>
      <point x="479" y="642"/>
      <point x="508" y="604"/>
      <point x="508" y="540" type="curve"/>
      <point x="539" y="540"/>
      <point x="551" y="563"/>
      <point x="551" y="576" type="curve" smooth="yes"/>
      <point x="551" y="612"/>
      <point x="538" y="648"/>
      <point x="512" y="675" type="curve" smooth="yes"/>
      <point x="485" y="702"/>
      <point x="443" y="720"/>
      <point x="388" y="720" type="curve" smooth="yes"/>
      <point x="199" y="720"/>
      <point x="67" y="542"/>
      <point x="67" y="261" type="curve" smooth="yes"/>
      <point x="67" y="241" type="line" smooth="yes"/>
      <point x="67" y="187"/>
      <point x="114" y="121"/>
      <point x="167" y="109" type="curve"/>
      <point x="156" y="144"/>
      <point x="150" y="190"/>
      <point x="150" y="239" type="curve" smooth="yes"/>
      <point x="150" y="258" type="line" smooth="yes"/>
      <point x="150" y="494"/>
      <point x="255" y="642"/>
    </contour>
    <contour>
      <point x="330" y="61" type="curve" smooth="yes"/>
      <point x="205" y="61"/>
      <point x="137" y="149"/>
      <point x="137" y="301" type="curve"/>
      <point x="96" y="301"/>
      <point x="67" y="279"/>
      <point x="67" y="241" type="curve" smooth="yes"/>
      <point x="67" y="92"/>
      <point x="168" y="-20"/>
      <point x="330" y="-20" type="curve" smooth="yes"/>
      <point x="465" y="-20"/>
      <point x="563" y="58"/>
      <point x="563" y="174" type="curve" smooth="yes"/>
      <point x="563" y="181" type="line" smooth="yes"/>
      <point x="563" y="238"/>
      <point x="540" y="281"/>
      <point x="492" y="281" type="curve"/>
      <point x="498" y="260"/>
      <point x="500" y="238"/>
      <point x="500" y="206" type="curve" smooth="yes"/>
      <point x="500" y="116"/>
      <point x="431" y="61"/>
    </contour>
    <contour>
      <point x="327" y="317" type="line"/>
      <point x="326" y="313"/>
      <point x="325" y="307"/>
      <point x="325" y="301" type="curve" smooth="yes"/>
      <point x="325" y="280"/>
      <point x="331" y="266"/>
      <point x="341" y="257" type="curve" smooth="yes"/>
      <point x="351" y="247"/>
      <point x="363" y="242"/>
      <point x="391" y="242" type="curve"/>
      <point x="605" y="242" type="line"/>
      <point x="605" y="252" type="line" smooth="yes"/>
      <point x="605" y="299"/>
      <point x="594" y="317"/>
      <point x="568" y="317" type="curve" smooth="yes"/>
    </contour>
    <contour>
      <point x="551" y="472" type="curve"/>
      <point x="551" y="576" type="line" smooth="yes"/>
      <point x="551" y="629"/>
      <point x="504" y="671"/>
      <point x="456" y="663" type="curve"/>
      <point x="467" y="626"/>
      <point x="470" y="594"/>
      <point x="470" y="571" type="curve" smooth="yes"/>
      <point x="470" y="507" type="line" smooth="yes"/>
      <point x="470" y="479"/>
      <point x="483" y="469"/>
      <point x="523" y="469" type="curve" smooth="yes"/>
      <point x="534" y="469"/>
      <point x="544" y="470"/>
    </contour>
    <contour>
      <point x="335" y="711" type="move" name="top"/>
    </contour>
    <contour>
      <point x="335" y="-1" type="move" name="bottom"/>
    </contour>
  </outline>
</glyph>
<glyph name="H" format="1">
  <advance width="650"/>
  <unicode hex="0048"/>
  <outline>
    <contour>
      <point x="90" y="706" type="curve"/>
      <point x="97" y="670"/>
      <point x="99" y="635"/>
      <point x="99" y="597" type="curve" smooth="yes"/>
      <point x="99" y="27" type="line" smooth="yes"/>
      <point x="99" y="0"/>
      <point x="124" y="-10"/>
      <point x="165" y="-10" type="curve" smooth="yes"/>
      <point x="172" y="-10"/>
      <point x="179" y="-10"/>
      <point x="183" y="-9" type="curve"/>
      <point x="183" y="647" type="line" smooth="yes"/>
      <point x="183" y="670"/>
      <point x="181" y="686"/>
      <point x="169" y="698" type="curve" smooth="yes"/>
      <point x="161" y="706"/>
      <point x="148" y="710"/>
      <point x="123" y="710" type="curve" smooth="yes"/>
      <point x="111" y="710"/>
      <point x="101" y="709"/>
    </contour>
    <contour>
      <point x="570" y="-6" type="curve"/>
      <point x="563" y="30"/>
      <point x="561" y="65"/>
      <point x="561" y="103" type="curve" smooth="yes"/>
      <point x="561" y="673" type="line" smooth="yes"/>
      <point x="561" y="699"/>
      <point x="533" y="710"/>
      <point x="489" y="710" type="curve" smooth="yes"/>
      <point x="484" y="710"/>
      <point x="480" y="710"/>
      <point x="477" y="710" type="curve"/>
      <point x="477" y="53" type="line" smooth="yes"/>
      <point x="477" y="30"/>
      <point x="479" y="14"/>
      <point x="491" y="2" type="curve" smooth="yes"/>
      <point x="499" y="-6"/>
      <point x="512" y="-10"/>
      <point x="537" y="-10" type="curve" smooth="yes"/>
      <point x="549" y="-10"/>
      <point x="559" y="-9"/>
    </contour>
    <contour>
      <point x="42" y="331" type="line"/>
      <point x="42" y="317" type="line" smooth="yes"/>
      <point x="42" y="290"/>
      <point x="48" y="269"/>
      <point x="62" y="256" type="curve" smooth="yes"/>
      <point x="66" y="252"/>
      <point x="70" y="250"/>
      <point x="75" y="250" type="curve"/>
      <point x="508" y="250" type="line"/>
      <point x="508" y="310"/>
      <point x="480" y="331"/>
      <point x="421" y="331" type="curve" smooth="yes"/>
    </contour>
    <contour>
      <point x="306" y="711" type="move" name="top"/>
    </contour>
  </outline>
</glyph>
<glyph name="I" format="1">
  <advance width="500"/>
  <unicode hex="0049"/>
  <outline>
    <contour>
      <point x="292" y="44" type="curve"/>
      <point x="292" y="563" type="line" smooth="yes"/>
      <point x="292" y="622"/>
      <point x="271" y="647"/>
      <point x="208" y="647" type="curve"/>
      <point x="208" y="139" type="line" smooth="yes"/>
      <point x="208" y="75"/>
      <point x="229" y="44"/>
    </contour>
    <contour>
      <point x="65" y="700" type="line"/>
      <point x="62" y="694"/>
      <point x="61" y="687"/>
      <point x="61" y="678" type="curve"/>
      <point x="61" y="658"/>
      <point x="66" y="642"/>
      <point x="77" y="631" type="curve" smooth="yes"/>
      <point x="87" y="622"/>
      <point x="99" y="619"/>
      <point x="126" y="619" type="curve" smooth="yes"/>
      <point x="436" y="619" type="line"/>
      <point x="438" y="628"/>
      <point x="440" y="638"/>
      <point x="440" y="646" type="curve" smooth="yes"/>
      <point x="440" y="679"/>
      <point x="432" y="700"/>
      <point x="404" y="700" type="curve" smooth="yes"/>
    </contour>
    <contour>
      <point x="65" y="81" type="line"/>
      <point x="62" y="74"/>
      <point x="61" y="64"/>
      <point x="61" y="54" type="curve"/>
      <point x="61" y="36"/>
      <point x="64" y="20"/>
      <point x="75" y="10" type="curve" smooth="yes"/>
      <point x="82" y="3"/>
      <point x="89" y="0"/>
      <point x="106" y="0" type="curve" smooth="yes"/>
      <point x="438" y="0" type="line"/>
      <point x="439" y="7"/>
      <point x="440" y="16"/>
      <point x="440" y="25" type="curve" smooth="yes"/>
      <point x="440" y="60"/>
      <point x="432" y="81"/>
      <point x="404" y="81" type="curve" smooth="yes"/>
    </contour>
    <contour>
      <point x="250" y="711" type="move" name="top"/>
    </contour>
    <contour>
      <point x="439" y="0" type="move" name="ogonek"/>
    </contour>
    <contour>
      <point x="250" y="-1" type="move" name="bottom"/>
    </contour>
  </outline>
</glyph>
<glyph name="K" format="1">
  <advance width="600"/>
  <unicode hex="004B"/>
  <outline>
    <contour>
      <point x="79" y="707" type="curve"/>
      <point x="84" y="671"/>
      <point x="85" y="635"/>
      <point x="85" y="597" type="curve" smooth="yes"/>
      <point x="85" y="27" type="line" smooth="yes"/>
      <point x="85" y="-2"/>
      <point x="114" y="-10"/>
      <point x="151" y="-10" type="curve" smooth="yes"/>
      <point x="159" y="-10"/>
      <point x="165" y="-10"/>
      <point x="170" y="-9" type="curve"/>
      <point x="170" y="650" type="line" smooth="yes"/>
      <point x="170" y="671"/>
      <point x="167" y="687"/>
      <point x="155" y="698" type="curve" smooth="yes"/>
      <point x="147" y="706"/>
      <point x="128" y="710"/>
      <point x="103" y="710" type="curve" smooth="yes"/>
      <point x="94" y="710"/>
      <point x="87" y="709"/>
    </contour>
    <contour>
      <point x="475" y="710" type="curve"/>
      <point x="461" y="710" type="line"/>
      <point x="394" y="471"/>
      <point x="264" y="356"/>
      <point x="109" y="290" type="curve"/>
      <point x="109" y="251"/>
      <point x="119" y="230"/>
      <point x="136" y="234" type="curve"/>
      <point x="287" y="290"/>
      <point x="429" y="404"/>
      <point x="501" y="563" type="curve" smooth="yes"/>
      <point x="536" y="641"/>
      <point x="540" y="658"/>
      <point x="540" y="677" type="curve" smooth="yes"/>
      <point x="540" y="696"/>
      <point x="519" y="710"/>
    </contour>
    <contour>
      <point x="294" y="364" type="line"/>
      <point x="250" y="337"/>
      <point x="233" y="315"/>
      <point x="242" y="300" type="curve" smooth="yes"/>
      <point x="399" y="58" type="line" smooth="yes"/>
      <point x="435" y="1"/>
      <point x="469" y="-20"/>
      <point x="510" y="-20" type="curve" smooth="yes"/>
      <point x="513" y="-20" type="line" smooth="yes"/>
      <point x="555" y="-20"/>
      <point x="573" y="2"/>
      <point x="573" y="42" type="curve" smooth="yes"/>
      <point x="573" y="59"/>
      <point x="571" y="71"/>
      <point x="568" y="84" type="curve"/>
      <point x="564" y="84" type="line"/>
      <point x="553" y="73"/>
      <point x="539" y="68"/>
      <point x="522" y="68" type="curve" smooth="yes"/>
      <point x="500" y="68"/>
      <point x="480" y="80"/>
      <point x="458" y="114" type="curve" smooth="yes"/>
    </contour>
    <contour>
      <point x="325" y="-1" type="move" name="bottom"/>
    </contour>
  </outline>
</glyph>
<glyph name="L" format="1">
  <advance width="550"/>
  <unicode hex="004C"/>
  <outline>
    <contour>
      <point x="173" y="37" type="curve"/>
      <point x="173" y="647" type="line" smooth="yes"/>
      <point x="173" y="670"/>
      <point x="171" y="686"/>
      <point x="159" y="698" type="curve" smooth="yes"/>
      <point x="151" y="706"/>
      <point x="138" y="710"/>
      <point x="113" y="710" type="curve" smooth="yes"/>
      <point x="101" y="710"/>
      <point x="91" y="709"/>
      <point x="80" y="706" type="curve"/>
      <point x="87" y="671"/>
      <point x="89" y="635"/>
      <point x="89" y="597" type="curve" smooth="yes"/>
      <point x="89" y="72" type="line" smooth="yes"/>
      <point x="89" y="46"/>
      <point x="124" y="37"/>
    </contour>
    <contour>
      <point x="89" y="81" type="line"/>
      <point x="89" y="69" type="line" smooth="yes"/>
      <point x="89" y="37"/>
      <point x="117" y="0"/>
      <point x="143" y="0" type="curve" smooth="yes"/>
      <point x="498" y="0" type="line"/>
      <point x="499" y="7"/>
      <point x="499" y="16"/>
      <point x="499" y="25" type="curve" smooth="yes"/>
      <point x="499" y="64"/>
      <point x="488" y="81"/>
      <point x="464" y="81" type="curve" smooth="yes"/>
    </contour>
    <contour>
      <point x="389" y="551" type="move" name="caronslovak"/>
    </contour>
    <contour>
      <point x="132" y="711" type="move" name="top"/>
    </contour>
    <contour>
      <point x="439" y="400" type="move" name="dot"/>
    </contour>
    <contour>
      <point x="289" y="-1" type="move" name="bottom"/>
    </contour>
  </outline>
</glyph>
<glyph name="M" format="1">
  <advance width="800"/>
  <unicode hex="004D"/>
  <outline>
    <contour>
      <point x="153" y="-9" type="curve"/>
      <point x="152" y="21"/>
      <point x="151" y="51"/>
      <point x="151" y="84" type="curve" smooth="yes"/>
      <point x="151" y="248"/>
      <point x="166" y="479"/>
      <point x="202" y="669" type="curve" smooth="yes"/>
      <point x="204" y="680"/>
      <point x="200" y="690"/>
      <point x="194" y="696" type="curve" smooth="yes"/>
      <point x="184" y="706"/>
      <point x="167" y="710"/>
      <point x="140" y="710" type="curve" smooth="yes"/>
      <point x="128" y="710"/>
      <point x="118" y="709"/>
      <point x="107" y="706" type="curve"/>
      <point x="112" y="666"/>
      <point x="112" y="645"/>
      <point x="106" y="598" type="curve" smooth="yes"/>
      <point x="81" y="407"/>
      <point x="69" y="232"/>
      <point x="69" y="27" type="curve" smooth="yes"/>
      <point x="69" y="18"/>
      <point x="72" y="11"/>
      <point x="77" y="6" type="curve" smooth="yes"/>
      <point x="88" y="-5"/>
      <point x="107" y="-10"/>
      <point x="135" y="-10" type="curve" smooth="yes"/>
      <point x="142" y="-10"/>
      <point x="149" y="-10"/>
    </contour>
    <contour>
      <point x="736" y="-5" type="curve"/>
      <point x="727" y="32"/>
      <point x="724" y="72"/>
      <point x="724" y="111" type="curve" smooth="yes"/>
      <point x="720" y="317"/>
      <point x="702" y="488"/>
      <point x="676" y="662" type="curve"/>
      <point x="674" y="678"/>
      <point x="671" y="687"/>
      <point x="663" y="693" type="curve" smooth="yes"/>
      <point x="651" y="704"/>
      <point x="618" y="710"/>
      <point x="587" y="710" type="curve" smooth="yes"/>
      <point x="584" y="710" type="line"/>
      <point x="588" y="692"/>
      <point x="590" y="674"/>
      <point x="593" y="655" type="curve"/>
      <point x="624" y="472"/>
      <point x="637" y="291"/>
      <point x="640" y="154" type="curve" smooth="yes"/>
      <point x="641" y="116"/>
      <point x="641" y="80"/>
      <point x="640" y="49" type="curve" smooth="yes"/>
      <point x="640" y="20"/>
      <point x="645" y="11"/>
      <point x="653" y="3" type="curve" smooth="yes"/>
      <point x="662" y="-6"/>
      <point x="675" y="-10"/>
      <point x="701" y="-10" type="curve" smooth="yes"/>
      <point x="714" y="-10"/>
      <point x="724" y="-9"/>
    </contour>
    <contour>
      <point x="243" y="677" type="curve" smooth="yes"/>
      <point x="240" y="696"/>
      <point x="203" y="710"/>
      <point x="150" y="710" type="curve"/>
      <point x="142" y="710" type="line"/>
      <point x="162" y="692"/>
      <point x="176" y="671"/>
      <point x="179" y="650" type="curve" smooth="yes"/>
      <point x="218" y="362"/>
      <point x="328" y="165"/>
      <point x="369" y="125" type="curve"/>
      <point x="379" y="115"/>
      <point x="387" y="112"/>
      <point x="406" y="112" type="curve" smooth="yes"/>
      <point x="421" y="112"/>
      <point x="432" y="133"/>
      <point x="430" y="165" type="curve"/>
      <point x="339" y="314"/>
      <point x="293" y="436"/>
    </contour>
    <contour>
      <point x="552" y="706" type="curve"/>
      <point x="508" y="459"/>
      <point x="455" y="311"/>
      <point x="377" y="185" type="curve"/>
      <point x="364" y="164"/>
      <point x="384" y="112"/>
      <point x="406" y="112" type="curve"/>
      <point x="425" y="112" type="line"/>
      <point x="537" y="284"/>
      <point x="611" y="561"/>
      <point x="611" y="675" type="curve" smooth="yes"/>
      <point x="611" y="696"/>
      <point x="603" y="710"/>
      <point x="584" y="710" type="curve" smooth="yes"/>
      <point x="572" y="710"/>
      <point x="564" y="709"/>
    </contour>
  </outline>
</glyph>
<glyph name="N" format="1">
  <advance width="700"/>
  <unicode hex="004E"/>
  <outline>
    <contour>
      <point x="173" y="-7" type="curve"/>
      <point x="173" y="478" type="line"/>
      <point x="173" y="599"/>
      <point x="164" y="687"/>
      <point x="150" y="701" type="curve" smooth="yes"/>
      <point x="145" y="706"/>
      <point x="139" y="710"/>
      <point x="131" y="710" type="curve"/>
      <point x="117" y="710"/>
      <point x="103" y="709"/>
      <point x="83" y="705" type="curve"/>
      <point x="90" y="670"/>
      <point x="92" y="625"/>
      <point x="92" y="597" type="curve" smooth="yes"/>
      <point x="92" y="27" type="line"/>
      <point x="92" y="-1"/>
      <point x="123" y="-10"/>
      <point x="148" y="-10" type="curve"/>
      <point x="158" y="-10"/>
      <point x="166" y="-9"/>
    </contour>
    <contour>
      <point x="611" y="-10" type="line"/>
      <point x="611" y="676" type="line"/>
      <point x="611" y="701"/>
      <point x="581" y="710"/>
      <point x="544" y="710" type="curve"/>
      <point x="530" y="710" type="line"/>
      <point x="530" y="190" type="line"/>
      <point x="530" y="103"/>
      <point x="545" y="18"/>
      <point x="559" y="4" type="curve" smooth="yes"/>
      <point x="569" y="-6"/>
      <point x="579" y="-10"/>
      <point x="591" y="-10" type="curve"/>
    </contour>
    <contour>
      <point x="131" y="710" type="line"/>
      <point x="143" y="687"/>
      <point x="148" y="660"/>
      <point x="156" y="632" type="curve"/>
      <point x="240" y="350"/>
      <point x="401" y="138"/>
      <point x="530" y="9" type="curve"/>
      <point x="543" y="-4"/>
      <point x="564" y="-10"/>
      <point x="591" y="-10" type="curve" smooth="yes"/>
      <point x="595" y="-10"/>
      <point x="594" y="-10"/>
      <point x="598" y="-10" type="curve"/>
      <point x="601" y="-10"/>
      <point x="604" y="16"/>
      <point x="603" y="44" type="curve"/>
      <point x="406" y="252"/>
      <point x="298" y="428"/>
      <point x="212" y="679" type="curve"/>
      <point x="206" y="697"/>
      <point x="169" y="710"/>
      <point x="134" y="710" type="curve"/>
    </contour>
    <contour>
      <point x="347" y="711" type="move" name="top"/>
    </contour>
    <contour>
      <point x="347" y="-1" type="move" name="bottom"/>
    </contour>
  </outline>
</glyph>
<glyph name="O" format="1">
  <advance width="650"/>
  <unicode hex="004F"/>
  <outline>
    <contour>
      <point x="327" y="720" type="curve" smooth="yes"/>
      <point x="165" y="720"/>
      <point x="67" y="594"/>
      <point x="67" y="358" type="curve" smooth="yes"/>
      <point x="67" y="318" type="line" smooth="yes"/>
      <point x="67" y="92"/>
      <point x="154" y="-20"/>
      <point x="323" y="-20" type="curve" smooth="yes"/>
      <point x="347" y="-20"/>
      <point x="362" y="3"/>
      <point x="362" y="38" type="curve"/>
      <point x="214" y="42"/>
      <point x="148" y="134"/>
      <point x="148" y="318" type="curve" smooth="yes"/>
      <point x="148" y="352" type="line" smooth="yes"/>
      <point x="148" y="549"/>
      <point x="214" y="639"/>
      <point x="331" y="639" type="curve" smooth="yes"/>
      <point x="375" y="639"/>
      <point x="411" y="630"/>
      <point x="454" y="609" type="curve"/>
      <point x="491" y="644"/>
      <point x="408" y="720"/>
    </contour>
    <contour>
      <point x="323" y="-20" type="curve" smooth="yes"/>
      <point x="485" y="-20"/>
      <point x="583" y="106"/>
      <point x="583" y="342" type="curve" smooth="yes"/>
      <point x="583" y="382" type="line" smooth="yes"/>
      <point x="583" y="606"/>
      <point x="493" y="720"/>
      <point x="327" y="720" type="curve" smooth="yes"/>
      <point x="303" y="720"/>
      <point x="288" y="697"/>
      <point x="288" y="662" type="curve"/>
      <point x="436" y="658"/>
      <point x="502" y="566"/>
      <point x="502" y="382" type="curve" smooth="yes"/>
      <point x="502" y="348" type="line" smooth="yes"/>
      <point x="502" y="151"/>
      <point x="436" y="61"/>
      <point x="319" y="61" type="curve" smooth="yes"/>
      <point x="276" y="61"/>
      <point x="241" y="71"/>
      <point x="199" y="91" type="curve"/>
      <point x="159" y="52"/>
      <point x="244" y="-20"/>
    </contour>
    <contour>
      <point x="325" y="711" type="move" name="top"/>
    </contour>
    <contour>
      <point x="424" y="9" type="move" name="ogonek"/>
    </contour>
    <contour>
      <point x="325" y="-1" type="move" name="bottom"/>
    </contour>
  </outline>
</glyph>
<glyph name="P" format="1">
  <advance width="600"/>
  <unicode hex="0050"/>
  <outline>
    <contour>
      <point x="185" y="-6" type="curve"/>
      <point x="179" y="30"/>
      <point x="177" y="65"/>
      <point x="177" y="103" type="curve" smooth="yes"/>
      <point x="177" y="575" type="line" smooth="yes"/>
      <point x="177" y="636"/>
      <point x="150" y="661"/>
      <point x="92" y="661" type="curve"/>
      <point x="92" y="53" type="line" smooth="yes"/>
      <point x="92" y="30"/>
      <point x="95" y="14"/>
      <point x="106" y="2" type="curve" smooth="yes"/>
      <point x="115" y="-6"/>
      <point x="128" y="-10"/>
      <point x="153" y="-10" type="curve" smooth="yes"/>
      <point x="165" y="-10"/>
      <point x="174" y="-9"/>
    </contour>
    <contour>
      <point x="42" y="700" type="curve"/>
      <point x="41" y="693"/>
      <point x="41" y="685"/>
      <point x="41" y="675" type="curve"/>
      <point x="41" y="650"/>
      <point x="45" y="635"/>
      <point x="55" y="625" type="curve" smooth="yes"/>
      <point x="60" y="620"/>
      <point x="66" y="619"/>
      <point x="72" y="619" type="curve" smooth="yes"/>
      <point x="79" y="619"/>
      <point x="91" y="621"/>
      <point x="110" y="624" type="curve" smooth="yes"/>
      <point x="158" y="632"/>
      <point x="224" y="639"/>
      <point x="279" y="639" type="curve" smooth="yes"/>
      <point x="369" y="639"/>
      <point x="409" y="620"/>
      <point x="463" y="566" type="curve"/>
      <point x="526" y="630"/>
      <point x="410" y="720"/>
      <point x="292" y="720" type="curve" smooth="yes"/>
      <point x="213" y="720"/>
      <point x="136" y="715"/>
    </contour>
    <contour>
      <point x="533" y="473" type="curve" smooth="yes"/>
      <point x="533" y="522" type="line" smooth="yes"/>
      <point x="533" y="637"/>
      <point x="432" y="720"/>
      <point x="292" y="720" type="curve"/>
      <point x="265" y="720"/>
      <point x="256" y="705"/>
      <point x="256" y="682" type="curve"/>
      <point x="380" y="677"/>
      <point x="449" y="629"/>
      <point x="449" y="513" type="curve" smooth="yes"/>
      <point x="449" y="476" type="line" smooth="yes"/>
      <point x="449" y="344"/>
      <point x="343" y="255"/>
      <point x="220" y="255" type="curve" smooth="yes"/>
      <point x="185" y="255"/>
      <point x="176" y="256"/>
      <point x="163" y="258" type="curve"/>
      <point x="158" y="254"/>
      <point x="156" y="249"/>
      <point x="156" y="241" type="curve" smooth="yes"/>
      <point x="156" y="213"/>
      <point x="197" y="177"/>
      <point x="233" y="177" type="curve" smooth="yes"/>
      <point x="237" y="177" type="line" smooth="yes"/>
      <point x="393" y="177"/>
      <point x="533" y="299"/>
    </contour>
  </outline>
</glyph>
<glyph name="Q" format="1">
  <advance width="650"/>
  <unicode hex="0051"/>
  <outline>
    <contour>
      <point x="327" y="720" type="curve" smooth="yes"/>
      <point x="165" y="720"/>
      <point x="67" y="594"/>
      <point x="67" y="358" type="curve" smooth="yes"/>
      <point x="67" y="318" type="line" smooth="yes"/>
      <point x="67" y="92"/>
      <point x="153" y="-20"/>
      <point x="323" y="-20" type="curve" smooth="yes"/>
      <point x="347" y="-20"/>
      <point x="362" y="3"/>
      <point x="362" y="38" type="curve"/>
      <point x="214" y="42"/>
      <point x="148" y="134"/>
      <point x="148" y="318" type="curve" smooth="yes"/>
      <point x="148" y="352" type="line" smooth="yes"/>
      <point x="148" y="549"/>
      <point x="214" y="639"/>
      <point x="331" y="639" type="curve" smooth="yes"/>
      <point x="375" y="639"/>
      <point x="411" y="630"/>
      <point x="454" y="609" type="curve"/>
      <point x="491" y="644"/>
      <point x="408" y="720"/>
    </contour>
    <contour>
      <point x="323" y="-20" type="curve" smooth="yes"/>
      <point x="485" y="-20"/>
      <point x="583" y="106"/>
      <point x="583" y="342" type="curve" smooth="yes"/>
      <point x="583" y="382" type="line" smooth="yes"/>
      <point x="583" y="606"/>
      <point x="493" y="720"/>
      <point x="327" y="720" type="curve" smooth="yes"/>
      <point x="303" y="720"/>
      <point x="288" y="697"/>
      <point x="288" y="662" type="curve"/>
      <point x="436" y="658"/>
      <point x="502" y="566"/>
      <point x="502" y="382" type="curve" smooth="yes"/>
      <point x="502" y="348" type="line" smooth="yes"/>
      <point x="502" y="151"/>
      <point x="436" y="61"/>
      <point x="319" y="61" type="curve" smooth="yes"/>
      <point x="276" y="61"/>
      <point x="241" y="71"/>
      <point x="199" y="91" type="curve"/>
      <point x="159" y="52"/>
      <point x="244" y="-20"/>
    </contour>
    <contour>
      <point x="442" y="77" type="line"/>
      <point x="397" y="50"/>
      <point x="383" y="28"/>
      <point x="392" y="13" type="curve" smooth="yes"/>
      <point x="452" y="-78" type="line" smooth="yes"/>
      <point x="492" y="-137"/>
      <point x="525" y="-164"/>
      <point x="568" y="-164" type="curve" smooth="yes"/>
      <point x="571" y="-164" type="line" smooth="yes"/>
      <point x="612" y="-164"/>
      <point x="633" y="-140"/>
      <point x="633" y="-95" type="curve" smooth="yes"/>
      <point x="633" y="-78"/>
      <point x="631" y="-65"/>
      <point x="628" y="-52" type="curve"/>
      <point x="624" y="-52" type="line"/>
      <point x="614" y="-62"/>
      <point x="600" y="-67"/>
      <point x="584" y="-67" type="curve" smooth="yes"/>
      <point x="557" y="-67"/>
      <point x="537" y="-56"/>
      <point x="515" y="-26" type="curve" smooth="yes"/>
    </contour>
  </outline>
</glyph>
<glyph name="T" format="1">
  <advance width="600"/>
  <unicode hex="0054"/>
  <outline>
    <contour>
      <point x="46" y="700" type="line"/>
      <point x="44" y="694"/>
      <point x="43" y="687"/>
      <point x="43" y="679" type="curve" smooth="yes"/>
      <point x="43" y="662"/>
      <point x="48" y="643"/>
      <point x="59" y="631" type="curve" smooth="yes"/>
      <point x="69" y="622"/>
      <point x="83" y="619"/>
      <point x="113" y="619" type="curve" smooth="yes"/>
      <point x="551" y="619" type="line"/>
      <point x="553" y="626"/>
      <point x="554" y="636"/>
      <point x="554" y="646" type="curve" smooth="yes"/>
      <point x="554" y="679"/>
      <point x="546" y="700"/>
      <point x="519" y="700" type="curve" smooth="yes"/>
    </contour>
    <contour>
      <point x="351" y="-6" type="curve"/>
      <point x="344" y="30"/>
      <point x="342" y="65"/>
      <point x="342" y="103" type="curve" smooth="yes"/>
      <point x="342" y="566" type="line" smooth="yes"/>
      <point x="342" y="627"/>
      <point x="320" y="650"/>
      <point x="258" y="650" type="curve"/>
      <point x="258" y="53" type="line" smooth="yes"/>
      <point x="258" y="30"/>
      <point x="260" y="14"/>
      <point x="272" y="2" type="curve" smooth="yes"/>
      <point x="281" y="-6"/>
      <point x="293" y="-10"/>
      <point x="318" y="-10" type="curve" smooth="yes"/>
      <point x="330" y="-10"/>
      <point x="340" y="-9"/>
    </contour>
    <contour>
      <point x="299" y="711" type="move" name="top"/>
    </contour>
    <contour>
      <point x="300" y="-1" type="move" name="bottom"/>
    </contour>
  </outline>
</glyph>
<glyph name="U" format="1">
  <advance width="650"/>
  <unicode hex="0055"/>
  <outline>
    <contour>
      <point x="72" y="705" type="curve"/>
      <point x="82" y="670"/>
      <point x="86" y="629"/>
      <point x="86" y="576" type="curve" smooth="yes"/>
      <point x="86" y="153" type="line"/>
      <point x="86" y="113"/>
      <point x="111" y="95"/>
      <point x="153" y="108" type="curve"/>
      <point x="169" y="285"/>
      <point x="179" y="395"/>
      <point x="179" y="545" type="curve"/>
      <point x="179" y="550" type="line"/>
      <point x="179" y="673"/>
      <point x="150" y="710"/>
      <point x="106" y="710" type="curve"/>
      <point x="93" y="710"/>
      <point x="84" y="708"/>
    </contour>
    <contour>
      <point x="240" y="-17" type="curve" smooth="yes"/>
      <point x="327" y="-17"/>
      <point x="411" y="28"/>
      <point x="480" y="126" type="curve" smooth="yes"/>
      <point x="504" y="164"/>
      <point x="510" y="186"/>
      <point x="492" y="230" type="curve"/>
      <point x="399" y="107"/>
      <point x="333" y="71"/>
      <point x="253" y="71" type="curve" smooth="yes"/>
      <point x="188" y="71"/>
      <point x="155" y="107"/>
      <point x="146" y="197" type="curve"/>
      <point x="112" y="190"/>
      <point x="86" y="172"/>
      <point x="86" y="153" type="curve" smooth="yes"/>
      <point x="86" y="66"/>
      <point x="147" y="-17"/>
    </contour>
    <contour>
      <point x="568" y="-7" type="curve"/>
      <point x="562" y="28"/>
      <point x="561" y="63"/>
      <point x="561" y="100" type="curve" smooth="yes"/>
      <point x="561" y="675" type="line" smooth="yes"/>
      <point x="561" y="701"/>
      <point x="537" y="710"/>
      <point x="497" y="710" type="curve" smooth="yes"/>
      <point x="490" y="710"/>
      <point x="483" y="709"/>
      <point x="477" y="708" type="curve"/>
      <point x="477" y="62" type="line" smooth="yes"/>
      <point x="477" y="36"/>
      <point x="480" y="18"/>
      <point x="494" y="4" type="curve" smooth="yes"/>
      <point x="503" y="-5"/>
      <point x="521" y="-10"/>
      <point x="543" y="-10" type="curve" smooth="yes"/>
      <point x="553" y="-10"/>
      <point x="559" y="-9"/>
    </contour>
    <contour>
      <point x="320" y="711" type="move" name="top"/>
    </contour>
    <contour>
      <point x="569" y="-7" type="move" name="ogonek"/>
    </contour>
    <contour>
      <point x="320" y="704" type="move" name="ring"/>
    </contour>
    <contour>
      <point x="320" y="-1" type="move" name="bottom"/>
    </contour>
  </outline>
</glyph>
<glyph name="V" format="1">
  <advance width="650"/>
  <unicode hex="0056"/>
  <outline>
    <contour>
      <point x="73" y="710" type="curve"/>
      <point x="59" y="710" type="line"/>
      <point x="75" y="317"/>
      <point x="132" y="153"/>
      <point x="264" y="21" type="curve"/>
      <point x="288" y="-3"/>
      <point x="307" y="-10"/>
      <point x="329" y="-10" type="curve"/>
      <point x="356" y="-10"/>
      <point x="374" y="5"/>
      <point x="385" y="36" type="curve"/>
      <point x="380" y="36"/>
      <point x="376" y="36"/>
      <point x="372" y="36" type="curve" smooth="yes"/>
      <point x="366" y="36"/>
      <point x="361" y="37"/>
      <point x="355" y="42" type="curve"/>
      <point x="216" y="169"/>
      <point x="162" y="289"/>
      <point x="144" y="681" type="curve"/>
      <point x="143" y="699"/>
      <point x="111" y="710"/>
    </contour>
    <contour>
      <point x="522" y="710" type="curve"/>
      <point x="508" y="710" type="line"/>
      <point x="484" y="308"/>
      <point x="445" y="175"/>
      <point x="304" y="51" type="curve"/>
      <point x="288" y="37"/>
      <point x="291" y="-10"/>
      <point x="329" y="-10" type="curve"/>
      <point x="362" y="-10" type="line"/>
      <point x="512" y="119"/>
      <point x="570" y="306"/>
      <point x="590" y="668" type="curve"/>
      <point x="591" y="691"/>
      <point x="560" y="710"/>
    </contour>
  </outline>
</glyph>
<glyph name="W" format="1">
  <advance width="900"/>
  <unicode hex="0057"/>
  <outline>
    <contour>
      <point x="55" y="710" type="curve"/>
      <point x="65" y="331"/>
      <point x="100" y="162"/>
      <point x="197" y="34" type="curve"/>
      <point x="219" y="5"/>
      <point x="242" y="-10"/>
      <point x="262" y="-10" type="curve"/>
      <point x="281" y="-10" type="line" smooth="yes"/>
      <point x="291" y="-10"/>
      <point x="297" y="10"/>
      <point x="297" y="35" type="curve"/>
      <point x="196" y="142"/>
      <point x="163" y="263"/>
      <point x="143" y="673" type="curve"/>
      <point x="142" y="686"/>
      <point x="140" y="689"/>
      <point x="136" y="694" type="curve" smooth="yes"/>
      <point x="125" y="705"/>
      <point x="97" y="710"/>
      <point x="69" y="710" type="curve"/>
      <point x="65" y="710"/>
      <point x="59" y="710"/>
    </contour>
    <contour>
      <point x="763" y="710" type="curve"/>
      <point x="747" y="331"/>
      <point x="719" y="182"/>
      <point x="611" y="51" type="curve"/>
      <point x="596" y="32"/>
      <point x="606" y="-10"/>
      <point x="638" y="-10" type="curve"/>
      <point x="670" y="-10" type="line"/>
      <point x="791" y="122"/>
      <point x="835" y="353"/>
      <point x="844" y="666" type="curve" smooth="yes"/>
      <point x="844" y="676"/>
      <point x="844" y="681"/>
      <point x="839" y="686" type="curve" smooth="yes"/>
      <point x="826" y="699"/>
      <point x="804" y="710"/>
      <point x="778" y="710" type="curve"/>
      <point x="773" y="710"/>
      <point x="768" y="710"/>
    </contour>
    <contour>
      <point x="438" y="615" type="curve"/>
      <point x="409" y="615" type="line"/>
      <point x="372" y="322"/>
      <point x="330" y="172"/>
      <point x="243" y="46" type="curve"/>
      <point x="227" y="27"/>
      <point x="239" y="-10"/>
      <point x="262" y="-10" type="curve"/>
      <point x="296" y="-10" type="line"/>
      <point x="386" y="117"/>
      <point x="441" y="307"/>
      <point x="469" y="564" type="curve" smooth="yes"/>
      <point x="473" y="593"/>
      <point x="457" y="615"/>
    </contour>
    <contour>
      <point x="441" y="615" type="curve"/>
      <point x="429" y="615" type="line"/>
      <point x="462" y="305"/>
      <point x="504" y="140"/>
      <point x="581" y="19" type="curve" smooth="yes"/>
      <point x="597" y="-2"/>
      <point x="614" y="-10"/>
      <point x="638" y="-10" type="curve"/>
      <point x="655" y="-10" type="line"/>
      <point x="661" y="-10"/>
      <point x="668" y="9"/>
      <point x="662" y="36" type="curve"/>
      <point x="570" y="166"/>
      <point x="535" y="291"/>
      <point x="500" y="583" type="curve" smooth="yes"/>
      <point x="497" y="600"/>
      <point x="473" y="615"/>
    </contour>
    <contour>
      <point x="449" y="711" type="move" name="top"/>
    </contour>
  </outline>
</glyph>
<glyph name="X" format="1">
  <advance width="650"/>
  <unicode hex="0058"/>
  <outline>
    <contour>
      <point x="578" y="-7" type="curve" smooth="yes"/>
      <point x="595" y="-7"/>
      <point x="610" y="-5"/>
      <point x="622" y="0" type="curve"/>
      <point x="537" y="77"/>
      <point x="439" y="197"/>
      <point x="352" y="320" type="curve" smooth="yes"/>
      <point x="346" y="328"/>
      <point x="340" y="338"/>
      <point x="334" y="347" type="curve" smooth="yes"/>
      <point x="248" y="469"/>
      <point x="175" y="594"/>
      <point x="139" y="682" type="curve" smooth="yes"/>
      <point x="131" y="702"/>
      <point x="101" y="707"/>
      <point x="45" y="707" type="curve" smooth="yes"/>
      <point x="28" y="707" type="line"/>
      <point x="81" y="585"/>
      <point x="173" y="434"/>
      <point x="269" y="298" type="curve" smooth="yes"/>
      <point x="275" y="290"/>
      <point x="281" y="280"/>
      <point x="287" y="272" type="curve" smooth="yes"/>
      <point x="364" y="168"/>
      <point x="441" y="75"/>
      <point x="499" y="19" type="curve" smooth="yes"/>
      <point x="516" y="0"/>
      <point x="544" y="-7"/>
    </contour>
    <contour>
      <point x="539" y="707" type="curve" smooth="yes"/>
      <point x="527" y="707" type="line"/>
      <point x="480" y="553"/>
      <point x="418" y="447"/>
      <point x="306" y="341" type="curve"/>
      <point x="281" y="315"/>
      <point x="311" y="283"/>
      <point x="351" y="287" type="curve"/>
      <point x="478" y="401"/>
      <point x="551" y="513"/>
      <point x="606" y="671" type="curve"/>
      <point x="608" y="679"/>
      <point x="608" y="684"/>
      <point x="604" y="688" type="curve" smooth="yes"/>
      <point x="590" y="702"/>
      <point x="565" y="707"/>
    </contour>
    <contour>
      <point x="105" y="-7" type="curve"/>
      <point x="116" y="-7" type="line"/>
      <point x="162" y="99"/>
      <point x="230" y="190"/>
      <point x="315" y="268" type="curve"/>
      <point x="339" y="292"/>
      <point x="310" y="330"/>
      <point x="273" y="330" type="curve"/>
      <point x="164" y="228"/>
      <point x="88" y="134"/>
      <point x="35" y="32" type="curve" smooth="yes"/>
      <point x="30" y="22"/>
      <point x="32" y="16"/>
      <point x="37" y="11" type="curve" smooth="yes"/>
      <point x="50" y="-1"/>
      <point x="73" y="-7"/>
    </contour>
  </outline>
</glyph>
<glyph name="Y" format="1">
  <advance width="600"/>
  <unicode hex="0059"/>
  <outline>
    <contour>
      <point x="43" y="710" type="line"/>
      <point x="82" y="453"/>
      <point x="138" y="349"/>
      <point x="253" y="234" type="curve"/>
      <point x="268" y="218"/>
      <point x="285" y="216"/>
      <point x="298" y="216" type="curve"/>
      <point x="319" y="216"/>
      <point x="333" y="232"/>
      <point x="334" y="269" type="curve"/>
      <point x="218" y="371"/>
      <point x="167" y="448"/>
      <point x="131" y="681" type="curve"/>
      <point x="129" y="699"/>
      <point x="96" y="710"/>
      <point x="58" y="710" type="curve" smooth="yes"/>
    </contour>
    <contour>
      <point x="472" y="710" type="line"/>
      <point x="444" y="480"/>
      <point x="394" y="385"/>
      <point x="275" y="275" type="curve"/>
      <point x="250" y="251"/>
      <point x="276" y="216"/>
      <point x="298" y="216" type="curve"/>
      <point x="331" y="216" type="line"/>
      <point x="450" y="331"/>
      <point x="526" y="457"/>
      <point x="552" y="668" type="curve"/>
      <point x="555" y="691"/>
      <point x="524" y="710"/>
      <point x="487" y="710" type="curve"/>
    </contour>
    <contour>
      <point x="351" y="-6" type="curve"/>
      <point x="344" y="30"/>
      <point x="342" y="65"/>
      <point x="342" y="103" type="curve" smooth="yes"/>
      <point x="342" y="245" type="line" smooth="yes"/>
      <point x="342" y="271"/>
      <point x="304" y="282"/>
      <point x="258" y="282" type="curve"/>
      <point x="258" y="53" type="line" smooth="yes"/>
      <point x="258" y="30"/>
      <point x="260" y="14"/>
      <point x="272" y="2" type="curve" smooth="yes"/>
      <point x="281" y="-6"/>
      <point x="293" y="-10"/>
      <point x="318" y="-10" type="curve" smooth="yes"/>
      <point x="330" y="-10"/>
      <point x="340" y="-9"/>
    </contour>
    <contour>
      <point x="300" y="711" type="move" name="top"/>
    </contour>
  </outline>
</glyph>
<glyph name="bracketleft" format="1">
  <advance width="400"/>
  <unicode hex="005B"/>
  <outline>
    <contour>
      <point x="50" y="647" type="curve" smooth="yes"/>
      <point x="50" y="-81" type="line" smooth="yes"/>
      <point x="50" y="-104"/>
      <point x="95" y="-108"/>
      <point x="134" y="-108" type="curve"/>
      <point x="134" y="711" type="line" smooth="yes"/>
      <point x="134" y="743"/>
      <point x="124" y="760"/>
      <point x="81" y="760" type="curve" smooth="yes"/>
      <point x="66" y="760"/>
      <point x="54" y="759"/>
      <point x="41" y="755" type="curve"/>
      <point x="48" y="720"/>
      <point x="50" y="685"/>
    </contour>
    <contour>
      <point x="354" y="679" type="line"/>
      <point x="357" y="687"/>
      <point x="359" y="697"/>
      <point x="359" y="707" type="curve" smooth="yes"/>
      <point x="359" y="720"/>
      <point x="356" y="741"/>
      <point x="344" y="753" type="curve" smooth="yes"/>
      <point x="339" y="758"/>
      <point x="334" y="760"/>
      <point x="325" y="760" type="curve" smooth="yes"/>
      <point x="81" y="760" type="line"/>
      <point x="81" y="711"/>
      <point x="101" y="679"/>
      <point x="177" y="679" type="curve"/>
    </contour>
    <contour>
      <point x="357" y="-161" type="line"/>
      <point x="358" y="-154"/>
      <point x="359" y="-145"/>
      <point x="359" y="-136" type="curve" smooth="yes"/>
      <point x="359" y="-97"/>
      <point x="348" y="-80"/>
      <point x="324" y="-80" type="curve" smooth="yes"/>
      <point x="50" y="-80" type="line"/>
      <point x="50" y="-92" type="line" smooth="yes"/>
      <point x="50" y="-124"/>
      <point x="78" y="-161"/>
      <point x="104" y="-161" type="curve" smooth="yes"/>
    </contour>
  </outline>
</glyph>
<glyph name="bracketright" format="1">
  <advance width="400"/>
  <unicode hex="005D"/>
  <outline>
    <contour>
      <point x="350" y="-48" type="curve" smooth="yes"/>
      <point x="350" y="680" type="line" smooth="yes"/>
      <point x="350" y="703"/>
      <point x="305" y="707"/>
      <point x="266" y="707" type="curve"/>
      <point x="266" y="-112" type="line" smooth="yes"/>
      <point x="266" y="-144"/>
      <point x="276" y="-161"/>
      <point x="319" y="-161" type="curve" smooth="yes"/>
      <point x="334" y="-161"/>
      <point x="346" y="-160"/>
      <point x="359" y="-156" type="curve"/>
      <point x="352" y="-121"/>
      <point x="350" y="-86"/>
    </contour>
    <contour>
      <point x="46" y="-80" type="line"/>
      <point x="43" y="-88"/>
      <point x="41" y="-98"/>
      <point x="41" y="-108" type="curve" smooth="yes"/>
      <point x="41" y="-121"/>
      <point x="44" y="-142"/>
      <point x="56" y="-154" type="curve" smooth="yes"/>
      <point x="61" y="-159"/>
      <point x="66" y="-161"/>
      <point x="75" y="-161" type="curve" smooth="yes"/>
      <point x="319" y="-161" type="line"/>
      <point x="319" y="-112"/>
      <point x="299" y="-80"/>
      <point x="223" y="-80" type="curve"/>
    </contour>
    <contour>
      <point x="43" y="760" type="line"/>
      <point x="42" y="753"/>
      <point x="41" y="744"/>
      <point x="41" y="735" type="curve" smooth="yes"/>
      <point x="41" y="696"/>
      <point x="52" y="679"/>
      <point x="76" y="679" type="curve" smooth="yes"/>
      <point x="350" y="679" type="line"/>
      <point x="350" y="691" type="line" smooth="yes"/>
      <point x="350" y="723"/>
      <point x="322" y="760"/>
      <point x="296" y="760" type="curve" smooth="yes"/>
    </contour>
  </outline>
</glyph>
<glyph name="grave" format="1">
  <advance width="350"/>
  <unicode hex="0060"/>
  <outline>
    <contour>
      <point x="271" y="404" type="curve"/>
      <point x="215" y="495"/>
      <point x="195" y="568"/>
      <point x="195" y="712" type="curve"/>
      <point x="179" y="718"/>
      <point x="167" y="720"/>
      <point x="149" y="720" type="curve" smooth="yes"/>
      <point x="111" y="720"/>
      <point x="79" y="710"/>
      <point x="79" y="672" type="curve" smooth="yes"/>
      <point x="79" y="552"/>
      <point x="128" y="447"/>
      <point x="181" y="396" type="curve" smooth="yes"/>
      <point x="188" y="388"/>
      <point x="196" y="385"/>
      <point x="210" y="385" type="curve" smooth="yes"/>
      <point x="236" y="385"/>
      <point x="252" y="391"/>
    </contour>
  </outline>
</glyph>
<glyph name="b" format="1">
  <advance width="600"/>
  <unicode hex="0062"/>
  <outline>
    <contour>
      <point x="96" y="0" type="line"/>
      <point x="103" y="-3"/>
      <point x="113" y="-5"/>
      <point x="126" y="-5" type="curve" smooth="yes"/>
      <point x="162" y="-5"/>
      <point x="177" y="15"/>
      <point x="177" y="47" type="curve" smooth="yes"/>
      <point x="177" y="670" type="line"/>
      <point x="177" y="732"/>
      <point x="160" y="759"/>
      <point x="114" y="759" type="curve" smooth="yes"/>
      <point x="103" y="759"/>
      <point x="94" y="758"/>
      <point x="82" y="753" type="curve"/>
      <point x="93" y="726"/>
      <point x="96" y="703"/>
      <point x="96" y="656" type="curve" smooth="yes"/>
    </contour>
    <contour>
      <point x="378" y="541" type="curve" smooth="yes"/>
      <point x="288" y="541"/>
      <point x="200" y="462"/>
      <point x="165" y="352" type="curve" smooth="yes"/>
      <point x="153" y="313"/>
      <point x="156" y="270"/>
      <point x="169" y="242" type="curve"/>
      <point x="231" y="401"/>
      <point x="297" y="456"/>
      <point x="376" y="456" type="curve" smooth="yes"/>
      <point x="425" y="456"/>
      <point x="468" y="407"/>
      <point x="493" y="318" type="curve"/>
      <point x="525" y="320"/>
      <point x="536" y="327"/>
      <point x="536" y="335" type="curve" smooth="yes"/>
      <point x="536" y="457"/>
      <point x="471" y="541"/>
    </contour>
    <contour>
      <point x="320" y="-11" type="curve" smooth="yes"/>
      <point x="446" y="-11"/>
      <point x="536" y="88"/>
      <point x="536" y="317" type="curve" smooth="yes"/>
      <point x="536" y="335" type="line" smooth="yes"/>
      <point x="536" y="388"/>
      <point x="500" y="470"/>
      <point x="454" y="470" type="curve"/>
      <point x="439" y="470"/>
      <point x="429" y="464"/>
      <point x="427" y="447" type="curve"/>
      <point x="449" y="407"/>
      <point x="453" y="372"/>
      <point x="453" y="320" type="curve" smooth="yes"/>
      <point x="453" y="310" type="line" smooth="yes"/>
      <point x="453" y="151"/>
      <point x="406" y="69"/>
      <point x="307" y="69" type="curve" smooth="yes"/>
      <point x="245" y="69"/>
      <point x="211" y="93"/>
      <point x="167" y="142" type="curve"/>
      <point x="159" y="132"/>
      <point x="156" y="108"/>
      <point x="162" y="94" type="curve" smooth="yes"/>
      <point x="170" y="45"/>
      <point x="239" y="-11"/>
    </contour>
  </outline>
</glyph>
<glyph name="c" format="1">
  <advance width="500"/>
  <unicode hex="0063"/>
  <outline>
    <contour>
      <point x="318" y="541" type="curve" smooth="yes"/>
      <point x="164" y="541"/>
      <point x="64" y="421"/>
      <point x="64" y="238" type="curve" smooth="yes"/>
      <point x="64" y="223" type="line" smooth="yes"/>
      <point x="64" y="68"/>
      <point x="156" y="-12"/>
      <point x="296" y="-11" type="curve" smooth="yes"/>
      <point x="312" y="-11"/>
      <point x="317" y="1"/>
      <point x="317" y="33" type="curve"/>
      <point x="204" y="39"/>
      <point x="145" y="121"/>
      <point x="145" y="218" type="curve" smooth="yes"/>
      <point x="145" y="233" type="line" smooth="yes"/>
      <point x="145" y="362"/>
      <point x="203" y="458"/>
      <point x="309" y="458" type="curve" smooth="yes"/>
      <point x="365" y="458"/>
      <point x="398" y="445"/>
      <point x="436" y="411" type="curve"/>
      <point x="440" y="411" type="line"/>
      <point x="445" y="425"/>
      <point x="447" y="439"/>
      <point x="447" y="456" type="curve"/>
      <point x="447" y="481"/>
      <point x="442" y="495"/>
      <point x="430" y="508" type="curve" smooth="yes"/>
      <point x="408" y="530"/>
      <point x="369" y="541"/>
    </contour>
    <contour>
      <point x="296" y="-11" type="curve" smooth="yes"/>
      <point x="357" y="-11"/>
      <point x="410" y="7"/>
      <point x="431" y="28" type="curve" smooth="yes"/>
      <point x="446" y="43"/>
      <point x="451" y="67"/>
      <point x="451" y="97" type="curve"/>
      <point x="451" y="109"/>
      <point x="450" y="117"/>
      <point x="449" y="124" type="curve"/>
      <point x="445" y="124" type="line"/>
      <point x="404" y="87"/>
      <point x="366" y="69"/>
      <point x="298" y="69" type="curve" smooth="yes"/>
      <point x="232" y="69"/>
      <point x="188" y="88"/>
      <point x="140" y="143" type="curve"/>
      <point x="100" y="74"/>
      <point x="182" y="-11"/>
    </contour>
    <contour>
      <point x="281" y="541" type="move" name="top"/>
    </contour>
    <contour>
      <point x="282" y="-1" type="move" name="bottom"/>
    </contour>
  </outline>
</glyph>
<glyph name="f" format="1">
  <advance width="400"/>
  <unicode hex="0066"/>
  <outline>
    <contour>
      <point x="206" y="-4" type="curve"/>
      <point x="196" y="30"/>
      <point x="193" y="55"/>
      <point x="193" y="101" type="curve" smooth="yes"/>
      <point x="193" y="521" type="line" smooth="yes"/>
      <point x="189" y="548"/>
      <point x="188" y="568"/>
      <point x="188" y="597" type="curve" smooth="yes"/>
      <point x="188" y="685"/>
      <point x="224" y="729"/>
      <point x="310" y="728" type="curve"/>
      <point x="310" y="750"/>
      <point x="303" y="762"/>
      <point x="288" y="762" type="curve" smooth="yes"/>
      <point x="180" y="762"/>
      <point x="109" y="692"/>
      <point x="109" y="583" type="curve" smooth="yes"/>
      <point x="109" y="59" type="line" smooth="yes"/>
      <point x="109" y="4"/>
      <point x="134" y="-9"/>
      <point x="174" y="-9" type="curve" smooth="yes"/>
      <point x="185" y="-9"/>
      <point x="196" y="-7"/>
    </contour>
    <contour>
      <point x="159" y="630" type="curve"/>
      <point x="196" y="673"/>
      <point x="230" y="685"/>
      <point x="283" y="685" type="curve" smooth="yes"/>
      <point x="329" y="685"/>
      <point x="363" y="677"/>
      <point x="398" y="659" type="curve"/>
      <point x="402" y="659" type="line"/>
      <point x="404" y="668"/>
      <point x="405" y="678"/>
      <point x="405" y="687" type="curve"/>
      <point x="405" y="711"/>
      <point x="400" y="727"/>
      <point x="390" y="737" type="curve" smooth="yes"/>
      <point x="379" y="749"/>
      <point x="347" y="762"/>
      <point x="288" y="762" type="curve" smooth="yes"/>
      <point x="194" y="762"/>
      <point x="131" y="689"/>
    </contour>
    <contour>
      <point x="29" y="530" type="curve"/>
      <point x="29" y="526"/>
      <point x="29" y="522"/>
      <point x="29" y="518" type="curve" smooth="yes"/>
      <point x="29" y="491"/>
      <point x="34" y="474"/>
      <point x="45" y="463" type="curve" smooth="yes"/>
      <point x="54" y="454"/>
      <point x="63" y="449"/>
      <point x="87" y="449" type="curve" smooth="yes"/>
      <point x="186" y="449"/>
      <point x="278" y="449"/>
      <point x="372" y="449" type="curve"/>
      <point x="373" y="456"/>
      <point x="374" y="466"/>
      <point x="374" y="476" type="curve" smooth="yes"/>
      <point x="374" y="511"/>
      <point x="365" y="530"/>
      <point x="335" y="530" type="curve" smooth="yes"/>
      <point x="253" y="530"/>
      <point x="130" y="530"/>
    </contour>
  </outline>
</glyph>
<glyph name="g" format="1">
  <advance width="600"/>
  <unicode hex="0067"/>
  <outline>
    <contour>
      <point x="317" y="471" type="curve" smooth="yes"/>
      <point x="458" y="471"/>
      <point x="499" y="457"/>
      <point x="535" y="457" type="curve" smooth="yes"/>
      <point x="558" y="457"/>
      <point x="566" y="479"/>
      <point x="566" y="509" type="curve" smooth="yes"/>
      <point x="566" y="517"/>
      <point x="565" y="526"/>
      <point x="563" y="532" type="curve"/>
      <point x="484" y="540"/>
      <point x="416" y="545"/>
      <point x="324" y="545" type="curve" smooth="yes"/>
      <point x="172" y="545"/>
      <point x="79" y="468"/>
      <point x="79" y="352" type="curve" smooth="yes"/>
      <point x="79" y="346" type="line" smooth="yes"/>
      <point x="79" y="228"/>
      <point x="168" y="156"/>
      <point x="298" y="158" type="curve"/>
      <point x="328" y="158"/>
      <point x="333" y="171"/>
      <point x="333" y="198" type="curve"/>
      <point x="194" y="200"/>
      <point x="156" y="281"/>
      <point x="156" y="334" type="curve" smooth="yes"/>
      <point x="156" y="339" type="line" smooth="yes"/>
      <point x="156" y="429"/>
      <point x="214" y="471"/>
    </contour>
    <contour>
      <point x="294" y="230" type="curve" smooth="yes"/>
      <point x="235" y="230"/>
      <point x="200" y="242"/>
      <point x="152" y="275" type="curve"/>
      <point x="129" y="226"/>
      <point x="207" y="158"/>
      <point x="298" y="158" type="curve" smooth="yes"/>
      <point x="420" y="158"/>
      <point x="509" y="226"/>
      <point x="509" y="327" type="curve" smooth="yes"/>
      <point x="509" y="334" type="line" smooth="yes"/>
      <point x="509" y="419"/>
      <point x="448" y="474"/>
      <point x="386" y="486" type="curve" smooth="yes"/>
      <point x="366" y="492"/>
      <point x="341" y="489"/>
      <point x="334" y="481" type="curve"/>
      <point x="413" y="451"/>
      <point x="434" y="392"/>
      <point x="434" y="351" type="curve" smooth="yes"/>
      <point x="434" y="344" type="line" smooth="yes"/>
      <point x="434" y="267"/>
      <point x="381" y="230"/>
    </contour>
    <contour>
      <point x="181" y="78" type="curve" smooth="yes"/>
      <point x="181" y="73" type="line" smooth="yes"/>
      <point x="181" y="18"/>
      <point x="219" y="-18"/>
      <point x="291" y="-23" type="curve" smooth="yes"/>
      <point x="396" y="-29" type="line" smooth="yes"/>
      <point x="447" y="-32"/>
      <point x="470" y="-59"/>
      <point x="470" y="-102" type="curve" smooth="yes"/>
      <point x="470" y="-105" type="line" smooth="yes"/>
      <point x="470" y="-172"/>
      <point x="417" y="-212"/>
      <point x="264" y="-212" type="curve"/>
      <point x="264" y="-241"/>
      <point x="269" y="-250"/>
      <point x="285" y="-250" type="curve" smooth="yes"/>
      <point x="462" y="-250"/>
      <point x="551" y="-196"/>
      <point x="551" y="-80" type="curve" smooth="yes"/>
      <point x="551" y="-75" type="line" smooth="yes"/>
      <point x="551" y="-5"/>
      <point x="503" y="42"/>
      <point x="417" y="47" type="curve" smooth="yes"/>
      <point x="304" y="55" type="line" smooth="yes"/>
      <point x="272" y="57"/>
      <point x="259" y="70"/>
      <point x="259" y="93" type="curve" smooth="yes"/>
      <point x="259" y="97" type="line" smooth="yes"/>
      <point x="259" y="125"/>
      <point x="270" y="149"/>
      <point x="298" y="175" type="curve"/>
      <point x="297" y="188"/>
      <point x="289" y="192"/>
      <point x="271" y="192" type="curve" smooth="yes"/>
      <point x="233" y="192"/>
      <point x="181" y="136"/>
    </contour>
    <contour>
      <point x="500" y="-132" type="curve"/>
      <point x="450" y="-173"/>
      <point x="399" y="-184"/>
      <point x="296" y="-184" type="curve" smooth="yes"/>
      <point x="258" y="-184" type="line" smooth="yes"/>
      <point x="176" y="-184"/>
      <point x="133" y="-160"/>
      <point x="133" y="-109" type="curve" smooth="yes"/>
      <point x="133" y="-103" type="line" smooth="yes"/>
      <point x="133" y="-44"/>
      <point x="168" y="-9"/>
      <point x="240" y="6" type="curve"/>
      <point x="238" y="25"/>
      <point x="225" y="38"/>
      <point x="207" y="37" type="curve" smooth="yes"/>
      <point x="114" y="31"/>
      <point x="51" y="-27"/>
      <point x="51" y="-111" type="curve" smooth="yes"/>
      <point x="51" y="-116" type="line" smooth="yes"/>
      <point x="51" y="-191"/>
      <point x="122" y="-250"/>
      <point x="250" y="-250" type="curve" smooth="yes"/>
      <point x="285" y="-250" type="line" smooth="yes"/>
      <point x="435" y="-250"/>
      <point x="519" y="-187"/>
    </contour>
  </outline>
</glyph>
<glyph name="h" format="1">
  <advance width="600"/>
  <unicode hex="0068"/>
  <outline>
    <contour>
      <point x="173" y="-3" type="curve"/>
      <point x="173" y="664" type="line" smooth="yes"/>
      <point x="173" y="701"/>
      <point x="169" y="725"/>
      <point x="154" y="739" type="curve" smooth="yes"/>
      <point x="140" y="753"/>
      <point x="124" y="757"/>
      <point x="102" y="757" type="curve" smooth="yes"/>
      <point x="94" y="757"/>
      <point x="86" y="756"/>
      <point x="79" y="754" type="curve"/>
      <point x="88" y="724"/>
      <point x="90" y="706"/>
      <point x="90" y="661" type="curve" smooth="yes"/>
      <point x="90" y="30" type="line" smooth="yes"/>
      <point x="90" y="1"/>
      <point x="116" y="-5"/>
      <point x="149" y="-5" type="curve" smooth="yes"/>
      <point x="158" y="-5"/>
      <point x="166" y="-5"/>
    </contour>
    <contour>
      <point x="389" y="542" type="curve" smooth="yes"/>
      <point x="299" y="542"/>
      <point x="213" y="449"/>
      <point x="164" y="333" type="curve" smooth="yes"/>
      <point x="148" y="285"/>
      <point x="147" y="235"/>
      <point x="164" y="190" type="curve"/>
      <point x="209" y="353"/>
      <point x="291" y="455"/>
      <point x="371" y="455" type="curve" smooth="yes"/>
      <point x="413" y="455"/>
      <point x="439" y="421"/>
      <point x="450" y="354" type="curve"/>
      <point x="494" y="355"/>
      <point x="509" y="374"/>
      <point x="509" y="393" type="curve" smooth="yes"/>
      <point x="509" y="469"/>
      <point x="462" y="542"/>
    </contour>
    <contour>
      <point x="523" y="0" type="curve"/>
      <point x="512" y="48"/>
      <point x="509" y="83"/>
      <point x="509" y="135" type="curve" smooth="yes"/>
      <point x="509" y="393" type="line"/>
      <point x="509" y="425"/>
      <point x="490" y="443"/>
      <point x="442" y="442" type="curve"/>
      <point x="429" y="299"/>
      <point x="421" y="232"/>
      <point x="421" y="135" type="curve" smooth="yes"/>
      <point x="421" y="130" type="line" smooth="yes"/>
      <point x="421" y="24"/>
      <point x="452" y="-3"/>
      <point x="497" y="-3" type="curve" smooth="yes"/>
      <point x="507" y="-3"/>
      <point x="515" y="-2"/>
    </contour>
    <contour>
      <point x="128" y="730" type="move" name="top"/>
    </contour>
  </outline>
</glyph>
<glyph name="i" format="1">
  <advance width="350"/>
  <unicode hex="0069"/>
  <outline>
    <contour>
      <point x="38" y="532" type="curve"/>
      <point x="37" y="526"/>
      <point x="36" y="516"/>
      <point x="36" y="507" type="curve" smooth="yes"/>
      <point x="36" y="468"/>
      <point x="48" y="451"/>
      <point x="66" y="451" type="curve" smooth="yes"/>
      <point x="81" y="451"/>
      <point x="117" y="462"/>
      <point x="185" y="462" type="curve"/>
      <point x="185" y="510"/>
      <point x="184" y="540"/>
      <point x="156" y="540" type="curve" smooth="yes"/>
      <point x="122" y="540"/>
      <point x="85" y="538"/>
    </contour>
    <contour>
      <point x="250" y="-4" type="curve"/>
      <point x="241" y="30"/>
      <point x="238" y="55"/>
      <point x="238" y="101" type="curve" smooth="yes"/>
      <point x="238" y="505" type="line" smooth="yes"/>
      <point x="238" y="528"/>
      <point x="218" y="540"/>
      <point x="166" y="540" type="curve" smooth="yes"/>
      <point x="156" y="540" type="line"/>
      <point x="156" y="59" type="line" smooth="yes"/>
      <point x="156" y="4"/>
      <point x="179" y="-9"/>
      <point x="219" y="-9" type="curve" smooth="yes"/>
      <point x="230" y="-9"/>
      <point x="240" y="-7"/>
    </contour>
    <contour>
      <point x="252" y="631" type="curve"/>
      <point x="252" y="693" type="line" smooth="yes"/>
      <point x="252" y="725"/>
      <point x="225" y="736"/>
      <point x="186" y="736" type="curve" smooth="yes"/>
      <point x="170" y="736"/>
      <point x="154" y="735"/>
      <point x="141" y="732" type="curve"/>
      <point x="141" y="671" type="line" smooth="yes"/>
      <point x="141" y="639"/>
      <point x="168" y="627"/>
      <point x="207" y="627" type="curve" smooth="yes"/>
      <point x="222" y="627"/>
      <point x="239" y="629"/>
    </contour>
    <contour>
      <point x="251" y="-4" type="move" name="ogonek"/>
    </contour>
    <contour>
      <point x="200" y="-1" type="move" name="bottom"/>
    </contour>
  </outline>
</glyph>
<glyph name="j" format="1">
  <advance width="350"/>
  <unicode hex="006A"/>
  <outline>
    <contour>
      <point x="46" y="532" type="curve"/>
      <point x="44" y="525"/>
      <point x="44" y="516"/>
      <point x="44" y="507" type="curve" smooth="yes"/>
      <point x="44" y="467"/>
      <point x="55" y="450"/>
      <point x="73" y="450" type="curve" smooth="yes"/>
      <point x="88" y="450"/>
      <point x="144" y="462"/>
      <point x="207" y="462" type="curve"/>
      <point x="207" y="515"/>
      <point x="201" y="540"/>
      <point x="178" y="540" type="curve" smooth="yes"/>
      <point x="149" y="540"/>
      <point x="85" y="535"/>
    </contour>
    <contour>
      <point x="259" y="-45" type="curve" smooth="yes"/>
      <point x="259" y="502" type="line" smooth="yes"/>
      <point x="259" y="512"/>
      <point x="257" y="517"/>
      <point x="251" y="523" type="curve" smooth="yes"/>
      <point x="239" y="535"/>
      <point x="212" y="540"/>
      <point x="185" y="540" type="curve" smooth="yes"/>
      <point x="178" y="540" type="line"/>
      <point x="178" y="-30" type="line" smooth="yes"/>
      <point x="178" y="-110"/>
      <point x="166" y="-150"/>
      <point x="125" y="-194" type="curve"/>
      <point x="176" y="-211"/>
      <point x="259" y="-135"/>
    </contour>
    <contour>
      <point x="95" y="-169" type="curve" smooth="yes"/>
      <point x="61" y="-169"/>
      <point x="43" y="-163"/>
      <point x="17" y="-148" type="curve"/>
      <point x="13" y="-148" type="line"/>
      <point x="10" y="-155"/>
      <point x="9" y="-163"/>
      <point x="9" y="-174" type="curve" smooth="yes"/>
      <point x="9" y="-196"/>
      <point x="14" y="-218"/>
      <point x="26" y="-230" type="curve" smooth="yes"/>
      <point x="40" y="-243"/>
      <point x="65" y="-250"/>
      <point x="96" y="-250" type="curve" smooth="yes"/>
      <point x="200" y="-250"/>
      <point x="259" y="-163"/>
      <point x="259" y="-45" type="curve" smooth="yes"/>
      <point x="259" y="-21"/>
      <point x="247" y="-17"/>
      <point x="235" y="-17" type="curve"/>
      <point x="215" y="-114"/>
      <point x="165" y="-169"/>
    </contour>
    <contour>
      <point x="269" y="631" type="curve"/>
      <point x="269" y="693" type="line" smooth="yes"/>
      <point x="269" y="725"/>
      <point x="243" y="736"/>
      <point x="203" y="736" type="curve" smooth="yes"/>
      <point x="188" y="736"/>
      <point x="171" y="735"/>
      <point x="158" y="732" type="curve"/>
      <point x="158" y="671" type="line" smooth="yes"/>
      <point x="158" y="639"/>
      <point x="185" y="627"/>
      <point x="224" y="627" type="curve" smooth="yes"/>
      <point x="240" y="627"/>
      <point x="256" y="629"/>
    </contour>
  </outline>
</glyph>
<glyph name="l" format="1">
  <advance width="300"/>
  <unicode hex="006C"/>
  <outline>
    <contour>
      <point x="86" y="662" type="curve"/>
      <point x="86" y="128" type="line" smooth="yes"/>
      <point x="86" y="53"/>
      <point x="147" y="12"/>
      <point x="196" y="24" type="curve"/>
      <point x="172" y="63"/>
      <point x="169" y="93"/>
      <point x="169" y="158" type="curve" smooth="yes"/>
      <point x="169" y="671" type="line" smooth="yes"/>
      <point x="169" y="705"/>
      <point x="166" y="725"/>
      <point x="151" y="740" type="curve" smooth="yes"/>
      <point x="137" y="754"/>
      <point x="120" y="758"/>
      <point x="98" y="758" type="curve" smooth="yes"/>
      <point x="91" y="758"/>
      <point x="82" y="757"/>
      <point x="74" y="755" type="curve"/>
      <point x="83" y="725"/>
      <point x="86" y="706"/>
    </contour>
    <contour>
      <point x="279" y="91" type="curve"/>
      <point x="275" y="91" type="line"/>
      <point x="261" y="79"/>
      <point x="242" y="71"/>
      <point x="216" y="71" type="curve" smooth="yes"/>
      <point x="170" y="71"/>
      <point x="146" y="99"/>
      <point x="140" y="161" type="curve"/>
      <point x="104" y="161"/>
      <point x="86" y="151"/>
      <point x="86" y="128" type="curve" smooth="yes"/>
      <point x="86" y="42"/>
      <point x="126" y="-10"/>
      <point x="202" y="-10" type="curve" smooth="yes"/>
      <point x="208" y="-10" type="line" smooth="yes"/>
      <point x="231" y="-10"/>
      <point x="253" y="-5"/>
      <point x="266" y="8" type="curve" smooth="yes"/>
      <point x="277" y="19"/>
      <point x="282" y="31"/>
      <point x="282" y="63" type="curve" smooth="yes"/>
      <point x="282" y="73"/>
      <point x="281" y="83"/>
    </contour>
    <contour>
      <point x="328" y="711" type="move" name="caronslovak"/>
    </contour>
    <contour>
      <point x="127" y="735" type="move" name="top"/>
    </contour>
    <contour>
      <point x="328" y="400" type="move" name="dot"/>
    </contour>
    <contour>
      <point x="178" y="-1" type="move" name="bottom"/>
    </contour>
  </outline>
</glyph>
<glyph name="m" format="1">
  <advance width="850"/>
  <unicode hex="006D"/>
  <outline>
    <contour>
      <point x="173" y="-4" type="curve"/>
      <point x="173" y="449" type="line" smooth="yes"/>
      <point x="173" y="484"/>
      <point x="170" y="504"/>
      <point x="155" y="518" type="curve" smooth="yes"/>
      <point x="142" y="532"/>
      <point x="118" y="536"/>
      <point x="102" y="536" type="curve" smooth="yes"/>
      <point x="94" y="536"/>
      <point x="85" y="535"/>
      <point x="77" y="532" type="curve"/>
      <point x="86" y="503"/>
      <point x="89" y="484"/>
      <point x="89" y="439" type="curve" smooth="yes"/>
      <point x="89" y="29" type="line" smooth="yes"/>
      <point x="89" y="0"/>
      <point x="115" y="-6"/>
      <point x="148" y="-6" type="curve" smooth="yes"/>
      <point x="158" y="-6"/>
      <point x="167" y="-5"/>
    </contour>
    <contour>
      <point x="347" y="542" type="curve" smooth="yes"/>
      <point x="257" y="542"/>
      <point x="188" y="457"/>
      <point x="158" y="365" type="curve" smooth="yes"/>
      <point x="146" y="323"/>
      <point x="141" y="287"/>
      <point x="159" y="250" type="curve"/>
      <point x="201" y="390"/>
      <point x="264" y="455"/>
      <point x="327" y="455" type="curve" smooth="yes"/>
      <point x="372" y="455"/>
      <point x="398" y="421"/>
      <point x="408" y="354" type="curve"/>
      <point x="452" y="355"/>
      <point x="467" y="374"/>
      <point x="467" y="393" type="curve" smooth="yes"/>
      <point x="467" y="469"/>
      <point x="420" y="542"/>
    </contour>
    <contour>
      <point x="467" y="0" type="curve"/>
      <point x="467" y="393" type="line"/>
      <point x="467" y="423"/>
      <point x="448" y="439"/>
      <point x="401" y="438" type="curve"/>
      <point x="388" y="308"/>
      <point x="380" y="218"/>
      <point x="380" y="128" type="curve" smooth="yes"/>
      <point x="380" y="123" type="line" smooth="yes"/>
      <point x="380" y="17"/>
      <point x="404" y="-4"/>
      <point x="444" y="-4" type="curve" smooth="yes"/>
      <point x="454" y="-4"/>
      <point x="460" y="-3"/>
    </contour>
    <contour>
      <point x="641" y="542" type="curve" smooth="yes"/>
      <point x="551" y="542"/>
      <point x="480" y="458"/>
      <point x="451" y="366" type="curve" smooth="yes"/>
      <point x="439" y="324"/>
      <point x="434" y="287"/>
      <point x="452" y="250" type="curve"/>
      <point x="493" y="390"/>
      <point x="558" y="455"/>
      <point x="621" y="455" type="curve" smooth="yes"/>
      <point x="665" y="455"/>
      <point x="691" y="421"/>
      <point x="702" y="354" type="curve"/>
      <point x="746" y="355"/>
      <point x="761" y="374"/>
      <point x="761" y="393" type="curve" smooth="yes"/>
      <point x="761" y="469"/>
      <point x="713" y="542"/>
    </contour>
    <contour>
      <point x="775" y="0" type="curve"/>
      <point x="764" y="48"/>
      <point x="761" y="83"/>
      <point x="761" y="135" type="curve" smooth="yes"/>
      <point x="761" y="393" type="line"/>
      <point x="761" y="425"/>
      <point x="742" y="443"/>
      <point x="694" y="442" type="curve"/>
      <point x="681" y="299"/>
      <point x="673" y="232"/>
      <point x="673" y="135" type="curve" smooth="yes"/>
      <point x="673" y="130" type="line" smooth="yes"/>
      <point x="673" y="24"/>
      <point x="704" y="-3"/>
      <point x="749" y="-3" type="curve" smooth="yes"/>
      <point x="759" y="-3"/>
      <point x="767" y="-2"/>
    </contour>
  </outline>
</glyph>
<glyph name="n" format="1">
  <advance width="600"/>
  <unicode hex="006E"/>
  <outline>
    <contour>
      <point x="171" y="-3" type="curve"/>
      <point x="171" y="429" type="line" smooth="yes"/>
      <point x="171" y="472"/>
      <point x="165" y="500"/>
      <point x="147" y="518" type="curve" smooth="yes"/>
      <point x="133" y="533"/>
      <point x="117" y="536"/>
      <point x="100" y="536" type="curve" smooth="yes"/>
      <point x="92" y="536"/>
      <point x="85" y="535"/>
      <point x="77" y="533" type="curve"/>
      <point x="86" y="503"/>
      <point x="89" y="485"/>
      <point x="89" y="440" type="curve" smooth="yes"/>
      <point x="89" y="30" type="line" smooth="yes"/>
      <point x="89" y="1"/>
      <point x="114" y="-5"/>
      <point x="146" y="-5" type="curve" smooth="yes"/>
      <point x="156" y="-5"/>
      <point x="165" y="-5"/>
    </contour>
    <contour>
      <point x="389" y="542" type="curve" smooth="yes"/>
      <point x="298" y="542"/>
      <point x="210" y="450"/>
      <point x="161" y="334" type="curve" smooth="yes"/>
      <point x="145" y="285"/>
      <point x="144" y="240"/>
      <point x="162" y="192" type="curve"/>
      <point x="207" y="352"/>
      <point x="291" y="455"/>
      <point x="371" y="455" type="curve" smooth="yes"/>
      <point x="413" y="455"/>
      <point x="439" y="421"/>
      <point x="450" y="354" type="curve"/>
      <point x="494" y="355"/>
      <point x="509" y="374"/>
      <point x="509" y="393" type="curve" smooth="yes"/>
      <point x="509" y="469"/>
      <point x="462" y="542"/>
    </contour>
    <contour>
      <point x="523" y="0" type="curve"/>
      <point x="512" y="48"/>
      <point x="509" y="83"/>
      <point x="509" y="135" type="curve" smooth="yes"/>
      <point x="509" y="393" type="line"/>
      <point x="509" y="425"/>
      <point x="490" y="443"/>
      <point x="442" y="442" type="curve"/>
      <point x="429" y="299"/>
      <point x="421" y="232"/>
      <point x="421" y="135" type="curve" smooth="yes"/>
      <point x="421" y="130" type="line" smooth="yes"/>
      <point x="421" y="24"/>
      <point x="452" y="-3"/>
      <point x="497" y="-3" type="curve" smooth="yes"/>
      <point x="507" y="-3"/>
      <point x="515" y="-2"/>
    </contour>
    <contour>
      <point x="79" y="711" type="move" name="caronslovak"/>
    </contour>
    <contour>
      <point x="300" y="541" type="move" name="top"/>
    </contour>
    <contour>
      <point x="301" y="-1" type="move" name="bottom"/>
    </contour>
  </outline>
</glyph>
<glyph name="p" format="1">
  <advance width="600"/>
  <unicode hex="0070"/>
  <outline>
    <contour>
      <point x="177" y="-214" type="curve"/>
      <point x="177" y="418" type="line" smooth="yes"/>
      <point x="177" y="471"/>
      <point x="172" y="498"/>
      <point x="153" y="517" type="curve" smooth="yes"/>
      <point x="139" y="531"/>
      <point x="123" y="536"/>
      <point x="107" y="536" type="curve"/>
      <point x="99" y="536"/>
      <point x="92" y="535"/>
      <point x="84" y="532" type="curve"/>
      <point x="93" y="503"/>
      <point x="96" y="484"/>
      <point x="96" y="439" type="curve" smooth="yes"/>
      <point x="96" y="-182" type="line" smooth="yes"/>
      <point x="96" y="-211"/>
      <point x="120" y="-217"/>
      <point x="149" y="-217" type="curve"/>
      <point x="160" y="-217"/>
      <point x="170" y="-216"/>
    </contour>
    <contour>
      <point x="378" y="541" type="curve" smooth="yes"/>
      <point x="288" y="541"/>
      <point x="200" y="462"/>
      <point x="165" y="352" type="curve" smooth="yes"/>
      <point x="153" y="313"/>
      <point x="156" y="270"/>
      <point x="169" y="242" type="curve"/>
      <point x="231" y="401"/>
      <point x="297" y="456"/>
      <point x="376" y="456" type="curve" smooth="yes"/>
      <point x="425" y="456"/>
      <point x="468" y="407"/>
      <point x="493" y="318" type="curve"/>
      <point x="525" y="320"/>
      <point x="536" y="327"/>
      <point x="536" y="335" type="curve" smooth="yes"/>
      <point x="536" y="457"/>
      <point x="471" y="541"/>
    </contour>
    <contour>
      <point x="320" y="-11" type="curve" smooth="yes"/>
      <point x="446" y="-11"/>
      <point x="536" y="88"/>
      <point x="536" y="317" type="curve" smooth="yes"/>
      <point x="536" y="335" type="line" smooth="yes"/>
      <point x="536" y="388"/>
      <point x="500" y="470"/>
      <point x="454" y="470" type="curve" smooth="yes"/>
      <point x="439" y="470"/>
      <point x="429" y="464"/>
      <point x="427" y="447" type="curve"/>
      <point x="449" y="407"/>
      <point x="453" y="372"/>
      <point x="453" y="320" type="curve" smooth="yes"/>
      <point x="453" y="310" type="line" smooth="yes"/>
      <point x="453" y="151"/>
      <point x="406" y="69"/>
      <point x="307" y="69" type="curve" smooth="yes"/>
      <point x="245" y="69"/>
      <point x="211" y="93"/>
      <point x="167" y="142" type="curve"/>
      <point x="159" y="132"/>
      <point x="156" y="108"/>
      <point x="162" y="94" type="curve" smooth="yes"/>
      <point x="170" y="45"/>
      <point x="239" y="-11"/>
    </contour>
  </outline>
</glyph>
<glyph name="q" format="1">
  <advance width="600"/>
  <unicode hex="0071"/>
  <outline>
    <contour>
      <point x="280" y="541" type="curve" smooth="yes"/>
      <point x="154" y="541"/>
      <point x="64" y="443"/>
      <point x="64" y="214" type="curve" smooth="yes"/>
      <point x="64" y="195" type="line" smooth="yes"/>
      <point x="64" y="142"/>
      <point x="100" y="61"/>
      <point x="146" y="61" type="curve" smooth="yes"/>
      <point x="161" y="61"/>
      <point x="171" y="66"/>
      <point x="173" y="83" type="curve"/>
      <point x="151" y="123"/>
      <point x="147" y="159"/>
      <point x="147" y="211" type="curve" smooth="yes"/>
      <point x="147" y="220" type="line" smooth="yes"/>
      <point x="147" y="379"/>
      <point x="194" y="462"/>
      <point x="293" y="462" type="curve" smooth="yes"/>
      <point x="355" y="462"/>
      <point x="389" y="437"/>
      <point x="433" y="389" type="curve"/>
      <point x="443" y="398"/>
      <point x="449" y="421"/>
      <point x="444" y="434" type="curve" smooth="yes"/>
      <point x="436" y="484"/>
      <point x="363" y="541"/>
    </contour>
    <contour>
      <point x="222" y="-11" type="curve" smooth="yes"/>
      <point x="312" y="-11"/>
      <point x="400" y="68"/>
      <point x="435" y="178" type="curve" smooth="yes"/>
      <point x="447" y="218"/>
      <point x="444" y="260"/>
      <point x="431" y="289" type="curve"/>
      <point x="369" y="129"/>
      <point x="303" y="74"/>
      <point x="224" y="74" type="curve" smooth="yes"/>
      <point x="175" y="74"/>
      <point x="132" y="124"/>
      <point x="107" y="212" type="curve"/>
      <point x="75" y="211"/>
      <point x="64" y="203"/>
      <point x="64" y="195" type="curve" smooth="yes"/>
      <point x="64" y="73"/>
      <point x="129" y="-11"/>
    </contour>
    <contour>
      <point x="504" y="-214" type="curve"/>
      <point x="504" y="439" type="line" smooth="yes"/>
      <point x="504" y="483"/>
      <point x="507" y="502"/>
      <point x="516" y="532" type="curve"/>
      <point x="508" y="534"/>
      <point x="499" y="535"/>
      <point x="492" y="535" type="curve" smooth="yes"/>
      <point x="475" y="535"/>
      <point x="461" y="531"/>
      <point x="447" y="517" type="curve" smooth="yes"/>
      <point x="431" y="501"/>
      <point x="423" y="471"/>
      <point x="423" y="423" type="curve" smooth="yes"/>
      <point x="423" y="-166" type="line" smooth="yes"/>
      <point x="423" y="-204"/>
      <point x="448" y="-217"/>
      <point x="476" y="-217" type="curve" smooth="yes"/>
      <point x="488" y="-217"/>
      <point x="497" y="-216"/>
    </contour>
  </outline>
</glyph>
<glyph name="t" format="1">
  <advance width="500"/>
  <unicode hex="0074"/>
  <outline>
    <contour>
      <point x="142" y="700" type="curve"/>
      <point x="142" y="147" type="line" smooth="yes"/>
      <point x="142" y="51"/>
      <point x="223" y="-5"/>
      <point x="270" y="24" type="curve"/>
      <point x="237" y="56"/>
      <point x="223" y="100"/>
      <point x="223" y="166" type="curve" smooth="yes"/>
      <point x="223" y="669" type="line" smooth="yes"/>
      <point x="223" y="697"/>
      <point x="198" y="704"/>
      <point x="171" y="704" type="curve" smooth="yes"/>
      <point x="160" y="704"/>
      <point x="150" y="703"/>
    </contour>
    <contour>
      <point x="432" y="106" type="curve"/>
      <point x="428" y="106" type="line"/>
      <point x="390" y="77"/>
      <point x="357" y="64"/>
      <point x="302" y="64" type="curve" smooth="yes"/>
      <point x="238" y="64"/>
      <point x="202" y="89"/>
      <point x="171" y="172" type="curve"/>
      <point x="150" y="171"/>
      <point x="142" y="163"/>
      <point x="142" y="147" type="curve" smooth="yes"/>
      <point x="142" y="46"/>
      <point x="208" y="-17"/>
      <point x="299" y="-17" type="curve" smooth="yes"/>
      <point x="309" y="-17" type="line" smooth="yes"/>
      <point x="361" y="-17"/>
      <point x="397" y="-2"/>
      <point x="414" y="15" type="curve" smooth="yes"/>
      <point x="428" y="29"/>
      <point x="435" y="53"/>
      <point x="435" y="80" type="curve" smooth="yes"/>
      <point x="435" y="90"/>
      <point x="434" y="98"/>
    </contour>
    <contour>
      <point x="42" y="530" type="line"/>
      <point x="42" y="526"/>
      <point x="42" y="522"/>
      <point x="42" y="518" type="curve" smooth="yes"/>
      <point x="42" y="491"/>
      <point x="47" y="474"/>
      <point x="58" y="463" type="curve" smooth="yes"/>
      <point x="68" y="453"/>
      <point x="81" y="449"/>
      <point x="113" y="449" type="curve"/>
      <point x="431" y="449" type="line"/>
      <point x="432" y="456"/>
      <point x="433" y="466"/>
      <point x="433" y="476" type="curve" smooth="yes"/>
      <point x="433" y="511"/>
      <point x="424" y="530"/>
      <point x="394" y="530" type="curve"/>
    </contour>
    <contour>
      <point x="388" y="711" type="move" name="caronslovak"/>
    </contour>
    <contour>
      <point x="273" y="-1" type="move" name="bottom"/>
    </contour>
  </outline>
</glyph>
<glyph name="u" format="1">
  <advance width="600"/>
  <unicode hex="0075"/>
  <outline>
    <contour>
      <point x="427" y="534" type="curve"/>
      <point x="427" y="102" type="line" smooth="yes"/>
      <point x="427" y="59"/>
      <point x="434" y="31"/>
      <point x="451" y="13" type="curve" smooth="yes"/>
      <point x="466" y="-1"/>
      <point x="481" y="-5"/>
      <point x="498" y="-5" type="curve" smooth="yes"/>
      <point x="506" y="-5"/>
      <point x="514" y="-4"/>
      <point x="521" y="-2" type="curve"/>
      <point x="512" y="28"/>
      <point x="510" y="46"/>
      <point x="510" y="91" type="curve" smooth="yes"/>
      <point x="510" y="501" type="line" smooth="yes"/>
      <point x="510" y="530"/>
      <point x="485" y="536"/>
      <point x="452" y="536" type="curve" smooth="yes"/>
      <point x="443" y="536"/>
      <point x="434" y="536"/>
    </contour>
    <contour>
      <point x="209" y="-11" type="curve" smooth="yes"/>
      <point x="301" y="-11"/>
      <point x="388" y="81"/>
      <point x="437" y="197" type="curve" smooth="yes"/>
      <point x="454" y="246"/>
      <point x="454" y="291"/>
      <point x="436" y="339" type="curve"/>
      <point x="392" y="179"/>
      <point x="308" y="76"/>
      <point x="227" y="76" type="curve" smooth="yes"/>
      <point x="185" y="76"/>
      <point x="159" y="110"/>
      <point x="149" y="177" type="curve"/>
      <point x="104" y="176"/>
      <point x="89" y="157"/>
      <point x="89" y="138" type="curve" smooth="yes"/>
      <point x="89" y="62"/>
      <point x="137" y="-11"/>
    </contour>
    <contour>
      <point x="75" y="531" type="curve"/>
      <point x="86" y="483"/>
      <point x="89" y="448"/>
      <point x="89" y="396" type="curve" smooth="yes"/>
      <point x="89" y="138" type="line"/>
      <point x="89" y="106"/>
      <point x="109" y="88"/>
      <point x="156" y="89" type="curve"/>
      <point x="169" y="232"/>
      <point x="177" y="299"/>
      <point x="177" y="396" type="curve" smooth="yes"/>
      <point x="177" y="401" type="line" smooth="yes"/>
      <point x="177" y="507"/>
      <point x="146" y="534"/>
      <point x="102" y="534" type="curve" smooth="yes"/>
      <point x="92" y="534"/>
      <point x="84" y="533"/>
    </contour>
    <contour>
      <point x="300" y="541" type="move" name="top"/>
    </contour>
    <contour>
      <point x="522" y="-2" type="move" name="ogonek"/>
    </contour>
    <contour>
      <point x="301" y="-1" type="move" name="bottom"/>
    </contour>
  </outline>
</glyph>
<glyph name="v" format="1">
  <advance width="600"/>
  <unicode hex="0076"/>
  <outline>
    <contour>
      <point x="462" y="537" type="curve" smooth="yes"/>
      <point x="448" y="537" type="line"/>
      <point x="424" y="259"/>
      <point x="388" y="142"/>
      <point x="277" y="47" type="curve"/>
      <point x="258" y="31"/>
      <point x="276" y="-10"/>
      <point x="304" y="-10" type="curve"/>
      <point x="336" y="-10" type="line"/>
      <point x="453" y="83"/>
      <point x="508" y="245"/>
      <point x="529" y="495" type="curve"/>
      <point x="531" y="518"/>
      <point x="501" y="537"/>
    </contour>
    <contour>
      <point x="82" y="537" type="curve" smooth="yes"/>
      <point x="67" y="537" type="line"/>
      <point x="90" y="268"/>
      <point x="136" y="120"/>
      <point x="235" y="21" type="curve"/>
      <point x="259" y="-3"/>
      <point x="280" y="-10"/>
      <point x="301" y="-10" type="curve" smooth="yes"/>
      <point x="309" y="-10" type="line" smooth="yes"/>
      <point x="333" y="-10"/>
      <point x="348" y="7"/>
      <point x="361" y="35" type="curve"/>
      <point x="352" y="35"/>
      <point x="346" y="35"/>
      <point x="342" y="35" type="curve" smooth="yes"/>
      <point x="336" y="35"/>
      <point x="329" y="37"/>
      <point x="322" y="43" type="curve"/>
      <point x="217" y="137"/>
      <point x="175" y="262"/>
      <point x="154" y="504" type="curve"/>
      <point x="153" y="526"/>
      <point x="120" y="537"/>
    </contour>
  </outline>
</glyph>
<glyph name="w" format="1">
  <advance width="800"/>
  <unicode hex="0077"/>
  <outline>
    <contour>
      <point x="60" y="539" type="curve"/>
      <point x="76" y="244"/>
      <point x="111" y="119"/>
      <point x="173" y="34" type="curve"/>
      <point x="197" y="3"/>
      <point x="215" y="-10"/>
      <point x="235" y="-10" type="curve"/>
      <point x="252" y="-10" type="line" smooth="yes"/>
      <point x="260" y="-10"/>
      <point x="268" y="17"/>
      <point x="268" y="34" type="curve"/>
      <point x="199" y="115"/>
      <point x="170" y="185"/>
      <point x="148" y="501" type="curve"/>
      <point x="147" y="516"/>
      <point x="145" y="521"/>
      <point x="139" y="526" type="curve" smooth="yes"/>
      <point x="130" y="536"/>
      <point x="106" y="540"/>
      <point x="80" y="540" type="curve"/>
      <point x="74" y="540"/>
      <point x="66" y="540"/>
    </contour>
    <contour>
      <point x="360" y="506" type="curve"/>
      <point x="330" y="261"/>
      <point x="293" y="139"/>
      <point x="225" y="42" type="curve"/>
      <point x="212" y="25"/>
      <point x="230" y="-10"/>
      <point x="247" y="-10" type="curve"/>
      <point x="270" y="-10" type="line"/>
      <point x="347" y="93"/>
      <point x="393" y="253"/>
      <point x="420" y="457" type="curve"/>
      <point x="423" y="478"/>
      <point x="415" y="507"/>
      <point x="382" y="507" type="curve" smooth="yes"/>
      <point x="374" y="507"/>
      <point x="367" y="507"/>
    </contour>
    <contour>
      <point x="372" y="503" type="curve"/>
      <point x="400" y="281"/>
      <point x="450" y="103"/>
      <point x="516" y="12" type="curve"/>
      <point x="531" y="-7"/>
      <point x="548" y="-10"/>
      <point x="566" y="-10" type="curve"/>
      <point x="581" y="-10" type="line" smooth="yes"/>
      <point x="583" y="-10"/>
      <point x="584" y="17"/>
      <point x="584" y="33" type="curve"/>
      <point x="507" y="123"/>
      <point x="480" y="258"/>
      <point x="448" y="470" type="curve"/>
      <point x="444" y="499"/>
      <point x="421" y="507"/>
      <point x="382" y="507" type="curve" smooth="yes"/>
      <point x="377" y="507"/>
      <point x="374" y="506"/>
    </contour>
    <contour>
      <point x="663" y="539" type="curve"/>
      <point x="636" y="216"/>
      <point x="616" y="154"/>
      <point x="542" y="48" type="curve"/>
      <point x="530" y="32"/>
      <point x="546" y="-10"/>
      <point x="574" y="-10" type="curve"/>
      <point x="594" y="-10" type="line"/>
      <point x="691" y="109"/>
      <point x="721" y="253"/>
      <point x="744" y="494" type="curve"/>
      <point x="745" y="507"/>
      <point x="743" y="514"/>
      <point x="736" y="521" type="curve" smooth="yes"/>
      <point x="726" y="531"/>
      <point x="709" y="540"/>
      <point x="683" y="540" type="curve"/>
      <point x="676" y="540"/>
      <point x="669" y="540"/>
    </contour>
    <contour>
      <point x="402" y="541" type="move" name="top"/>
    </contour>
  </outline>
</glyph>
<glyph name="x" format="1">
  <advance width="600"/>
  <unicode hex="0078"/>
  <outline>
    <contour>
      <point x="491" y="-10" type="curve" smooth="yes"/>
      <point x="519" y="-10"/>
      <point x="533" y="-6"/>
      <point x="550" y="6" type="curve"/>
      <point x="472" y="73"/>
      <point x="401" y="147"/>
      <point x="339" y="226" type="curve" smooth="yes"/>
      <point x="331" y="237"/>
      <point x="323" y="248"/>
      <point x="315" y="259" type="curve" smooth="yes"/>
      <point x="257" y="335"/>
      <point x="207" y="419"/>
      <point x="166" y="510" type="curve" smooth="yes"/>
      <point x="157" y="528"/>
      <point x="135" y="536"/>
      <point x="102" y="536" type="curve" smooth="yes"/>
      <point x="84" y="536"/>
      <point x="70" y="534"/>
      <point x="56" y="531" type="curve"/>
      <point x="112" y="408"/>
      <point x="183" y="295"/>
      <point x="262" y="195" type="curve" smooth="yes"/>
      <point x="271" y="184"/>
      <point x="280" y="173"/>
      <point x="288" y="162" type="curve" smooth="yes"/>
      <point x="332" y="110"/>
      <point x="380" y="59"/>
      <point x="428" y="15" type="curve" smooth="yes"/>
      <point x="444" y="-2"/>
      <point x="462" y="-10"/>
    </contour>
    <contour>
      <point x="471" y="537" type="curve" smooth="yes"/>
      <point x="458" y="537" type="line"/>
      <point x="411" y="425"/>
      <point x="354" y="337"/>
      <point x="292" y="259" type="curve" smooth="yes"/>
      <point x="282" y="248"/>
      <point x="273" y="236"/>
      <point x="263" y="225" type="curve" smooth="yes"/>
      <point x="209" y="163"/>
      <point x="151" y="105"/>
      <point x="80" y="47" type="curve" smooth="yes"/>
      <point x="66" y="36"/>
      <point x="64" y="30"/>
      <point x="64" y="23" type="curve" smooth="yes"/>
      <point x="64" y="4"/>
      <point x="95" y="-10"/>
      <point x="134" y="-10" type="curve" smooth="yes"/>
      <point x="140" y="-10" type="line"/>
      <point x="200" y="44"/>
      <point x="256" y="101"/>
      <point x="310" y="161" type="curve" smooth="yes"/>
      <point x="321" y="172"/>
      <point x="330" y="183"/>
      <point x="339" y="194" type="curve" smooth="yes"/>
      <point x="416" y="285"/>
      <point x="480" y="378"/>
      <point x="529" y="488" type="curve" smooth="yes"/>
      <point x="533" y="497"/>
      <point x="534" y="502"/>
      <point x="534" y="509" type="curve" smooth="yes"/>
      <point x="534" y="528"/>
      <point x="511" y="537"/>
    </contour>
  </outline>
</glyph>
<glyph name="z" format="1">
  <advance width="550"/>
  <unicode hex="007A"/>
  <outline>
    <contour>
      <point x="64" y="530" type="line"/>
      <point x="63" y="525"/>
      <point x="63" y="518"/>
      <point x="63" y="511" type="curve" smooth="yes"/>
      <point x="63" y="486"/>
      <point x="68" y="469"/>
      <point x="79" y="458" type="curve" smooth="yes"/>
      <point x="85" y="452"/>
      <point x="91" y="449"/>
      <point x="101" y="449" type="curve" smooth="yes"/>
      <point x="355" y="449" type="line" smooth="yes"/>
      <point x="396" y="449"/>
      <point x="446" y="452"/>
      <point x="485" y="461" type="curve"/>
      <point x="485" y="465" type="line" smooth="yes"/>
      <point x="485" y="493"/>
      <point x="475" y="508"/>
      <point x="462" y="522" type="curve" smooth="yes"/>
      <point x="456" y="528"/>
      <point x="449" y="530"/>
      <point x="438" y="530" type="curve" smooth="yes"/>
    </contour>
    <contour>
      <point x="418" y="492" type="curve"/>
      <point x="343" y="350"/>
      <point x="215" y="190"/>
      <point x="63" y="73" type="curve"/>
      <point x="63" y="44"/>
      <point x="110" y="38"/>
      <point x="142" y="58" type="curve" smooth="yes"/>
      <point x="318" y="178"/>
      <point x="485" y="423"/>
      <point x="485" y="461" type="curve"/>
      <point x="485" y="483"/>
      <point x="460" y="492"/>
    </contour>
    <contour>
      <point x="482" y="0" type="line"/>
      <point x="484" y="7"/>
      <point x="485" y="17"/>
      <point x="485" y="27" type="curve"/>
      <point x="485" y="63"/>
      <point x="476" y="81"/>
      <point x="445" y="81" type="curve" smooth="yes"/>
      <point x="208" y="81" type="line" smooth="yes"/>
      <point x="158" y="81"/>
      <point x="110" y="79"/>
      <point x="63" y="73" type="curve"/>
      <point x="63" y="67" type="line" smooth="yes"/>
      <point x="63" y="40"/>
      <point x="68" y="20"/>
      <point x="81" y="7" type="curve" smooth="yes"/>
      <point x="86" y="2"/>
      <point x="91" y="0"/>
      <point x="99" y="0" type="curve" smooth="yes"/>
    </contour>
    <contour>
      <point x="274" y="541" type="move" name="top"/>
    </contour>
  </outline>
</glyph>
<glyph name="braceleft" format="1">
  <advance width="500"/>
  <unicode hex="007B"/>
  <outline>
    <contour>
      <point x="385" y="689" type="curve" smooth="yes"/>
      <point x="410" y="689"/>
      <point x="429" y="687"/>
      <point x="447" y="681" type="curve"/>
      <point x="451" y="681" type="line"/>
      <point x="453" y="690"/>
      <point x="455" y="697"/>
      <point x="455" y="709" type="curve"/>
      <point x="455" y="742"/>
      <point x="434" y="770"/>
      <point x="397" y="770" type="curve" smooth="yes"/>
      <point x="392" y="770" type="line" smooth="yes"/>
      <point x="269" y="770"/>
      <point x="178" y="730"/>
      <point x="178" y="655" type="curve" smooth="yes"/>
      <point x="178" y="651" type="line" smooth="yes"/>
      <point x="178" y="633"/>
      <point x="201" y="613"/>
      <point x="226" y="612" type="curve"/>
      <point x="246" y="671"/>
      <point x="304" y="689"/>
    </contour>
    <contour>
      <point x="307" y="458" type="curve" smooth="yes"/>
      <point x="307" y="550"/>
      <point x="246" y="610"/>
      <point x="246" y="649" type="curve" smooth="yes"/>
      <point x="246" y="667"/>
      <point x="251" y="680"/>
      <point x="261" y="697" type="curve"/>
      <point x="221" y="703"/>
      <point x="178" y="695"/>
      <point x="178" y="654" type="curve" smooth="yes"/>
      <point x="178" y="650" type="line" smooth="yes"/>
      <point x="178" y="593"/>
      <point x="229" y="545"/>
      <point x="229" y="464" type="curve" smooth="yes"/>
      <point x="229" y="391"/>
      <point x="178" y="338"/>
      <point x="60" y="338" type="curve" smooth="yes"/>
      <point x="55" y="338" type="line"/>
      <point x="55" y="327" type="line" smooth="yes"/>
      <point x="55" y="303"/>
      <point x="62" y="285"/>
      <point x="79" y="285" type="curve" smooth="yes"/>
      <point x="91" y="285" type="line" smooth="yes"/>
      <point x="213" y="285"/>
      <point x="307" y="345"/>
    </contour>
    <contour>
      <point x="307" y="140" type="curve" smooth="yes"/>
      <point x="307" y="255"/>
      <point x="215" y="315"/>
      <point x="92" y="315" type="curve" smooth="yes"/>
      <point x="72" y="315"/>
      <point x="63" y="324"/>
      <point x="55" y="330" type="curve"/>
      <point x="55" y="322" type="line" smooth="yes"/>
      <point x="55" y="289"/>
      <point x="66" y="261"/>
      <point x="88" y="261" type="curve" smooth="yes"/>
      <point x="91" y="261" type="line" smooth="yes"/>
      <point x="178" y="261"/>
      <point x="229" y="206"/>
      <point x="229" y="134" type="curve" smooth="yes"/>
      <point x="229" y="53"/>
      <point x="178" y="1"/>
      <point x="178" y="-56" type="curve" smooth="yes"/>
      <point x="178" y="-59" type="line" smooth="yes"/>
      <point x="178" y="-107"/>
      <point x="226" y="-112"/>
      <point x="265" y="-107" type="curve"/>
      <point x="249" y="-88"/>
      <point x="246" y="-73"/>
      <point x="246" y="-52" type="curve" smooth="yes"/>
      <point x="246" y="-14"/>
      <point x="307" y="50"/>
    </contour>
    <contour>
      <point x="382" y="-90" type="curve" smooth="yes"/>
      <point x="286" y="-90"/>
      <point x="240" y="-74"/>
      <point x="221" y="-11" type="curve"/>
      <point x="195" y="-15"/>
      <point x="178" y="-38"/>
      <point x="178" y="-57" type="curve" smooth="yes"/>
      <point x="178" y="-60" type="line" smooth="yes"/>
      <point x="178" y="-141"/>
      <point x="261" y="-172"/>
      <point x="396" y="-172" type="curve" smooth="yes"/>
      <point x="402" y="-172" type="line" smooth="yes"/>
      <point x="436" y="-172"/>
      <point x="454" y="-139"/>
      <point x="454" y="-89" type="curve"/>
      <point x="454" y="-81" type="line"/>
      <point x="450" y="-81" type="line"/>
      <point x="428" y="-87"/>
      <point x="410" y="-90"/>
    </contour>
  </outline>
</glyph>
<glyph name="bar" format="1">
  <advance width="300"/>
  <unicode hex="007C"/>
  <outline>
    <contour>
      <point x="103" y="759" type="curve"/>
      <point x="110" y="724"/>
      <point x="112" y="688"/>
      <point x="112" y="650" type="curve" smooth="yes"/>
      <point x="112" y="-124" type="line" smooth="yes"/>
      <point x="112" y="-151"/>
      <point x="137" y="-161"/>
      <point x="178" y="-161" type="curve" smooth="yes"/>
      <point x="186" y="-161"/>
      <point x="192" y="-161"/>
      <point x="197" y="-160" type="curve"/>
      <point x="197" y="700" type="line" smooth="yes"/>
      <point x="197" y="723"/>
      <point x="194" y="740"/>
      <point x="182" y="751" type="curve" smooth="yes"/>
      <point x="174" y="760"/>
      <point x="161" y="764"/>
      <point x="136" y="764" type="curve" smooth="yes"/>
      <point x="124" y="764"/>
      <point x="115" y="762"/>
    </contour>
  </outline>
</glyph>
<glyph name="braceright" format="1">
  <advance width="500"/>
  <unicode hex="007D"/>
  <outline>
    <contour>
      <point x="115" y="-91" type="curve" smooth="yes"/>
      <point x="90" y="-91"/>
      <point x="71" y="-89"/>
      <point x="53" y="-83" type="curve"/>
      <point x="49" y="-83" type="line"/>
      <point x="47" y="-92"/>
      <point x="45" y="-99"/>
      <point x="45" y="-111" type="curve"/>
      <point x="45" y="-144"/>
      <point x="66" y="-172"/>
      <point x="103" y="-172" type="curve" smooth="yes"/>
      <point x="108" y="-172" type="line" smooth="yes"/>
      <point x="231" y="-172"/>
      <point x="322" y="-132"/>
      <point x="322" y="-57" type="curve" smooth="yes"/>
      <point x="322" y="-53" type="line" smooth="yes"/>
      <point x="322" y="-35"/>
      <point x="299" y="-15"/>
      <point x="274" y="-14" type="curve"/>
      <point x="254" y="-73"/>
      <point x="196" y="-91"/>
    </contour>
    <contour>
      <point x="193" y="140" type="curve" smooth="yes"/>
      <point x="193" y="48"/>
      <point x="254" y="-12"/>
      <point x="254" y="-51" type="curve" smooth="yes"/>
      <point x="254" y="-69"/>
      <point x="249" y="-82"/>
      <point x="239" y="-99" type="curve"/>
      <point x="279" y="-105"/>
      <point x="322" y="-97"/>
      <point x="322" y="-56" type="curve" smooth="yes"/>
      <point x="322" y="-52" type="line" smooth="yes"/>
      <point x="322" y="5"/>
      <point x="271" y="53"/>
      <point x="271" y="134" type="curve" smooth="yes"/>
      <point x="271" y="207"/>
      <point x="322" y="260"/>
      <point x="440" y="260" type="curve" smooth="yes"/>
      <point x="445" y="260" type="line"/>
      <point x="445" y="271" type="line" smooth="yes"/>
      <point x="445" y="295"/>
      <point x="438" y="313"/>
      <point x="421" y="313" type="curve" smooth="yes"/>
      <point x="409" y="313" type="line" smooth="yes"/>
      <point x="287" y="313"/>
      <point x="193" y="253"/>
    </contour>
    <contour>
      <point x="193" y="458" type="curve" smooth="yes"/>
      <point x="193" y="343"/>
      <point x="285" y="283"/>
      <point x="408" y="283" type="curve" smooth="yes"/>
      <point x="428" y="283"/>
      <point x="437" y="274"/>
      <point x="445" y="268" type="curve"/>
      <point x="445" y="276" type="line" smooth="yes"/>
      <point x="445" y="309"/>
      <point x="434" y="337"/>
      <point x="412" y="337" type="curve" smooth="yes"/>
      <point x="409" y="337" type="line" smooth="yes"/>
      <point x="322" y="337"/>
      <point x="271" y="392"/>
      <point x="271" y="464" type="curve" smooth="yes"/>
      <point x="271" y="545"/>
      <point x="322" y="597"/>
      <point x="322" y="654" type="curve" smooth="yes"/>
      <point x="322" y="657" type="line" smooth="yes"/>
      <point x="322" y="705"/>
      <point x="274" y="710"/>
      <point x="235" y="705" type="curve"/>
      <point x="251" y="686"/>
      <point x="254" y="671"/>
      <point x="254" y="650" type="curve" smooth="yes"/>
      <point x="254" y="612"/>
      <point x="193" y="548"/>
    </contour>
    <contour>
      <point x="118" y="688" type="curve" smooth="yes"/>
      <point x="214" y="688"/>
      <point x="260" y="672"/>
      <point x="279" y="609" type="curve"/>
      <point x="305" y="613"/>
      <point x="322" y="636"/>
      <point x="322" y="655" type="curve" smooth="yes"/>
      <point x="322" y="658" type="line" smooth="yes"/>
      <point x="322" y="739"/>
      <point x="239" y="770"/>
      <point x="104" y="770" type="curve" smooth="yes"/>
      <point x="98" y="770" type="line" smooth="yes"/>
      <point x="64" y="770"/>
      <point x="46" y="737"/>
      <point x="46" y="687" type="curve"/>
      <point x="46" y="679" type="line"/>
      <point x="50" y="679" type="line"/>
      <point x="72" y="685"/>
      <point x="90" y="688"/>
    </contour>
  </outline>
</glyph>
<glyph name="exclamdown" format="1">
  <advance width="384"/>
  <unicode hex="00A1"/>
  <outline>
    <contour>
      <point x="157" y="279" type="line"/>
      <point x="147" y="205"/>
      <point x="140" y="120"/>
      <point x="140" y="47" type="curve"/>
      <point x="140" y="-126" type="line" smooth="yes"/>
      <point x="140" y="-162"/>
      <point x="166" y="-175"/>
      <point x="217" y="-175" type="curve" smooth="yes"/>
      <point x="231" y="-175"/>
      <point x="242" y="-174"/>
      <point x="253" y="-171" type="curve"/>
      <point x="246" y="-135"/>
      <point x="244" y="-100"/>
      <point x="244" y="-62" type="curve" smooth="yes"/>
      <point x="244" y="45" type="line"/>
      <point x="244" y="153"/>
      <point x="238" y="246"/>
      <point x="221" y="262" type="curve" smooth="yes"/>
      <point x="209" y="274"/>
      <point x="189" y="279"/>
      <point x="164" y="279" type="curve"/>
    </contour>
    <contour>
      <point x="117" y="530" type="curve"/>
      <point x="117" y="445" type="line" smooth="yes"/>
      <point x="117" y="402"/>
      <point x="154" y="385"/>
      <point x="208" y="385" type="curve" smooth="yes"/>
      <point x="230" y="385"/>
      <point x="251" y="389"/>
      <point x="267" y="396" type="curve"/>
      <point x="267" y="482" type="line" smooth="yes"/>
      <point x="267" y="525"/>
      <point x="230" y="542"/>
      <point x="176" y="542" type="curve" smooth="yes"/>
      <point x="154" y="542"/>
      <point x="134" y="538"/>
    </contour>
  </outline>
</glyph>
<glyph name="sterling" format="1">
  <advance width="600"/>
  <unicode hex="00A3"/>
  <outline>
    <contour>
      <point x="314" y="638" type="curve" smooth="yes"/>
      <point x="407" y="638"/>
      <point x="467" y="611"/>
      <point x="515" y="548" type="curve"/>
      <point x="519" y="548" type="line"/>
      <point x="524" y="564"/>
      <point x="525" y="576"/>
      <point x="525" y="595" type="curve" smooth="yes"/>
      <point x="525" y="625"/>
      <point x="520" y="643"/>
      <point x="499" y="664" type="curve" smooth="yes"/>
      <point x="469" y="694"/>
      <point x="403" y="719"/>
      <point x="314" y="719" type="curve" smooth="yes"/>
      <point x="171" y="719"/>
      <point x="85" y="647"/>
      <point x="85" y="544" type="curve" smooth="yes"/>
      <point x="85" y="536" type="line" smooth="yes"/>
      <point x="85" y="501"/>
      <point x="114" y="492"/>
      <point x="154" y="491" type="curve"/>
      <point x="154" y="584"/>
      <point x="203" y="638"/>
    </contour>
    <contour>
      <point x="85" y="536" type="curve" smooth="yes"/>
      <point x="85" y="404"/>
      <point x="192" y="300"/>
      <point x="192" y="168" type="curve" smooth="yes"/>
      <point x="192" y="101"/>
      <point x="156" y="68"/>
      <point x="92" y="68" type="curve" smooth="yes"/>
      <point x="76" y="68"/>
      <point x="65" y="69"/>
      <point x="54" y="77" type="curve"/>
      <point x="50" y="77" type="line"/>
      <point x="47" y="66"/>
      <point x="45" y="58"/>
      <point x="45" y="46" type="curve" smooth="yes"/>
      <point x="45" y="7"/>
      <point x="62" y="-15"/>
      <point x="105" y="-15" type="curve" smooth="yes"/>
      <point x="111" y="-15" type="line" smooth="yes"/>
      <point x="211" y="-15"/>
      <point x="268" y="56"/>
      <point x="268" y="157" type="curve" smooth="yes"/>
      <point x="268" y="296"/>
      <point x="166" y="405"/>
      <point x="166" y="540" type="curve" smooth="yes"/>
      <point x="166" y="567"/>
      <point x="171" y="591"/>
      <point x="185" y="619" type="curve"/>
      <point x="113" y="619"/>
      <point x="85" y="582"/>
    </contour>
    <contour>
      <point x="203" y="82" type="curve"/>
      <point x="293" y="17"/>
      <point x="366" y="-15"/>
      <point x="451" y="-15" type="curve" smooth="yes"/>
      <point x="460" y="-15" type="line" smooth="yes"/>
      <point x="526" y="-15"/>
      <point x="555" y="21"/>
      <point x="555" y="71" type="curve"/>
      <point x="555" y="92"/>
      <point x="550" y="110"/>
      <point x="544" y="123" type="curve"/>
      <point x="540" y="123" type="line"/>
      <point x="520" y="85"/>
      <point x="495" y="70"/>
      <point x="444" y="70" type="curve" smooth="yes"/>
      <point x="373" y="70"/>
      <point x="307" y="93"/>
      <point x="223" y="141" type="curve"/>
      <point x="207" y="132"/>
      <point x="197" y="106"/>
    </contour>
    <contour>
      <point x="50" y="366" type="line"/>
      <point x="50" y="362"/>
      <point x="50" y="357"/>
      <point x="50" y="353" type="curve" smooth="yes"/>
      <point x="50" y="323"/>
      <point x="55" y="305"/>
      <point x="66" y="294" type="curve" smooth="yes"/>
      <point x="72" y="287"/>
      <point x="81" y="284"/>
      <point x="99" y="284" type="curve" smooth="yes"/>
      <point x="448" y="284" type="line"/>
      <point x="449" y="293"/>
      <point x="450" y="303"/>
      <point x="450" y="311" type="curve" smooth="yes"/>
      <point x="450" y="347"/>
      <point x="441" y="366"/>
      <point x="411" y="366" type="curve" smooth="yes"/>
    </contour>
  </outline>
</glyph>
<glyph name="currency" format="1">
  <advance width="600"/>
  <unicode hex="00A4"/>
  <outline>
    <contour>
      <point x="241" y="415" type="curve"/>
      <point x="214" y="437"/>
      <point x="189" y="463"/>
      <point x="166" y="490" type="curve" smooth="yes"/>
      <point x="158" y="500"/>
      <point x="150" y="505"/>
      <point x="141" y="505" type="curve" smooth="yes"/>
      <point x="129" y="505"/>
      <point x="116" y="497"/>
      <point x="102" y="483" type="curve" smooth="yes"/>
      <point x="97" y="477"/>
      <point x="90" y="469"/>
      <point x="85" y="462" type="curve"/>
      <point x="105" y="438"/>
      <point x="128" y="416"/>
      <point x="150" y="396" type="curve" smooth="yes"/>
      <point x="172" y="376"/>
      <point x="206" y="380"/>
      <point x="232" y="406" type="curve" smooth="yes"/>
      <point x="235" y="409"/>
      <point x="238" y="412"/>
    </contour>
    <contour>
      <point x="359" y="415" type="curve"/>
      <point x="361" y="412"/>
      <point x="364" y="409"/>
      <point x="367" y="406" type="curve" smooth="yes"/>
      <point x="393" y="380"/>
      <point x="422" y="374"/>
      <point x="447" y="394" type="curve" smooth="yes"/>
      <point x="470" y="414"/>
      <point x="492" y="436"/>
      <point x="514" y="462" type="curve"/>
      <point x="509" y="469"/>
      <point x="503" y="477"/>
      <point x="497" y="483" type="curve" smooth="yes"/>
      <point x="484" y="497"/>
      <point x="470" y="505"/>
      <point x="458" y="505" type="curve" smooth="yes"/>
      <point x="450" y="505"/>
      <point x="442" y="500"/>
      <point x="434" y="490" type="curve" smooth="yes"/>
      <point x="411" y="462"/>
      <point x="386" y="436"/>
    </contour>
    <contour>
      <point x="358" y="182" type="curve"/>
      <point x="385" y="159"/>
      <point x="410" y="134"/>
      <point x="433" y="107" type="curve" smooth="yes"/>
      <point x="441" y="96"/>
      <point x="449" y="92"/>
      <point x="458" y="92" type="curve" smooth="yes"/>
      <point x="470" y="92"/>
      <point x="483" y="100"/>
      <point x="496" y="114" type="curve" smooth="yes"/>
      <point x="502" y="120"/>
      <point x="508" y="127"/>
      <point x="513" y="134" type="curve"/>
      <point x="493" y="158"/>
      <point x="471" y="181"/>
      <point x="449" y="200" type="curve" smooth="yes"/>
      <point x="426" y="221"/>
      <point x="392" y="216"/>
      <point x="367" y="191" type="curve" smooth="yes"/>
      <point x="364" y="188"/>
      <point x="360" y="184"/>
    </contour>
    <contour>
      <point x="238" y="181" type="curve"/>
      <point x="235" y="184"/>
      <point x="232" y="187"/>
      <point x="229" y="190" type="curve" smooth="yes"/>
      <point x="203" y="216"/>
      <point x="174" y="222"/>
      <point x="150" y="202" type="curve" smooth="yes"/>
      <point x="127" y="182"/>
      <point x="104" y="160"/>
      <point x="82" y="134" type="curve"/>
      <point x="88" y="127"/>
      <point x="94" y="119"/>
      <point x="100" y="113" type="curve" smooth="yes"/>
      <point x="113" y="99"/>
      <point x="126" y="91"/>
      <point x="138" y="91" type="curve" smooth="yes"/>
      <point x="147" y="91"/>
      <point x="155" y="96"/>
      <point x="162" y="106" type="curve" smooth="yes"/>
      <point x="186" y="134"/>
      <point x="211" y="160"/>
    </contour>
    <contour>
      <point x="317" y="179" type="curve"/>
      <point x="245" y="179"/>
      <point x="203" y="223"/>
      <point x="203" y="293" type="curve" smooth="yes"/>
      <point x="203" y="300" type="line" smooth="yes"/>
      <point x="203" y="368"/>
      <point x="239" y="409"/>
      <point x="307" y="409" type="curve" smooth="yes"/>
      <point x="338" y="409"/>
      <point x="359" y="402"/>
      <point x="388" y="382" type="curve"/>
      <point x="404" y="424"/>
      <point x="361" y="472"/>
      <point x="302" y="472" type="curve"/>
      <point x="204" y="472"/>
      <point x="135" y="401"/>
      <point x="135" y="301" type="curve" smooth="yes"/>
      <point x="135" y="294" type="line" smooth="yes"/>
      <point x="135" y="196"/>
      <point x="203" y="131"/>
      <point x="296" y="131" type="curve"/>
      <point x="309" y="131"/>
      <point x="317" y="153"/>
    </contour>
    <contour>
      <point x="281" y="420" type="curve"/>
      <point x="353" y="420"/>
      <point x="395" y="378"/>
      <point x="395" y="310" type="curve" smooth="yes"/>
      <point x="395" y="303" type="line" smooth="yes"/>
      <point x="395" y="235"/>
      <point x="359" y="194"/>
      <point x="291" y="194" type="curve" smooth="yes"/>
      <point x="260" y="194"/>
      <point x="239" y="200"/>
      <point x="210" y="221" type="curve"/>
      <point x="194" y="179"/>
      <point x="237" y="131"/>
      <point x="296" y="131" type="curve"/>
      <point x="394" y="131"/>
      <point x="463" y="202"/>
      <point x="463" y="302" type="curve" smooth="yes"/>
      <point x="463" y="309" type="line" smooth="yes"/>
      <point x="463" y="407"/>
      <point x="395" y="472"/>
      <point x="302" y="472" type="curve"/>
      <point x="289" y="472"/>
      <point x="281" y="452"/>
    </contour>
  </outline>
</glyph>
<glyph name="yen" format="1">
  <advance width="600"/>
  <unicode hex="00A5"/>
  <outline>
    <contour>
      <point x="29" y="396" type="line"/>
      <point x="29" y="392"/>
      <point x="29" y="387"/>
      <point x="29" y="383" type="curve" smooth="yes"/>
      <point x="29" y="357"/>
      <point x="34" y="341"/>
      <point x="45" y="330" type="curve" smooth="yes"/>
      <point x="51" y="324"/>
      <point x="61" y="321"/>
      <point x="78" y="321" type="curve"/>
      <point x="198" y="321" type="line"/>
      <point x="200" y="329"/>
      <point x="201" y="339"/>
      <point x="201" y="347" type="curve" smooth="yes"/>
      <point x="201" y="378"/>
      <point x="192" y="396"/>
      <point x="162" y="396" type="curve"/>
    </contour>
    <contour>
      <point x="388" y="396" type="line"/>
      <point x="382" y="384"/>
      <point x="378" y="373"/>
      <point x="378" y="358" type="curve" smooth="yes"/>
      <point x="378" y="339"/>
      <point x="390" y="321"/>
      <point x="412" y="321" type="curve"/>
      <point x="569" y="321" type="line"/>
      <point x="570" y="329"/>
      <point x="571" y="339"/>
      <point x="571" y="347" type="curve" smooth="yes"/>
      <point x="571" y="378"/>
      <point x="562" y="396"/>
      <point x="532" y="396" type="curve"/>
    </contour>
    <contour>
      <point x="567" y="119" type="line"/>
      <point x="568" y="124"/>
      <point x="568" y="130"/>
      <point x="568" y="136" type="curve" smooth="yes"/>
      <point x="568" y="159"/>
      <point x="563" y="174"/>
      <point x="552" y="184" type="curve" smooth="yes"/>
      <point x="545" y="191"/>
      <point x="536" y="194"/>
      <point x="519" y="194" type="curve"/>
      <point x="34" y="194" type="line"/>
      <point x="33" y="185"/>
      <point x="32" y="176"/>
      <point x="32" y="167" type="curve" smooth="yes"/>
      <point x="32" y="136"/>
      <point x="41" y="119"/>
      <point x="71" y="119" type="curve"/>
    </contour>
    <contour>
      <point x="43" y="710" type="line"/>
      <point x="82" y="453"/>
      <point x="138" y="349"/>
      <point x="253" y="234" type="curve"/>
      <point x="268" y="218"/>
      <point x="285" y="216"/>
      <point x="298" y="216" type="curve"/>
      <point x="319" y="216"/>
      <point x="333" y="232"/>
      <point x="334" y="269" type="curve"/>
      <point x="218" y="371"/>
      <point x="167" y="448"/>
      <point x="131" y="681" type="curve"/>
      <point x="129" y="699"/>
      <point x="96" y="710"/>
      <point x="58" y="710" type="curve" smooth="yes"/>
    </contour>
    <contour>
      <point x="472" y="710" type="line"/>
      <point x="444" y="480"/>
      <point x="394" y="385"/>
      <point x="275" y="275" type="curve"/>
      <point x="250" y="251"/>
      <point x="276" y="216"/>
      <point x="298" y="216" type="curve"/>
      <point x="331" y="216" type="line"/>
      <point x="450" y="331"/>
      <point x="526" y="457"/>
      <point x="552" y="668" type="curve"/>
      <point x="555" y="691"/>
      <point x="524" y="710"/>
      <point x="487" y="710" type="curve"/>
    </contour>
    <contour>
      <point x="351" y="-6" type="curve"/>
      <point x="344" y="30"/>
      <point x="342" y="65"/>
      <point x="342" y="103" type="curve" smooth="yes"/>
      <point x="342" y="245" type="line" smooth="yes"/>
      <point x="342" y="271"/>
      <point x="304" y="282"/>
      <point x="258" y="282" type="curve"/>
      <point x="258" y="53" type="line" smooth="yes"/>
      <point x="258" y="30"/>
      <point x="260" y="14"/>
      <point x="272" y="2" type="curve" smooth="yes"/>
      <point x="281" y="-6"/>
      <point x="293" y="-10"/>
      <point x="318" y="-10" type="curve" smooth="yes"/>
      <point x="330" y="-10"/>
      <point x="340" y="-9"/>
    </contour>
  </outline>
</glyph>
<glyph name="brokenbar" format="1">
  <advance width="300"/>
  <unicode hex="00A6"/>
  <outline>
    <contour>
      <point x="99" y="759" type="curve"/>
      <point x="106" y="724"/>
      <point x="108" y="688"/>
      <point x="108" y="650" type="curve" smooth="yes"/>
      <point x="108" y="406" type="line" smooth="yes"/>
      <point x="108" y="379"/>
      <point x="133" y="369"/>
      <point x="174" y="369" type="curve" smooth="yes"/>
      <point x="181" y="369"/>
      <point x="188" y="369"/>
      <point x="192" y="370" type="curve"/>
      <point x="192" y="700" type="line" smooth="yes"/>
      <point x="192" y="723"/>
      <point x="190" y="740"/>
      <point x="178" y="751" type="curve" smooth="yes"/>
      <point x="169" y="760"/>
      <point x="157" y="764"/>
      <point x="132" y="764" type="curve" smooth="yes"/>
      <point x="120" y="764"/>
      <point x="110" y="762"/>
    </contour>
    <contour>
      <point x="108" y="229" type="curve"/>
      <point x="108" y="-124" type="line"/>
      <point x="108" y="-151"/>
      <point x="133" y="-161"/>
      <point x="174" y="-161" type="curve" smooth="yes"/>
      <point x="181" y="-161"/>
      <point x="188" y="-161"/>
      <point x="192" y="-160" type="curve"/>
      <point x="192" y="186" type="line" smooth="yes"/>
      <point x="192" y="218"/>
      <point x="179" y="234"/>
      <point x="136" y="234" type="curve" smooth="yes"/>
      <point x="125" y="234"/>
      <point x="115" y="232"/>
    </contour>
  </outline>
</glyph>
<glyph name="section" format="1">
  <advance width="600"/>
  <unicode hex="00A7"/>
  <outline>
    <contour>
      <point x="377" y="720" type="curve" smooth="yes"/>
      <point x="228" y="720"/>
      <point x="84" y="569"/>
      <point x="84" y="441" type="curve" smooth="yes"/>
      <point x="84" y="430" type="line" smooth="yes"/>
      <point x="84" y="402"/>
      <point x="131" y="378"/>
      <point x="170" y="374" type="curve"/>
      <point x="165" y="397"/>
      <point x="165" y="418"/>
      <point x="165" y="440" type="curve" smooth="yes"/>
      <point x="165" y="530"/>
      <point x="280" y="639"/>
      <point x="378" y="639" type="curve" smooth="yes"/>
      <point x="441" y="639"/>
      <point x="468" y="609"/>
      <point x="468" y="548" type="curve"/>
      <point x="494" y="548"/>
      <point x="508" y="569"/>
      <point x="508" y="581" type="curve" smooth="yes"/>
      <point x="508" y="623"/>
      <point x="500" y="657"/>
      <point x="474" y="683" type="curve" smooth="yes"/>
      <point x="452" y="705"/>
      <point x="422" y="720"/>
    </contour>
    <contour>
      <point x="376" y="307" type="curve" smooth="yes"/>
      <point x="288" y="339" type="line" smooth="yes"/>
      <point x="178" y="379"/>
      <point x="165" y="403"/>
      <point x="165" y="440" type="curve" smooth="yes"/>
      <point x="165" y="462"/>
      <point x="166" y="478"/>
      <point x="171" y="503" type="curve"/>
      <point x="127" y="496"/>
      <point x="84" y="477"/>
      <point x="84" y="430" type="curve" smooth="yes"/>
      <point x="84" y="364"/>
      <point x="124" y="319"/>
      <point x="263" y="268" type="curve" smooth="yes"/>
      <point x="349" y="235" type="line" smooth="yes"/>
      <point x="433" y="204"/>
      <point x="453" y="177"/>
      <point x="453" y="126" type="curve" smooth="yes"/>
      <point x="453" y="121" type="line" smooth="yes"/>
      <point x="453" y="87"/>
      <point x="444" y="62"/>
      <point x="416" y="29" type="curve"/>
      <point x="423" y="21"/>
      <point x="436" y="14"/>
      <point x="453" y="14" type="curve" smooth="yes"/>
      <point x="483" y="14"/>
      <point x="532" y="57"/>
      <point x="532" y="131" type="curve" smooth="yes"/>
      <point x="532" y="139" type="line" smooth="yes"/>
      <point x="532" y="209"/>
      <point x="489" y="266"/>
    </contour>
    <contour>
      <point x="376" y="72" type="curve" smooth="yes"/>
      <point x="288" y="103" type="line" smooth="yes"/>
      <point x="178" y="143"/>
      <point x="165" y="179"/>
      <point x="165" y="219" type="curve" smooth="yes"/>
      <point x="165" y="226" type="line" smooth="yes"/>
      <point x="165" y="258"/>
      <point x="179" y="290"/>
      <point x="209" y="316" type="curve"/>
      <point x="202" y="322"/>
      <point x="189" y="329"/>
      <point x="175" y="329" type="curve" smooth="yes"/>
      <point x="130" y="329"/>
      <point x="84" y="276"/>
      <point x="84" y="214" type="curve" smooth="yes"/>
      <point x="84" y="207" type="line" smooth="yes"/>
      <point x="84" y="142"/>
      <point x="124" y="84"/>
      <point x="265" y="32" type="curve" smooth="yes"/>
      <point x="353" y="-1" type="line" smooth="yes"/>
      <point x="438" y="-33"/>
      <point x="462" y="-65"/>
      <point x="462" y="-128" type="curve" smooth="yes"/>
      <point x="462" y="-133"/>
      <point x="462" y="-139"/>
      <point x="462" y="-144" type="curve"/>
      <point x="491" y="-141"/>
      <point x="532" y="-104"/>
      <point x="532" y="-81" type="curve"/>
      <point x="532" y="-22"/>
      <point x="489" y="30"/>
    </contour>
    <contour>
      <point x="300" y="-250" type="curve" smooth="yes"/>
      <point x="446" y="-250"/>
      <point x="532" y="-188"/>
      <point x="532" y="-89" type="curve" smooth="yes"/>
      <point x="532" y="-81" type="line" smooth="yes"/>
      <point x="532" y="-55"/>
      <point x="500" y="-36"/>
      <point x="477" y="-34" type="curve"/>
      <point x="477" y="-38"/>
      <point x="477" y="-42"/>
      <point x="477" y="-52" type="curve" smooth="yes"/>
      <point x="477" y="-125"/>
      <point x="410" y="-168"/>
      <point x="300" y="-168" type="curve" smooth="yes"/>
      <point x="197" y="-168"/>
      <point x="129" y="-141"/>
      <point x="79" y="-81" type="curve"/>
      <point x="75" y="-81" type="line"/>
      <point x="71" y="-94"/>
      <point x="69" y="-107"/>
      <point x="69" y="-126" type="curve" smooth="yes"/>
      <point x="69" y="-155"/>
      <point x="75" y="-175"/>
      <point x="90" y="-191" type="curve" smooth="yes"/>
      <point x="129" y="-229"/>
      <point x="207" y="-250"/>
    </contour>
    <contour>
      <point x="508" y="448" type="curve"/>
      <point x="508" y="581" type="line" smooth="yes"/>
      <point x="508" y="663"/>
      <point x="456" y="676"/>
      <point x="419" y="663" type="curve"/>
      <point x="427" y="633"/>
      <point x="427" y="602"/>
      <point x="427" y="564" type="curve" smooth="yes"/>
      <point x="427" y="493" type="line" smooth="yes"/>
      <point x="427" y="477"/>
      <point x="430" y="465"/>
      <point x="438" y="456" type="curve" smooth="yes"/>
      <point x="447" y="448"/>
      <point x="460" y="444"/>
      <point x="480" y="444" type="curve" smooth="yes"/>
      <point x="491" y="444"/>
      <point x="500" y="445"/>
    </contour>
  </outline>
</glyph>
<glyph name="dieresis" format="1">
  <advance width="600"/>
  <unicode hex="00A8"/>
  <outline>
    <contour>
      <point x="249" y="651" type="curve"/>
      <point x="249" y="720" type="line" smooth="yes"/>
      <point x="249" y="749"/>
      <point x="221" y="760"/>
      <point x="186" y="760" type="curve" smooth="yes"/>
      <point x="172" y="760"/>
      <point x="157" y="759"/>
      <point x="145" y="757" type="curve"/>
      <point x="145" y="687" type="line" smooth="yes"/>
      <point x="145" y="659"/>
      <point x="173" y="647"/>
      <point x="208" y="647" type="curve" smooth="yes"/>
      <point x="222" y="647"/>
      <point x="237" y="648"/>
    </contour>
    <contour>
      <point x="455" y="651" type="curve"/>
      <point x="455" y="720" type="line" smooth="yes"/>
      <point x="455" y="749"/>
      <point x="427" y="760"/>
      <point x="392" y="760" type="curve" smooth="yes"/>
      <point x="378" y="760"/>
      <point x="363" y="759"/>
      <point x="351" y="757" type="curve"/>
      <point x="351" y="687" type="line" smooth="yes"/>
      <point x="351" y="659"/>
      <point x="380" y="647"/>
      <point x="414" y="647" type="curve" smooth="yes"/>
      <point x="428" y="647"/>
      <point x="443" y="648"/>
    </contour>
  </outline>
</glyph>
<glyph name="logicalnot" format="1">
  <advance width="600"/>
  <unicode hex="00AC"/>
  <outline>
    <contour>
      <point x="63" y="424" type="line"/>
      <point x="63" y="420"/>
      <point x="63" y="416"/>
      <point x="63" y="411" type="curve" smooth="yes"/>
      <point x="63" y="384"/>
      <point x="68" y="368"/>
      <point x="79" y="357" type="curve" smooth="yes"/>
      <point x="86" y="350"/>
      <point x="95" y="347"/>
      <point x="112" y="347" type="curve"/>
      <point x="529" y="347" type="line"/>
      <point x="529" y="355" type="line"/>
      <point x="529" y="399"/>
      <point x="519" y="424"/>
      <point x="490" y="424" type="curve"/>
    </contour>
    <contour>
      <point x="529" y="137" type="curve"/>
      <point x="529" y="355" type="line" smooth="yes"/>
      <point x="529" y="376"/>
      <point x="500" y="380"/>
      <point x="457" y="380" type="curve"/>
      <point x="448" y="380" type="line"/>
      <point x="448" y="171" type="line" smooth="yes"/>
      <point x="448" y="141"/>
      <point x="471" y="135"/>
      <point x="504" y="135" type="curve" smooth="yes"/>
      <point x="513" y="135"/>
      <point x="522" y="136"/>
    </contour>
  </outline>
</glyph>
<glyph name="uni00AD" format="1">
  <advance width="600"/>
  <unicode hex="00AD"/>
  <outline>
    <contour>
      <point x="107" y="340" type="line"/>
      <point x="107" y="336"/>
      <point x="107" y="332"/>
      <point x="107" y="328" type="curve" smooth="yes"/>
      <point x="107" y="298"/>
      <point x="111" y="280"/>
      <point x="123" y="269" type="curve" smooth="yes"/>
      <point x="129" y="262"/>
      <point x="138" y="259"/>
      <point x="156" y="259" type="curve"/>
      <point x="495" y="259" type="line"/>
      <point x="496" y="268"/>
      <point x="497" y="278"/>
      <point x="497" y="286" type="curve" smooth="yes"/>
      <point x="497" y="321"/>
      <point x="488" y="340"/>
      <point x="458" y="340" type="curve"/>
    </contour>
  </outline>
</glyph>
<glyph name="registered" format="1">
  <advance width="600"/>
  <unicode hex="00AE"/>
  <outline>
    <contour>
      <point x="256" y="329" type="curve"/>
      <point x="251" y="354"/>
      <point x="249" y="375"/>
      <point x="249" y="403" type="curve"/>
      <point x="249" y="536" type="line"/>
      <point x="249" y="582"/>
      <point x="234" y="601"/>
      <point x="194" y="601" type="curve"/>
      <point x="194" y="377" type="line" smooth="yes"/>
      <point x="194" y="345"/>
      <point x="207" y="325"/>
      <point x="233" y="325" type="curve" smooth="yes"/>
      <point x="241" y="325"/>
      <point x="248" y="325"/>
    </contour>
    <contour>
      <point x="171" y="628" type="curve"/>
      <point x="168" y="621"/>
      <point x="167" y="614"/>
      <point x="167" y="604" type="curve"/>
      <point x="167" y="587"/>
      <point x="172" y="576"/>
      <point x="182" y="576" type="curve"/>
      <point x="186" y="576"/>
      <point x="190" y="577"/>
      <point x="197" y="579" type="curve" smooth="yes"/>
      <point x="225" y="584"/>
      <point x="265" y="589"/>
      <point x="293" y="589" type="curve" smooth="yes"/>
      <point x="340" y="589"/>
      <point x="363" y="582"/>
      <point x="385" y="559" type="curve"/>
      <point x="414" y="595"/>
      <point x="360" y="640"/>
      <point x="307" y="640" type="curve" smooth="yes"/>
      <point x="266" y="640"/>
      <point x="225" y="637"/>
    </contour>
    <contour>
      <point x="422" y="545" type="curve" smooth="yes"/>
      <point x="422" y="553" type="line" smooth="yes"/>
      <point x="422" y="601"/>
      <point x="382" y="640"/>
      <point x="307" y="640" type="curve"/>
      <point x="286" y="640"/>
      <point x="272" y="626"/>
      <point x="272" y="602" type="curve"/>
      <point x="348" y="602"/>
      <point x="368" y="592"/>
      <point x="368" y="547" type="curve" smooth="yes"/>
      <point x="368" y="540" type="line" smooth="yes"/>
      <point x="368" y="500"/>
      <point x="319" y="472"/>
      <point x="240" y="472" type="curve" smooth="yes"/>
      <point x="222" y="472"/>
      <point x="218" y="472"/>
      <point x="214" y="472" type="curve"/>
      <point x="212" y="468"/>
      <point x="211" y="465"/>
      <point x="211" y="459" type="curve" smooth="yes"/>
      <point x="211" y="447"/>
      <point x="223" y="423"/>
      <point x="239" y="423" type="curve" smooth="yes"/>
      <point x="241" y="423" type="line" smooth="yes"/>
      <point x="337" y="423"/>
      <point x="422" y="469"/>
    </contour>
    <contour>
      <point x="350" y="477" type="line"/>
      <point x="329" y="471"/>
      <point x="303" y="454"/>
      <point x="309" y="439" type="curve" smooth="yes"/>
      <point x="334" y="372" type="line" smooth="yes"/>
      <point x="346" y="341"/>
      <point x="366" y="325"/>
      <point x="387" y="325" type="curve" smooth="yes"/>
      <point x="391" y="325" type="line" smooth="yes"/>
      <point x="414" y="325"/>
      <point x="424" y="338"/>
      <point x="424" y="360" type="curve"/>
      <point x="424" y="371"/>
      <point x="423" y="378"/>
      <point x="421" y="384" type="curve"/>
      <point x="418" y="384" type="line"/>
      <point x="413" y="380"/>
      <point x="406" y="378"/>
      <point x="398" y="378" type="curve"/>
      <point x="389" y="378"/>
      <point x="384" y="383"/>
      <point x="373" y="413" type="curve" smooth="yes"/>
    </contour>
    <contour>
      <point x="300" y="760" type="curve" smooth="yes"/>
      <point x="137" y="760"/>
      <point x="43" y="663"/>
      <point x="43" y="488" type="curve" smooth="yes"/>
      <point x="43" y="474" type="line" smooth="yes"/>
      <point x="43" y="296"/>
      <point x="134" y="201"/>
      <point x="300" y="201" type="curve" smooth="yes"/>
      <point x="329" y="201"/>
      <point x="338" y="218"/>
      <point x="338" y="234" type="curve"/>
      <point x="185" y="234"/>
      <point x="90" y="307"/>
      <point x="90" y="461" type="curve" smooth="yes"/>
      <point x="90" y="497" type="line" smooth="yes"/>
      <point x="90" y="639"/>
      <point x="168" y="713"/>
      <point x="300" y="713" type="curve" smooth="yes"/>
      <point x="369" y="713"/>
      <point x="428" y="689"/>
      <point x="477" y="652" type="curve"/>
      <point x="505" y="694"/>
      <point x="383" y="760"/>
    </contour>
    <contour>
      <point x="300" y="201" type="curve" smooth="yes"/>
      <point x="464" y="201"/>
      <point x="557" y="297"/>
      <point x="557" y="469" type="curve" smooth="yes"/>
      <point x="557" y="483" type="line" smooth="yes"/>
      <point x="557" y="664"/>
      <point x="466" y="760"/>
      <point x="300" y="760" type="curve" smooth="yes"/>
      <point x="271" y="760"/>
      <point x="262" y="742"/>
      <point x="262" y="727" type="curve"/>
      <point x="415" y="727"/>
      <point x="510" y="654"/>
      <point x="510" y="496" type="curve" smooth="yes"/>
      <point x="510" y="461" type="line" smooth="yes"/>
      <point x="510" y="321"/>
      <point x="432" y="248"/>
      <point x="300" y="248" type="curve" smooth="yes"/>
      <point x="231" y="248"/>
      <point x="171" y="272"/>
      <point x="123" y="309" type="curve"/>
      <point x="97" y="266"/>
      <point x="216" y="201"/>
    </contour>
  </outline>
</glyph>
